M48
;DRILL file {Pcbnew (2013-07-07 BZR 4022)-stable} date 26/03/2014 07:49:49
;FORMAT={-:-/ absolute / metric / decimal}
FMAT,2
METRIC,TZ
T1C0.635
T2C0.800
T3C0.813
T4C1.016
T5C1.422
T6C1.524
%
G90
G05
M71
T1
X137.414Y128.524
X146.05Y115.57
X148.59Y112.776
X163.83Y113.03
X165.735Y113.03
X170.18Y115.57
X172.974Y92.456
X174.498Y112.522
X174.752Y111.252
X175.514Y99.06
T2
X128.27Y137.795
T3
X117.729Y125.984
X117.729Y128.524
X139.7Y118.11
X139.7Y130.81
X142.24Y118.11
X142.24Y130.81
X144.78Y118.11
X144.78Y130.81
X146.05Y139.065
X146.304Y110.236
X147.32Y118.11
X147.32Y130.81
X148.59Y139.065
X148.844Y110.236
X149.86Y118.11
X149.86Y130.81
X151.13Y139.065
X151.384Y110.236
X152.4Y118.11
X152.4Y130.81
X153.67Y139.065
X153.924Y110.236
X154.94Y118.11
X154.94Y130.81
X156.464Y110.236
X157.48Y118.11
X157.48Y130.81
X160.02Y108.458
X160.02Y110.998
X160.655Y116.84
X160.655Y119.38
X160.655Y121.92
X160.655Y124.46
X160.655Y127.
X160.655Y129.54
X161.29Y136.525
X162.56Y108.458
X162.56Y110.998
X163.195Y116.84
X163.195Y119.38
X163.195Y121.92
X163.195Y124.46
X163.195Y127.
X163.195Y129.54
X165.1Y108.458
X165.1Y110.998
X165.1Y136.525
X165.735Y116.84
X165.735Y119.38
X165.735Y121.92
X165.735Y124.46
X165.735Y127.
X165.735Y129.54
X167.64Y108.458
X167.64Y110.998
X168.91Y118.11
X168.91Y130.81
X170.18Y108.458
X170.18Y110.998
X171.45Y118.11
X171.45Y130.81
X173.99Y93.98
X173.99Y118.11
X173.99Y130.81
X173.99Y139.065
X176.53Y93.98
X176.53Y118.11
X176.53Y130.81
X176.53Y139.065
X179.07Y93.98
X179.07Y118.11
X179.07Y130.81
X179.07Y139.065
X181.61Y107.315
X181.61Y109.855
X181.61Y118.11
X181.61Y130.81
X181.61Y139.065
X182.245Y93.345
X182.245Y95.885
X182.245Y98.425
X184.15Y118.11
X184.15Y130.81
X186.69Y118.11
X186.69Y130.81
T4
X174.498Y87.376
X174.498Y89.916
X177.038Y87.376
X177.038Y89.916
X179.578Y87.376
X179.578Y89.916
X182.118Y87.376
X182.118Y89.916
T5
X130.302Y116.332
X135.382Y116.332
T6
X108.458Y117.094
X108.458Y122.174
X108.458Y127.254
X108.458Y132.334
T0
M30
