G04 (created by PCBNEW (2013-07-07 BZR 4022)-stable) date 05/04/2014 11:45:38*
%MOIN*%
G04 Gerber Fmt 3.4, Leading zero omitted, Abs format*
%FSLAX34Y34*%
G01*
G70*
G90*
G04 APERTURE LIST*
%ADD10C,0.00590551*%
%ADD11C,0.015*%
%ADD12C,0.15*%
%ADD13R,0.15X0.15*%
%ADD14R,0.055X0.055*%
%ADD15C,0.055*%
%ADD16R,0.06X0.06*%
%ADD17C,0.06*%
%ADD18R,0.06X0.08*%
%ADD19R,0.065X0.065*%
%ADD20C,0.065*%
%ADD21C,0.09*%
%ADD22C,0.0393701*%
%ADD23C,0.0511811*%
%ADD24C,0.0393701*%
%ADD25C,0.019685*%
%ADD26C,0.01*%
G04 APERTURE END LIST*
G54D10*
G54D11*
X41000Y-56000D02*
G75*
G03X41000Y-56000I0J0D01*
G74*
G01*
X40999Y-56000D02*
X41000Y-56000D01*
X41000Y-55999D02*
X41000Y-56000D01*
X74000Y-56000D02*
G75*
G03X74000Y-56000I0J0D01*
G74*
G01*
X73999Y-56000D02*
X74000Y-56000D01*
X74000Y-55999D02*
X74000Y-56000D01*
X74000Y-32000D02*
G75*
G03X74000Y-32000I0J0D01*
G74*
G01*
X73999Y-32000D02*
X74000Y-32000D01*
X74000Y-31999D02*
X74000Y-32000D01*
X40000Y-32000D02*
G75*
G03X40000Y-32000I0J0D01*
G74*
G01*
X39999Y-32000D02*
X40000Y-32000D01*
X40000Y-31999D02*
X40000Y-32000D01*
X72500Y-33800D02*
X72300Y-33600D01*
X72500Y-34000D02*
X72500Y-33800D01*
X72500Y-45800D02*
X72500Y-34000D01*
X74100Y-45800D02*
X72500Y-45800D01*
X74100Y-54100D02*
X74100Y-45800D01*
X41100Y-44750D02*
X41100Y-44700D01*
X41100Y-53500D02*
X41100Y-44750D01*
X43450Y-55850D02*
X41100Y-53500D01*
X72400Y-55850D02*
X43450Y-55850D01*
X74100Y-54150D02*
X72400Y-55850D01*
X68100Y-33600D02*
X72300Y-33600D01*
X67600Y-34100D02*
X68100Y-33600D01*
X67600Y-41400D02*
X67600Y-34100D01*
X67000Y-42000D02*
X67600Y-41400D01*
X62350Y-42000D02*
X67000Y-42000D01*
X62350Y-42500D02*
X62350Y-42000D01*
X62150Y-42700D02*
X62350Y-42500D01*
X56950Y-42700D02*
X62150Y-42700D01*
X56950Y-44700D02*
X56950Y-42700D01*
X41100Y-44700D02*
X56950Y-44700D01*
G54D12*
X42700Y-48100D03*
X42700Y-50100D03*
G54D13*
X42700Y-46100D03*
G54D12*
X42700Y-52100D03*
G54D14*
X71750Y-36750D03*
G54D15*
X71750Y-37750D03*
X71750Y-38750D03*
G54D14*
X63250Y-51000D03*
G54D15*
X64250Y-51000D03*
X65250Y-51000D03*
G54D14*
X63250Y-50000D03*
G54D15*
X64250Y-50000D03*
X65250Y-50000D03*
G54D14*
X63250Y-49000D03*
G54D15*
X64250Y-49000D03*
X65250Y-49000D03*
G54D14*
X63250Y-46000D03*
G54D15*
X64250Y-46000D03*
X65250Y-46000D03*
G54D14*
X63250Y-47000D03*
G54D15*
X64250Y-47000D03*
X65250Y-47000D03*
G54D14*
X63250Y-48000D03*
G54D15*
X64250Y-48000D03*
X65250Y-48000D03*
G54D14*
X70500Y-37000D03*
G54D15*
X69500Y-37000D03*
X68500Y-37000D03*
G54D14*
X67000Y-42700D03*
G54D15*
X66000Y-42700D03*
X65000Y-42700D03*
X64000Y-42700D03*
X63000Y-42700D03*
G54D14*
X67000Y-43700D03*
G54D15*
X66000Y-43700D03*
X65000Y-43700D03*
X64000Y-43700D03*
X63000Y-43700D03*
G54D14*
X60500Y-54750D03*
G54D15*
X59500Y-54750D03*
X58500Y-54750D03*
X57500Y-54750D03*
G54D14*
X71500Y-54750D03*
G54D15*
X70500Y-54750D03*
X69500Y-54750D03*
X68500Y-54750D03*
G54D16*
X68660Y-35390D03*
G54D17*
X68660Y-34390D03*
X69660Y-35390D03*
X69660Y-34390D03*
X70660Y-35390D03*
X70660Y-34390D03*
X71660Y-35390D03*
X71660Y-34390D03*
G54D16*
X55000Y-51500D03*
G54D17*
X56000Y-51500D03*
X57000Y-51500D03*
X58000Y-51500D03*
X59000Y-51500D03*
X60000Y-51500D03*
G54D16*
X61000Y-51500D03*
G54D17*
X62000Y-51500D03*
X62000Y-46500D03*
X61000Y-46500D03*
X60000Y-46500D03*
X59000Y-46500D03*
X58000Y-46500D03*
X57000Y-46500D03*
X56000Y-46500D03*
X55000Y-46500D03*
G54D16*
X66500Y-51500D03*
G54D17*
X67500Y-51500D03*
X68500Y-51500D03*
X69500Y-51500D03*
X70500Y-51500D03*
X71500Y-51500D03*
G54D16*
X72500Y-51500D03*
G54D17*
X73500Y-51500D03*
X73500Y-46500D03*
X72500Y-46500D03*
X71500Y-46500D03*
X70500Y-46500D03*
X69500Y-46500D03*
X68500Y-46500D03*
X67500Y-46500D03*
X66500Y-46500D03*
G54D14*
X71500Y-43250D03*
G54D15*
X71500Y-42250D03*
G54D18*
X64650Y-52250D03*
X63350Y-52250D03*
G54D19*
X46350Y-49600D03*
G54D20*
X46350Y-50600D03*
G54D14*
X63500Y-53750D03*
G54D15*
X65000Y-53750D03*
G54D21*
X51300Y-45800D03*
X53300Y-45800D03*
G54D14*
X57600Y-43400D03*
G54D15*
X58600Y-43400D03*
X59600Y-43400D03*
X60600Y-43400D03*
X61600Y-43400D03*
G54D22*
X50500Y-54250D03*
G54D23*
X56000Y-47690D03*
X64260Y-44370D03*
X65720Y-44410D03*
X54130Y-50600D03*
X69300Y-39000D03*
X68490Y-44350D03*
X68210Y-37680D03*
X67110Y-45610D03*
X68830Y-43770D03*
X58820Y-44390D03*
G54D24*
X61750Y-55500D02*
X63500Y-53750D01*
X51750Y-55500D02*
X61750Y-55500D01*
X50500Y-54250D02*
X51750Y-55500D01*
G54D25*
X63000Y-42700D02*
X62530Y-42700D01*
X55710Y-47210D02*
X55000Y-46500D01*
X58020Y-47210D02*
X55710Y-47210D01*
X58500Y-46730D02*
X58020Y-47210D01*
X58500Y-46250D02*
X58500Y-46730D01*
X59090Y-45660D02*
X58500Y-46250D01*
X60030Y-45660D02*
X59090Y-45660D01*
X62120Y-43570D02*
X60030Y-45660D01*
X62120Y-43110D02*
X62120Y-43570D01*
X62530Y-42700D02*
X62120Y-43110D01*
X63700Y-42700D02*
X64000Y-42700D01*
X63200Y-43200D02*
X63700Y-42700D01*
X62720Y-43200D02*
X63200Y-43200D01*
X62416Y-43503D02*
X62720Y-43200D01*
X62416Y-43692D02*
X62416Y-43503D01*
X60149Y-45960D02*
X62416Y-43692D01*
X59820Y-45960D02*
X60149Y-45960D01*
X59500Y-46280D02*
X59820Y-45960D01*
X59500Y-47000D02*
X59500Y-46280D01*
X58800Y-47700D02*
X59500Y-47000D01*
X56010Y-47700D02*
X58800Y-47700D01*
X56000Y-47690D02*
X56010Y-47700D01*
X65360Y-45360D02*
X66500Y-46500D01*
X65250Y-45360D02*
X65360Y-45360D01*
X64260Y-44370D02*
X65250Y-45360D01*
X67500Y-46500D02*
X67350Y-46500D01*
X65720Y-44870D02*
X65720Y-44410D01*
X67350Y-46500D02*
X65720Y-44870D01*
X60600Y-43400D02*
X60600Y-43440D01*
X54130Y-46300D02*
X54130Y-50600D01*
X54810Y-45620D02*
X54130Y-46300D01*
X56490Y-45620D02*
X54810Y-45620D01*
X58210Y-43900D02*
X56490Y-45620D01*
X60140Y-43900D02*
X58210Y-43900D01*
X60600Y-43440D02*
X60140Y-43900D01*
X69500Y-38800D02*
X69500Y-37000D01*
X69300Y-39000D02*
X69500Y-38800D01*
X62000Y-46500D02*
X62000Y-45990D01*
X64510Y-43190D02*
X65000Y-42700D01*
X63770Y-43190D02*
X64510Y-43190D01*
X63480Y-43480D02*
X63770Y-43190D01*
X63480Y-44510D02*
X63480Y-43480D01*
X62000Y-45990D02*
X63480Y-44510D01*
X72950Y-45950D02*
X73500Y-46500D01*
X70090Y-45950D02*
X72950Y-45950D01*
X68490Y-44350D02*
X70090Y-45950D01*
X55000Y-51500D02*
X55000Y-51390D01*
X60300Y-50800D02*
X61000Y-51500D01*
X55590Y-50800D02*
X60300Y-50800D01*
X55000Y-51390D02*
X55590Y-50800D01*
X66500Y-51500D02*
X66500Y-51310D01*
X71890Y-50890D02*
X72500Y-51500D01*
X66920Y-50890D02*
X71890Y-50890D01*
X66500Y-51310D02*
X66920Y-50890D01*
X68180Y-37650D02*
X67890Y-37650D01*
X68210Y-37680D02*
X68180Y-37650D01*
X71660Y-35390D02*
X71660Y-35200D01*
X71660Y-35200D02*
X71160Y-34700D01*
X71160Y-34700D02*
X71160Y-34160D01*
X71160Y-34160D02*
X70800Y-33800D01*
X70800Y-33800D02*
X68370Y-33800D01*
X68370Y-33800D02*
X67890Y-34280D01*
X67890Y-34280D02*
X67890Y-37650D01*
X66520Y-42180D02*
X66000Y-42700D01*
X67890Y-37650D02*
X67890Y-41420D01*
X67890Y-41420D02*
X67130Y-42180D01*
X67130Y-42180D02*
X66520Y-42180D01*
X66710Y-44410D02*
X66000Y-43700D01*
X66710Y-45210D02*
X66710Y-44410D01*
X67110Y-45610D02*
X66710Y-45210D01*
X59600Y-43400D02*
X59600Y-43210D01*
X61110Y-42910D02*
X61600Y-43400D01*
X59900Y-42910D02*
X61110Y-42910D01*
X59600Y-43210D02*
X59900Y-42910D01*
X57600Y-43400D02*
X57600Y-43260D01*
X59070Y-42870D02*
X59600Y-43400D01*
X57990Y-42870D02*
X59070Y-42870D01*
X57600Y-43260D02*
X57990Y-42870D01*
X66000Y-42700D02*
X66000Y-43700D01*
X63350Y-52250D02*
X63350Y-51100D01*
X63350Y-51100D02*
X63250Y-51000D01*
X63250Y-51000D02*
X63250Y-50000D01*
X63250Y-50000D02*
X63250Y-49000D01*
X63250Y-49000D02*
X63250Y-48000D01*
X70500Y-37000D02*
X70500Y-35550D01*
X70500Y-35550D02*
X70660Y-35390D01*
X61000Y-46500D02*
X61000Y-46710D01*
X63750Y-46500D02*
X64250Y-46000D01*
X62840Y-46500D02*
X63750Y-46500D01*
X62290Y-47050D02*
X62840Y-46500D01*
X61340Y-47050D02*
X62290Y-47050D01*
X61000Y-46710D02*
X61340Y-47050D01*
X71500Y-46500D02*
X71500Y-46740D01*
X64740Y-49510D02*
X64250Y-50000D01*
X68730Y-49510D02*
X64740Y-49510D01*
X71500Y-46740D02*
X68730Y-49510D01*
X64250Y-51000D02*
X64250Y-50920D01*
X68490Y-50510D02*
X72500Y-46500D01*
X64660Y-50510D02*
X68490Y-50510D01*
X64250Y-50920D02*
X64660Y-50510D01*
X60000Y-46500D02*
X60030Y-46500D01*
X63740Y-47510D02*
X64250Y-47000D01*
X61040Y-47510D02*
X63740Y-47510D01*
X60030Y-46500D02*
X61040Y-47510D01*
X64250Y-49000D02*
X64250Y-48850D01*
X68500Y-48500D02*
X70500Y-46500D01*
X64600Y-48500D02*
X68500Y-48500D01*
X64250Y-48850D02*
X64600Y-48500D01*
X70660Y-34390D02*
X70660Y-34660D01*
X71160Y-38160D02*
X71750Y-38750D01*
X71160Y-35160D02*
X71160Y-38160D01*
X70660Y-34660D02*
X71160Y-35160D01*
X68760Y-43700D02*
X67000Y-43700D01*
X68830Y-43770D02*
X68760Y-43700D01*
X67000Y-43700D02*
X68781Y-43700D01*
X68781Y-43700D02*
X68852Y-43771D01*
X71660Y-34390D02*
X71870Y-34390D01*
X71870Y-34390D02*
X72240Y-34760D01*
X72240Y-34760D02*
X72240Y-44070D01*
X72240Y-44070D02*
X71870Y-44440D01*
X71870Y-44440D02*
X69521Y-44440D01*
X69521Y-44440D02*
X68852Y-43771D01*
X64650Y-52250D02*
X66750Y-52250D01*
X66750Y-52250D02*
X67500Y-51500D01*
X56000Y-51500D02*
X56000Y-52520D01*
X64650Y-52860D02*
X64650Y-52250D01*
X64510Y-53000D02*
X64650Y-52860D01*
X60860Y-53000D02*
X64510Y-53000D01*
X56480Y-53000D02*
X60860Y-53000D01*
X56000Y-52520D02*
X56480Y-53000D01*
X69500Y-46500D02*
X68500Y-46500D01*
X67000Y-43700D02*
X67000Y-44140D01*
X68500Y-45640D02*
X68500Y-46500D01*
X67000Y-44140D02*
X68500Y-45640D01*
X67000Y-42700D02*
X67000Y-43700D01*
X58000Y-46500D02*
X58000Y-45210D01*
X58000Y-45210D02*
X58820Y-44390D01*
G54D10*
G36*
X57702Y-43914D02*
X57275Y-44342D01*
X57275Y-43924D01*
X57275Y-43925D01*
X57487Y-43925D01*
X57550Y-43862D01*
X57550Y-43450D01*
X57542Y-43450D01*
X57542Y-43350D01*
X57550Y-43350D01*
X57550Y-43342D01*
X57650Y-43342D01*
X57650Y-43350D01*
X57657Y-43350D01*
X57657Y-43450D01*
X57650Y-43450D01*
X57650Y-43862D01*
X57702Y-43914D01*
X57702Y-43914D01*
G37*
G54D26*
X57702Y-43914D02*
X57275Y-44342D01*
X57275Y-43924D01*
X57275Y-43925D01*
X57487Y-43925D01*
X57550Y-43862D01*
X57550Y-43450D01*
X57542Y-43450D01*
X57542Y-43350D01*
X57550Y-43350D01*
X57550Y-43342D01*
X57650Y-43342D01*
X57650Y-43350D01*
X57657Y-43350D01*
X57657Y-43450D01*
X57650Y-43450D01*
X57650Y-43862D01*
X57702Y-43914D01*
G54D10*
G36*
X59676Y-43405D02*
X59605Y-43476D01*
X59600Y-43470D01*
X59594Y-43476D01*
X59523Y-43405D01*
X59529Y-43400D01*
X59523Y-43394D01*
X59594Y-43323D01*
X59600Y-43329D01*
X59605Y-43323D01*
X59676Y-43394D01*
X59670Y-43400D01*
X59676Y-43405D01*
X59676Y-43405D01*
G37*
G54D26*
X59676Y-43405D02*
X59605Y-43476D01*
X59600Y-43470D01*
X59594Y-43476D01*
X59523Y-43405D01*
X59529Y-43400D01*
X59523Y-43394D01*
X59594Y-43323D01*
X59600Y-43329D01*
X59605Y-43323D01*
X59676Y-43394D01*
X59670Y-43400D01*
X59676Y-43405D01*
G54D10*
G36*
X61676Y-43405D02*
X61605Y-43476D01*
X61600Y-43470D01*
X61302Y-43767D01*
X61327Y-43860D01*
X61334Y-43863D01*
X59885Y-45311D01*
X59090Y-45311D01*
X58956Y-45338D01*
X58843Y-45413D01*
X58843Y-45413D01*
X58348Y-45908D01*
X58348Y-45354D01*
X58806Y-44895D01*
X58920Y-44895D01*
X59106Y-44819D01*
X59248Y-44676D01*
X59325Y-44491D01*
X59325Y-44289D01*
X59308Y-44248D01*
X60139Y-44248D01*
X60140Y-44248D01*
X60140Y-44248D01*
X60251Y-44226D01*
X60273Y-44221D01*
X60273Y-44221D01*
X60386Y-44146D01*
X60607Y-43925D01*
X60703Y-43925D01*
X60897Y-43845D01*
X61044Y-43697D01*
X61097Y-43571D01*
X61139Y-43672D01*
X61232Y-43697D01*
X61529Y-43400D01*
X61523Y-43394D01*
X61594Y-43323D01*
X61600Y-43329D01*
X61605Y-43323D01*
X61676Y-43394D01*
X61670Y-43400D01*
X61676Y-43405D01*
X61676Y-43405D01*
G37*
G54D26*
X61676Y-43405D02*
X61605Y-43476D01*
X61600Y-43470D01*
X61302Y-43767D01*
X61327Y-43860D01*
X61334Y-43863D01*
X59885Y-45311D01*
X59090Y-45311D01*
X58956Y-45338D01*
X58843Y-45413D01*
X58843Y-45413D01*
X58348Y-45908D01*
X58348Y-45354D01*
X58806Y-44895D01*
X58920Y-44895D01*
X59106Y-44819D01*
X59248Y-44676D01*
X59325Y-44491D01*
X59325Y-44289D01*
X59308Y-44248D01*
X60139Y-44248D01*
X60140Y-44248D01*
X60140Y-44248D01*
X60251Y-44226D01*
X60273Y-44221D01*
X60273Y-44221D01*
X60386Y-44146D01*
X60607Y-43925D01*
X60703Y-43925D01*
X60897Y-43845D01*
X61044Y-43697D01*
X61097Y-43571D01*
X61139Y-43672D01*
X61232Y-43697D01*
X61529Y-43400D01*
X61523Y-43394D01*
X61594Y-43323D01*
X61600Y-43329D01*
X61605Y-43323D01*
X61676Y-43394D01*
X61670Y-43400D01*
X61676Y-43405D01*
G54D10*
G36*
X63006Y-53348D02*
X62975Y-53425D01*
X62974Y-53524D01*
X62974Y-53643D01*
X61564Y-55053D01*
X61024Y-55053D01*
X61025Y-54975D01*
X61025Y-54425D01*
X60987Y-54333D01*
X60916Y-54263D01*
X60824Y-54225D01*
X60725Y-54224D01*
X60175Y-54224D01*
X60083Y-54262D01*
X60013Y-54333D01*
X59975Y-54425D01*
X59974Y-54524D01*
X59974Y-54524D01*
X59945Y-54453D01*
X59797Y-54305D01*
X59604Y-54225D01*
X59396Y-54224D01*
X59203Y-54304D01*
X59055Y-54452D01*
X58999Y-54585D01*
X58945Y-54453D01*
X58797Y-54305D01*
X58604Y-54225D01*
X58396Y-54224D01*
X58203Y-54304D01*
X58055Y-54452D01*
X57999Y-54585D01*
X57945Y-54453D01*
X57797Y-54305D01*
X57604Y-54225D01*
X57396Y-54224D01*
X57203Y-54304D01*
X57055Y-54452D01*
X56975Y-54645D01*
X56974Y-54853D01*
X57054Y-55047D01*
X57060Y-55053D01*
X54950Y-55053D01*
X54950Y-51987D01*
X54950Y-51550D01*
X54950Y-51450D01*
X54950Y-51012D01*
X54887Y-50950D01*
X54650Y-50949D01*
X54558Y-50987D01*
X54488Y-51058D01*
X54450Y-51150D01*
X54449Y-51249D01*
X54450Y-51387D01*
X54512Y-51450D01*
X54950Y-51450D01*
X54950Y-51550D01*
X54512Y-51550D01*
X54450Y-51612D01*
X54449Y-51750D01*
X54450Y-51849D01*
X54488Y-51941D01*
X54558Y-52012D01*
X54650Y-52050D01*
X54887Y-52050D01*
X54950Y-51987D01*
X54950Y-55053D01*
X52000Y-55053D01*
X52000Y-45661D01*
X51893Y-45404D01*
X51697Y-45206D01*
X51439Y-45100D01*
X51161Y-45099D01*
X50904Y-45206D01*
X50706Y-45402D01*
X50600Y-45660D01*
X50599Y-45938D01*
X50706Y-46196D01*
X50902Y-46393D01*
X51160Y-46499D01*
X51438Y-46500D01*
X51696Y-46393D01*
X51893Y-46197D01*
X51999Y-45939D01*
X52000Y-45661D01*
X52000Y-55053D01*
X51935Y-55053D01*
X50816Y-53934D01*
X50815Y-53934D01*
X50753Y-53871D01*
X50589Y-53803D01*
X50411Y-53803D01*
X50247Y-53870D01*
X50121Y-53996D01*
X50053Y-54160D01*
X50053Y-54338D01*
X50120Y-54502D01*
X50184Y-54565D01*
X50246Y-54628D01*
X50246Y-54628D01*
X51143Y-55525D01*
X46929Y-55525D01*
X46929Y-50687D01*
X46925Y-50587D01*
X46925Y-49875D01*
X46925Y-49225D01*
X46887Y-49133D01*
X46816Y-49063D01*
X46724Y-49025D01*
X46625Y-49024D01*
X45975Y-49024D01*
X45883Y-49062D01*
X45813Y-49133D01*
X45775Y-49225D01*
X45774Y-49324D01*
X45774Y-49974D01*
X45812Y-50066D01*
X45883Y-50136D01*
X45975Y-50174D01*
X46023Y-50174D01*
X46016Y-50195D01*
X46350Y-50529D01*
X46683Y-50195D01*
X46676Y-50175D01*
X46724Y-50175D01*
X46816Y-50137D01*
X46886Y-50066D01*
X46924Y-49974D01*
X46925Y-49875D01*
X46925Y-50587D01*
X46919Y-50459D01*
X46851Y-50297D01*
X46754Y-50266D01*
X46420Y-50600D01*
X46754Y-50933D01*
X46851Y-50902D01*
X46929Y-50687D01*
X46929Y-55525D01*
X46683Y-55525D01*
X46683Y-51004D01*
X46350Y-50670D01*
X46279Y-50741D01*
X46279Y-50600D01*
X45945Y-50266D01*
X45848Y-50297D01*
X45770Y-50512D01*
X45780Y-50740D01*
X45848Y-50902D01*
X45945Y-50933D01*
X46279Y-50600D01*
X46279Y-50741D01*
X46016Y-51004D01*
X46047Y-51101D01*
X46262Y-51179D01*
X46490Y-51169D01*
X46652Y-51101D01*
X46683Y-51004D01*
X46683Y-55525D01*
X43701Y-55525D01*
X43701Y-50289D01*
X43700Y-50112D01*
X43700Y-47901D01*
X43700Y-47901D01*
X43548Y-47534D01*
X43267Y-47252D01*
X42899Y-47100D01*
X42700Y-47100D01*
X42750Y-47100D01*
X42750Y-47037D01*
X42812Y-47100D01*
X43400Y-47100D01*
X43499Y-47099D01*
X43591Y-47061D01*
X43662Y-46991D01*
X43700Y-46899D01*
X43700Y-45300D01*
X43662Y-45208D01*
X43591Y-45138D01*
X43499Y-45100D01*
X43400Y-45099D01*
X42812Y-45100D01*
X42750Y-45162D01*
X42750Y-46050D01*
X43637Y-46050D01*
X43700Y-45987D01*
X43700Y-45300D01*
X43700Y-46899D01*
X43700Y-46212D01*
X43637Y-46150D01*
X42750Y-46150D01*
X42750Y-46157D01*
X42650Y-46157D01*
X42650Y-46150D01*
X42650Y-46050D01*
X42650Y-45162D01*
X42587Y-45100D01*
X41999Y-45099D01*
X41900Y-45100D01*
X41808Y-45138D01*
X41737Y-45208D01*
X41699Y-45300D01*
X41700Y-45987D01*
X41762Y-46050D01*
X42650Y-46050D01*
X42650Y-46150D01*
X41762Y-46150D01*
X41700Y-46212D01*
X41699Y-46899D01*
X41737Y-46991D01*
X41808Y-47061D01*
X41900Y-47099D01*
X41999Y-47100D01*
X42501Y-47100D01*
X42134Y-47251D01*
X41852Y-47532D01*
X41700Y-47900D01*
X41699Y-48298D01*
X41851Y-48665D01*
X42132Y-48947D01*
X42500Y-49099D01*
X42695Y-49099D01*
X42491Y-49101D01*
X42141Y-49246D01*
X42059Y-49388D01*
X42700Y-50029D01*
X43340Y-49388D01*
X43258Y-49246D01*
X42894Y-49100D01*
X42898Y-49100D01*
X43265Y-48948D01*
X43547Y-48667D01*
X43699Y-48299D01*
X43700Y-47901D01*
X43700Y-50112D01*
X43698Y-49891D01*
X43553Y-49541D01*
X43411Y-49459D01*
X42770Y-50100D01*
X43411Y-50740D01*
X43553Y-50658D01*
X43701Y-50289D01*
X43701Y-55525D01*
X43700Y-55525D01*
X43700Y-51901D01*
X43548Y-51534D01*
X43267Y-51252D01*
X42899Y-51100D01*
X42704Y-51100D01*
X42908Y-51098D01*
X43258Y-50953D01*
X43340Y-50811D01*
X42700Y-50170D01*
X42629Y-50241D01*
X42629Y-50100D01*
X41988Y-49459D01*
X41846Y-49541D01*
X41698Y-49910D01*
X41701Y-50308D01*
X41846Y-50658D01*
X41988Y-50740D01*
X42629Y-50100D01*
X42629Y-50241D01*
X42059Y-50811D01*
X42141Y-50953D01*
X42505Y-51099D01*
X42501Y-51099D01*
X42134Y-51251D01*
X41852Y-51532D01*
X41700Y-51900D01*
X41699Y-52298D01*
X41851Y-52665D01*
X42132Y-52947D01*
X42500Y-53099D01*
X42898Y-53100D01*
X43265Y-52948D01*
X43547Y-52667D01*
X43699Y-52299D01*
X43700Y-51901D01*
X43700Y-55525D01*
X43584Y-55525D01*
X41425Y-53365D01*
X41425Y-45025D01*
X56592Y-45025D01*
X56345Y-45271D01*
X54810Y-45271D01*
X54676Y-45298D01*
X54563Y-45373D01*
X54563Y-45373D01*
X53999Y-45937D01*
X54000Y-45661D01*
X53893Y-45404D01*
X53697Y-45206D01*
X53439Y-45100D01*
X53161Y-45099D01*
X52904Y-45206D01*
X52706Y-45402D01*
X52600Y-45660D01*
X52599Y-45938D01*
X52706Y-46196D01*
X52902Y-46393D01*
X53160Y-46499D01*
X53438Y-46500D01*
X53696Y-46393D01*
X53781Y-46308D01*
X53781Y-50232D01*
X53701Y-50313D01*
X53624Y-50498D01*
X53624Y-50700D01*
X53700Y-50886D01*
X53843Y-51028D01*
X54028Y-51105D01*
X54230Y-51105D01*
X54416Y-51029D01*
X54558Y-50886D01*
X54635Y-50701D01*
X54635Y-50499D01*
X54559Y-50313D01*
X54478Y-50232D01*
X54478Y-46677D01*
X54533Y-46811D01*
X54688Y-46965D01*
X54890Y-47049D01*
X55057Y-47050D01*
X55463Y-47456D01*
X55463Y-47456D01*
X55530Y-47501D01*
X55494Y-47588D01*
X55494Y-47790D01*
X55570Y-47976D01*
X55713Y-48118D01*
X55898Y-48195D01*
X56100Y-48195D01*
X56286Y-48119D01*
X56357Y-48048D01*
X58799Y-48048D01*
X58800Y-48048D01*
X58800Y-48048D01*
X58911Y-48026D01*
X58933Y-48021D01*
X58933Y-48021D01*
X59046Y-47946D01*
X59746Y-47246D01*
X59746Y-47246D01*
X59746Y-47246D01*
X59821Y-47133D01*
X59842Y-47030D01*
X59890Y-47049D01*
X60087Y-47050D01*
X60793Y-47756D01*
X60793Y-47756D01*
X60906Y-47831D01*
X61040Y-47858D01*
X62724Y-47858D01*
X62724Y-48324D01*
X62762Y-48416D01*
X62833Y-48486D01*
X62864Y-48499D01*
X62833Y-48512D01*
X62763Y-48583D01*
X62725Y-48675D01*
X62724Y-48774D01*
X62724Y-49324D01*
X62762Y-49416D01*
X62833Y-49486D01*
X62864Y-49499D01*
X62833Y-49512D01*
X62763Y-49583D01*
X62725Y-49675D01*
X62724Y-49774D01*
X62724Y-50324D01*
X62762Y-50416D01*
X62833Y-50486D01*
X62864Y-50499D01*
X62833Y-50512D01*
X62763Y-50583D01*
X62725Y-50675D01*
X62724Y-50774D01*
X62724Y-51324D01*
X62762Y-51416D01*
X62833Y-51486D01*
X62925Y-51524D01*
X63001Y-51525D01*
X63001Y-51599D01*
X63000Y-51599D01*
X62908Y-51637D01*
X62838Y-51708D01*
X62800Y-51800D01*
X62799Y-51899D01*
X62799Y-52651D01*
X62550Y-52651D01*
X62550Y-51391D01*
X62466Y-51188D01*
X62311Y-51034D01*
X62109Y-50950D01*
X61891Y-50949D01*
X61688Y-51033D01*
X61549Y-51172D01*
X61549Y-51150D01*
X61511Y-51058D01*
X61441Y-50987D01*
X61349Y-50949D01*
X61112Y-50950D01*
X61050Y-51012D01*
X61050Y-51450D01*
X61057Y-51450D01*
X61057Y-51550D01*
X61050Y-51550D01*
X61050Y-51987D01*
X61112Y-52050D01*
X61349Y-52050D01*
X61441Y-52012D01*
X61511Y-51941D01*
X61549Y-51849D01*
X61549Y-51827D01*
X61688Y-51965D01*
X61890Y-52049D01*
X62108Y-52050D01*
X62311Y-51966D01*
X62465Y-51811D01*
X62549Y-51609D01*
X62550Y-51391D01*
X62550Y-52651D01*
X60860Y-52651D01*
X56624Y-52651D01*
X56348Y-52375D01*
X56348Y-51929D01*
X56465Y-51811D01*
X56499Y-51730D01*
X56533Y-51811D01*
X56688Y-51965D01*
X56890Y-52049D01*
X57108Y-52050D01*
X57311Y-51966D01*
X57465Y-51811D01*
X57499Y-51730D01*
X57533Y-51811D01*
X57688Y-51965D01*
X57890Y-52049D01*
X58108Y-52050D01*
X58311Y-51966D01*
X58465Y-51811D01*
X58499Y-51730D01*
X58533Y-51811D01*
X58688Y-51965D01*
X58890Y-52049D01*
X59108Y-52050D01*
X59311Y-51966D01*
X59465Y-51811D01*
X59499Y-51730D01*
X59533Y-51811D01*
X59688Y-51965D01*
X59890Y-52049D01*
X60108Y-52050D01*
X60311Y-51966D01*
X60450Y-51827D01*
X60450Y-51849D01*
X60488Y-51941D01*
X60558Y-52012D01*
X60650Y-52050D01*
X60887Y-52050D01*
X60950Y-51987D01*
X60950Y-51550D01*
X60942Y-51550D01*
X60942Y-51450D01*
X60950Y-51450D01*
X60950Y-51012D01*
X60887Y-50950D01*
X60650Y-50949D01*
X60558Y-50987D01*
X60488Y-51058D01*
X60450Y-51150D01*
X60450Y-51172D01*
X60311Y-51034D01*
X60109Y-50950D01*
X59891Y-50949D01*
X59688Y-51033D01*
X59534Y-51188D01*
X59500Y-51269D01*
X59466Y-51188D01*
X59311Y-51034D01*
X59109Y-50950D01*
X58891Y-50949D01*
X58688Y-51033D01*
X58534Y-51188D01*
X58500Y-51269D01*
X58466Y-51188D01*
X58311Y-51034D01*
X58109Y-50950D01*
X57891Y-50949D01*
X57688Y-51033D01*
X57534Y-51188D01*
X57500Y-51269D01*
X57466Y-51188D01*
X57311Y-51034D01*
X57109Y-50950D01*
X56891Y-50949D01*
X56688Y-51033D01*
X56534Y-51188D01*
X56500Y-51269D01*
X56466Y-51188D01*
X56311Y-51034D01*
X56109Y-50950D01*
X55891Y-50949D01*
X55688Y-51033D01*
X55549Y-51172D01*
X55549Y-51150D01*
X55511Y-51058D01*
X55441Y-50987D01*
X55349Y-50949D01*
X55112Y-50950D01*
X55050Y-51012D01*
X55050Y-51450D01*
X55057Y-51450D01*
X55057Y-51550D01*
X55050Y-51550D01*
X55050Y-51987D01*
X55112Y-52050D01*
X55349Y-52050D01*
X55441Y-52012D01*
X55511Y-51941D01*
X55549Y-51849D01*
X55549Y-51827D01*
X55651Y-51929D01*
X55651Y-52519D01*
X55651Y-52520D01*
X55673Y-52631D01*
X55678Y-52653D01*
X55753Y-52766D01*
X56233Y-53246D01*
X56233Y-53246D01*
X56346Y-53321D01*
X56480Y-53348D01*
X56480Y-53348D01*
X56480Y-53348D01*
X60860Y-53348D01*
X63006Y-53348D01*
X63006Y-53348D01*
G37*
G54D26*
X63006Y-53348D02*
X62975Y-53425D01*
X62974Y-53524D01*
X62974Y-53643D01*
X61564Y-55053D01*
X61024Y-55053D01*
X61025Y-54975D01*
X61025Y-54425D01*
X60987Y-54333D01*
X60916Y-54263D01*
X60824Y-54225D01*
X60725Y-54224D01*
X60175Y-54224D01*
X60083Y-54262D01*
X60013Y-54333D01*
X59975Y-54425D01*
X59974Y-54524D01*
X59974Y-54524D01*
X59945Y-54453D01*
X59797Y-54305D01*
X59604Y-54225D01*
X59396Y-54224D01*
X59203Y-54304D01*
X59055Y-54452D01*
X58999Y-54585D01*
X58945Y-54453D01*
X58797Y-54305D01*
X58604Y-54225D01*
X58396Y-54224D01*
X58203Y-54304D01*
X58055Y-54452D01*
X57999Y-54585D01*
X57945Y-54453D01*
X57797Y-54305D01*
X57604Y-54225D01*
X57396Y-54224D01*
X57203Y-54304D01*
X57055Y-54452D01*
X56975Y-54645D01*
X56974Y-54853D01*
X57054Y-55047D01*
X57060Y-55053D01*
X54950Y-55053D01*
X54950Y-51987D01*
X54950Y-51550D01*
X54950Y-51450D01*
X54950Y-51012D01*
X54887Y-50950D01*
X54650Y-50949D01*
X54558Y-50987D01*
X54488Y-51058D01*
X54450Y-51150D01*
X54449Y-51249D01*
X54450Y-51387D01*
X54512Y-51450D01*
X54950Y-51450D01*
X54950Y-51550D01*
X54512Y-51550D01*
X54450Y-51612D01*
X54449Y-51750D01*
X54450Y-51849D01*
X54488Y-51941D01*
X54558Y-52012D01*
X54650Y-52050D01*
X54887Y-52050D01*
X54950Y-51987D01*
X54950Y-55053D01*
X52000Y-55053D01*
X52000Y-45661D01*
X51893Y-45404D01*
X51697Y-45206D01*
X51439Y-45100D01*
X51161Y-45099D01*
X50904Y-45206D01*
X50706Y-45402D01*
X50600Y-45660D01*
X50599Y-45938D01*
X50706Y-46196D01*
X50902Y-46393D01*
X51160Y-46499D01*
X51438Y-46500D01*
X51696Y-46393D01*
X51893Y-46197D01*
X51999Y-45939D01*
X52000Y-45661D01*
X52000Y-55053D01*
X51935Y-55053D01*
X50816Y-53934D01*
X50815Y-53934D01*
X50753Y-53871D01*
X50589Y-53803D01*
X50411Y-53803D01*
X50247Y-53870D01*
X50121Y-53996D01*
X50053Y-54160D01*
X50053Y-54338D01*
X50120Y-54502D01*
X50184Y-54565D01*
X50246Y-54628D01*
X50246Y-54628D01*
X51143Y-55525D01*
X46929Y-55525D01*
X46929Y-50687D01*
X46925Y-50587D01*
X46925Y-49875D01*
X46925Y-49225D01*
X46887Y-49133D01*
X46816Y-49063D01*
X46724Y-49025D01*
X46625Y-49024D01*
X45975Y-49024D01*
X45883Y-49062D01*
X45813Y-49133D01*
X45775Y-49225D01*
X45774Y-49324D01*
X45774Y-49974D01*
X45812Y-50066D01*
X45883Y-50136D01*
X45975Y-50174D01*
X46023Y-50174D01*
X46016Y-50195D01*
X46350Y-50529D01*
X46683Y-50195D01*
X46676Y-50175D01*
X46724Y-50175D01*
X46816Y-50137D01*
X46886Y-50066D01*
X46924Y-49974D01*
X46925Y-49875D01*
X46925Y-50587D01*
X46919Y-50459D01*
X46851Y-50297D01*
X46754Y-50266D01*
X46420Y-50600D01*
X46754Y-50933D01*
X46851Y-50902D01*
X46929Y-50687D01*
X46929Y-55525D01*
X46683Y-55525D01*
X46683Y-51004D01*
X46350Y-50670D01*
X46279Y-50741D01*
X46279Y-50600D01*
X45945Y-50266D01*
X45848Y-50297D01*
X45770Y-50512D01*
X45780Y-50740D01*
X45848Y-50902D01*
X45945Y-50933D01*
X46279Y-50600D01*
X46279Y-50741D01*
X46016Y-51004D01*
X46047Y-51101D01*
X46262Y-51179D01*
X46490Y-51169D01*
X46652Y-51101D01*
X46683Y-51004D01*
X46683Y-55525D01*
X43701Y-55525D01*
X43701Y-50289D01*
X43700Y-50112D01*
X43700Y-47901D01*
X43700Y-47901D01*
X43548Y-47534D01*
X43267Y-47252D01*
X42899Y-47100D01*
X42700Y-47100D01*
X42750Y-47100D01*
X42750Y-47037D01*
X42812Y-47100D01*
X43400Y-47100D01*
X43499Y-47099D01*
X43591Y-47061D01*
X43662Y-46991D01*
X43700Y-46899D01*
X43700Y-45300D01*
X43662Y-45208D01*
X43591Y-45138D01*
X43499Y-45100D01*
X43400Y-45099D01*
X42812Y-45100D01*
X42750Y-45162D01*
X42750Y-46050D01*
X43637Y-46050D01*
X43700Y-45987D01*
X43700Y-45300D01*
X43700Y-46899D01*
X43700Y-46212D01*
X43637Y-46150D01*
X42750Y-46150D01*
X42750Y-46157D01*
X42650Y-46157D01*
X42650Y-46150D01*
X42650Y-46050D01*
X42650Y-45162D01*
X42587Y-45100D01*
X41999Y-45099D01*
X41900Y-45100D01*
X41808Y-45138D01*
X41737Y-45208D01*
X41699Y-45300D01*
X41700Y-45987D01*
X41762Y-46050D01*
X42650Y-46050D01*
X42650Y-46150D01*
X41762Y-46150D01*
X41700Y-46212D01*
X41699Y-46899D01*
X41737Y-46991D01*
X41808Y-47061D01*
X41900Y-47099D01*
X41999Y-47100D01*
X42501Y-47100D01*
X42134Y-47251D01*
X41852Y-47532D01*
X41700Y-47900D01*
X41699Y-48298D01*
X41851Y-48665D01*
X42132Y-48947D01*
X42500Y-49099D01*
X42695Y-49099D01*
X42491Y-49101D01*
X42141Y-49246D01*
X42059Y-49388D01*
X42700Y-50029D01*
X43340Y-49388D01*
X43258Y-49246D01*
X42894Y-49100D01*
X42898Y-49100D01*
X43265Y-48948D01*
X43547Y-48667D01*
X43699Y-48299D01*
X43700Y-47901D01*
X43700Y-50112D01*
X43698Y-49891D01*
X43553Y-49541D01*
X43411Y-49459D01*
X42770Y-50100D01*
X43411Y-50740D01*
X43553Y-50658D01*
X43701Y-50289D01*
X43701Y-55525D01*
X43700Y-55525D01*
X43700Y-51901D01*
X43548Y-51534D01*
X43267Y-51252D01*
X42899Y-51100D01*
X42704Y-51100D01*
X42908Y-51098D01*
X43258Y-50953D01*
X43340Y-50811D01*
X42700Y-50170D01*
X42629Y-50241D01*
X42629Y-50100D01*
X41988Y-49459D01*
X41846Y-49541D01*
X41698Y-49910D01*
X41701Y-50308D01*
X41846Y-50658D01*
X41988Y-50740D01*
X42629Y-50100D01*
X42629Y-50241D01*
X42059Y-50811D01*
X42141Y-50953D01*
X42505Y-51099D01*
X42501Y-51099D01*
X42134Y-51251D01*
X41852Y-51532D01*
X41700Y-51900D01*
X41699Y-52298D01*
X41851Y-52665D01*
X42132Y-52947D01*
X42500Y-53099D01*
X42898Y-53100D01*
X43265Y-52948D01*
X43547Y-52667D01*
X43699Y-52299D01*
X43700Y-51901D01*
X43700Y-55525D01*
X43584Y-55525D01*
X41425Y-53365D01*
X41425Y-45025D01*
X56592Y-45025D01*
X56345Y-45271D01*
X54810Y-45271D01*
X54676Y-45298D01*
X54563Y-45373D01*
X54563Y-45373D01*
X53999Y-45937D01*
X54000Y-45661D01*
X53893Y-45404D01*
X53697Y-45206D01*
X53439Y-45100D01*
X53161Y-45099D01*
X52904Y-45206D01*
X52706Y-45402D01*
X52600Y-45660D01*
X52599Y-45938D01*
X52706Y-46196D01*
X52902Y-46393D01*
X53160Y-46499D01*
X53438Y-46500D01*
X53696Y-46393D01*
X53781Y-46308D01*
X53781Y-50232D01*
X53701Y-50313D01*
X53624Y-50498D01*
X53624Y-50700D01*
X53700Y-50886D01*
X53843Y-51028D01*
X54028Y-51105D01*
X54230Y-51105D01*
X54416Y-51029D01*
X54558Y-50886D01*
X54635Y-50701D01*
X54635Y-50499D01*
X54559Y-50313D01*
X54478Y-50232D01*
X54478Y-46677D01*
X54533Y-46811D01*
X54688Y-46965D01*
X54890Y-47049D01*
X55057Y-47050D01*
X55463Y-47456D01*
X55463Y-47456D01*
X55530Y-47501D01*
X55494Y-47588D01*
X55494Y-47790D01*
X55570Y-47976D01*
X55713Y-48118D01*
X55898Y-48195D01*
X56100Y-48195D01*
X56286Y-48119D01*
X56357Y-48048D01*
X58799Y-48048D01*
X58800Y-48048D01*
X58800Y-48048D01*
X58911Y-48026D01*
X58933Y-48021D01*
X58933Y-48021D01*
X59046Y-47946D01*
X59746Y-47246D01*
X59746Y-47246D01*
X59746Y-47246D01*
X59821Y-47133D01*
X59842Y-47030D01*
X59890Y-47049D01*
X60087Y-47050D01*
X60793Y-47756D01*
X60793Y-47756D01*
X60906Y-47831D01*
X61040Y-47858D01*
X62724Y-47858D01*
X62724Y-48324D01*
X62762Y-48416D01*
X62833Y-48486D01*
X62864Y-48499D01*
X62833Y-48512D01*
X62763Y-48583D01*
X62725Y-48675D01*
X62724Y-48774D01*
X62724Y-49324D01*
X62762Y-49416D01*
X62833Y-49486D01*
X62864Y-49499D01*
X62833Y-49512D01*
X62763Y-49583D01*
X62725Y-49675D01*
X62724Y-49774D01*
X62724Y-50324D01*
X62762Y-50416D01*
X62833Y-50486D01*
X62864Y-50499D01*
X62833Y-50512D01*
X62763Y-50583D01*
X62725Y-50675D01*
X62724Y-50774D01*
X62724Y-51324D01*
X62762Y-51416D01*
X62833Y-51486D01*
X62925Y-51524D01*
X63001Y-51525D01*
X63001Y-51599D01*
X63000Y-51599D01*
X62908Y-51637D01*
X62838Y-51708D01*
X62800Y-51800D01*
X62799Y-51899D01*
X62799Y-52651D01*
X62550Y-52651D01*
X62550Y-51391D01*
X62466Y-51188D01*
X62311Y-51034D01*
X62109Y-50950D01*
X61891Y-50949D01*
X61688Y-51033D01*
X61549Y-51172D01*
X61549Y-51150D01*
X61511Y-51058D01*
X61441Y-50987D01*
X61349Y-50949D01*
X61112Y-50950D01*
X61050Y-51012D01*
X61050Y-51450D01*
X61057Y-51450D01*
X61057Y-51550D01*
X61050Y-51550D01*
X61050Y-51987D01*
X61112Y-52050D01*
X61349Y-52050D01*
X61441Y-52012D01*
X61511Y-51941D01*
X61549Y-51849D01*
X61549Y-51827D01*
X61688Y-51965D01*
X61890Y-52049D01*
X62108Y-52050D01*
X62311Y-51966D01*
X62465Y-51811D01*
X62549Y-51609D01*
X62550Y-51391D01*
X62550Y-52651D01*
X60860Y-52651D01*
X56624Y-52651D01*
X56348Y-52375D01*
X56348Y-51929D01*
X56465Y-51811D01*
X56499Y-51730D01*
X56533Y-51811D01*
X56688Y-51965D01*
X56890Y-52049D01*
X57108Y-52050D01*
X57311Y-51966D01*
X57465Y-51811D01*
X57499Y-51730D01*
X57533Y-51811D01*
X57688Y-51965D01*
X57890Y-52049D01*
X58108Y-52050D01*
X58311Y-51966D01*
X58465Y-51811D01*
X58499Y-51730D01*
X58533Y-51811D01*
X58688Y-51965D01*
X58890Y-52049D01*
X59108Y-52050D01*
X59311Y-51966D01*
X59465Y-51811D01*
X59499Y-51730D01*
X59533Y-51811D01*
X59688Y-51965D01*
X59890Y-52049D01*
X60108Y-52050D01*
X60311Y-51966D01*
X60450Y-51827D01*
X60450Y-51849D01*
X60488Y-51941D01*
X60558Y-52012D01*
X60650Y-52050D01*
X60887Y-52050D01*
X60950Y-51987D01*
X60950Y-51550D01*
X60942Y-51550D01*
X60942Y-51450D01*
X60950Y-51450D01*
X60950Y-51012D01*
X60887Y-50950D01*
X60650Y-50949D01*
X60558Y-50987D01*
X60488Y-51058D01*
X60450Y-51150D01*
X60450Y-51172D01*
X60311Y-51034D01*
X60109Y-50950D01*
X59891Y-50949D01*
X59688Y-51033D01*
X59534Y-51188D01*
X59500Y-51269D01*
X59466Y-51188D01*
X59311Y-51034D01*
X59109Y-50950D01*
X58891Y-50949D01*
X58688Y-51033D01*
X58534Y-51188D01*
X58500Y-51269D01*
X58466Y-51188D01*
X58311Y-51034D01*
X58109Y-50950D01*
X57891Y-50949D01*
X57688Y-51033D01*
X57534Y-51188D01*
X57500Y-51269D01*
X57466Y-51188D01*
X57311Y-51034D01*
X57109Y-50950D01*
X56891Y-50949D01*
X56688Y-51033D01*
X56534Y-51188D01*
X56500Y-51269D01*
X56466Y-51188D01*
X56311Y-51034D01*
X56109Y-50950D01*
X55891Y-50949D01*
X55688Y-51033D01*
X55549Y-51172D01*
X55549Y-51150D01*
X55511Y-51058D01*
X55441Y-50987D01*
X55349Y-50949D01*
X55112Y-50950D01*
X55050Y-51012D01*
X55050Y-51450D01*
X55057Y-51450D01*
X55057Y-51550D01*
X55050Y-51550D01*
X55050Y-51987D01*
X55112Y-52050D01*
X55349Y-52050D01*
X55441Y-52012D01*
X55511Y-51941D01*
X55549Y-51849D01*
X55549Y-51827D01*
X55651Y-51929D01*
X55651Y-52519D01*
X55651Y-52520D01*
X55673Y-52631D01*
X55678Y-52653D01*
X55753Y-52766D01*
X56233Y-53246D01*
X56233Y-53246D01*
X56346Y-53321D01*
X56480Y-53348D01*
X56480Y-53348D01*
X56480Y-53348D01*
X60860Y-53348D01*
X63006Y-53348D01*
G54D10*
G36*
X65326Y-49005D02*
X65255Y-49076D01*
X65250Y-49070D01*
X65244Y-49076D01*
X65173Y-49005D01*
X65179Y-49000D01*
X65173Y-48994D01*
X65244Y-48923D01*
X65250Y-48929D01*
X65255Y-48923D01*
X65326Y-48994D01*
X65320Y-49000D01*
X65326Y-49005D01*
X65326Y-49005D01*
G37*
G54D26*
X65326Y-49005D02*
X65255Y-49076D01*
X65250Y-49070D01*
X65244Y-49076D01*
X65173Y-49005D01*
X65179Y-49000D01*
X65173Y-48994D01*
X65244Y-48923D01*
X65250Y-48929D01*
X65255Y-48923D01*
X65326Y-48994D01*
X65320Y-49000D01*
X65326Y-49005D01*
G54D10*
G36*
X65326Y-50005D02*
X65255Y-50076D01*
X65250Y-50070D01*
X65244Y-50076D01*
X65173Y-50005D01*
X65179Y-50000D01*
X65173Y-49994D01*
X65244Y-49923D01*
X65250Y-49929D01*
X65255Y-49923D01*
X65326Y-49994D01*
X65320Y-50000D01*
X65326Y-50005D01*
X65326Y-50005D01*
G37*
G54D26*
X65326Y-50005D02*
X65255Y-50076D01*
X65250Y-50070D01*
X65244Y-50076D01*
X65173Y-50005D01*
X65179Y-50000D01*
X65173Y-49994D01*
X65244Y-49923D01*
X65250Y-49929D01*
X65255Y-49923D01*
X65326Y-49994D01*
X65320Y-50000D01*
X65326Y-50005D01*
G54D10*
G36*
X68151Y-46070D02*
X68034Y-46188D01*
X68000Y-46269D01*
X67966Y-46188D01*
X67811Y-46034D01*
X67609Y-45950D01*
X67391Y-45949D01*
X67321Y-45978D01*
X66094Y-44751D01*
X66148Y-44696D01*
X66225Y-44511D01*
X66225Y-44309D01*
X66180Y-44198D01*
X66272Y-44160D01*
X66297Y-44067D01*
X66000Y-43770D01*
X65994Y-43776D01*
X65923Y-43705D01*
X65929Y-43700D01*
X65632Y-43402D01*
X65539Y-43427D01*
X65500Y-43537D01*
X65445Y-43403D01*
X65297Y-43255D01*
X65164Y-43199D01*
X65297Y-43145D01*
X65444Y-42997D01*
X65497Y-42871D01*
X65539Y-42972D01*
X65632Y-42997D01*
X65929Y-42700D01*
X65923Y-42694D01*
X65994Y-42623D01*
X66000Y-42629D01*
X66005Y-42623D01*
X66076Y-42694D01*
X66070Y-42700D01*
X66367Y-42997D01*
X66460Y-42972D01*
X66474Y-42931D01*
X66474Y-43024D01*
X66512Y-43116D01*
X66583Y-43186D01*
X66614Y-43199D01*
X66583Y-43212D01*
X66513Y-43283D01*
X66475Y-43375D01*
X66474Y-43462D01*
X66460Y-43427D01*
X66367Y-43402D01*
X66297Y-43473D01*
X66297Y-43332D01*
X66272Y-43239D01*
X66169Y-43203D01*
X66272Y-43160D01*
X66297Y-43067D01*
X66000Y-42770D01*
X65702Y-43067D01*
X65727Y-43160D01*
X65830Y-43196D01*
X65727Y-43239D01*
X65702Y-43332D01*
X66000Y-43629D01*
X66297Y-43332D01*
X66297Y-43473D01*
X66070Y-43700D01*
X66367Y-43997D01*
X66460Y-43972D01*
X66474Y-43931D01*
X66474Y-44024D01*
X66512Y-44116D01*
X66583Y-44186D01*
X66667Y-44221D01*
X66673Y-44251D01*
X66678Y-44273D01*
X66753Y-44386D01*
X68151Y-45784D01*
X68151Y-46070D01*
X68151Y-46070D01*
G37*
G54D26*
X68151Y-46070D02*
X68034Y-46188D01*
X68000Y-46269D01*
X67966Y-46188D01*
X67811Y-46034D01*
X67609Y-45950D01*
X67391Y-45949D01*
X67321Y-45978D01*
X66094Y-44751D01*
X66148Y-44696D01*
X66225Y-44511D01*
X66225Y-44309D01*
X66180Y-44198D01*
X66272Y-44160D01*
X66297Y-44067D01*
X66000Y-43770D01*
X65994Y-43776D01*
X65923Y-43705D01*
X65929Y-43700D01*
X65632Y-43402D01*
X65539Y-43427D01*
X65500Y-43537D01*
X65445Y-43403D01*
X65297Y-43255D01*
X65164Y-43199D01*
X65297Y-43145D01*
X65444Y-42997D01*
X65497Y-42871D01*
X65539Y-42972D01*
X65632Y-42997D01*
X65929Y-42700D01*
X65923Y-42694D01*
X65994Y-42623D01*
X66000Y-42629D01*
X66005Y-42623D01*
X66076Y-42694D01*
X66070Y-42700D01*
X66367Y-42997D01*
X66460Y-42972D01*
X66474Y-42931D01*
X66474Y-43024D01*
X66512Y-43116D01*
X66583Y-43186D01*
X66614Y-43199D01*
X66583Y-43212D01*
X66513Y-43283D01*
X66475Y-43375D01*
X66474Y-43462D01*
X66460Y-43427D01*
X66367Y-43402D01*
X66297Y-43473D01*
X66297Y-43332D01*
X66272Y-43239D01*
X66169Y-43203D01*
X66272Y-43160D01*
X66297Y-43067D01*
X66000Y-42770D01*
X65702Y-43067D01*
X65727Y-43160D01*
X65830Y-43196D01*
X65727Y-43239D01*
X65702Y-43332D01*
X66000Y-43629D01*
X66297Y-43332D01*
X66297Y-43473D01*
X66070Y-43700D01*
X66367Y-43997D01*
X66460Y-43972D01*
X66474Y-43931D01*
X66474Y-44024D01*
X66512Y-44116D01*
X66583Y-44186D01*
X66667Y-44221D01*
X66673Y-44251D01*
X66678Y-44273D01*
X66753Y-44386D01*
X68151Y-45784D01*
X68151Y-46070D01*
G54D10*
G36*
X69457Y-47049D02*
X68355Y-48151D01*
X65753Y-48151D01*
X65779Y-48075D01*
X65779Y-47075D01*
X65768Y-46867D01*
X65710Y-46727D01*
X65617Y-46702D01*
X65547Y-46773D01*
X65547Y-46632D01*
X65522Y-46539D01*
X65419Y-46503D01*
X65522Y-46460D01*
X65547Y-46367D01*
X65250Y-46070D01*
X64952Y-46367D01*
X64977Y-46460D01*
X65080Y-46496D01*
X64977Y-46539D01*
X64952Y-46632D01*
X65250Y-46929D01*
X65547Y-46632D01*
X65547Y-46773D01*
X65320Y-47000D01*
X65617Y-47297D01*
X65710Y-47272D01*
X65779Y-47075D01*
X65779Y-48075D01*
X65768Y-47867D01*
X65710Y-47727D01*
X65617Y-47702D01*
X65547Y-47773D01*
X65547Y-47632D01*
X65522Y-47539D01*
X65419Y-47503D01*
X65522Y-47460D01*
X65547Y-47367D01*
X65250Y-47070D01*
X64952Y-47367D01*
X64977Y-47460D01*
X65080Y-47496D01*
X64977Y-47539D01*
X64952Y-47632D01*
X65250Y-47929D01*
X65547Y-47632D01*
X65547Y-47773D01*
X65320Y-48000D01*
X65326Y-48005D01*
X65255Y-48076D01*
X65250Y-48070D01*
X65244Y-48076D01*
X65173Y-48005D01*
X65179Y-48000D01*
X64882Y-47702D01*
X64789Y-47727D01*
X64750Y-47837D01*
X64695Y-47703D01*
X64547Y-47555D01*
X64414Y-47499D01*
X64547Y-47445D01*
X64694Y-47297D01*
X64747Y-47171D01*
X64789Y-47272D01*
X64882Y-47297D01*
X65179Y-47000D01*
X64882Y-46702D01*
X64789Y-46727D01*
X64750Y-46837D01*
X64695Y-46703D01*
X64547Y-46555D01*
X64414Y-46499D01*
X64547Y-46445D01*
X64694Y-46297D01*
X64747Y-46171D01*
X64789Y-46272D01*
X64882Y-46297D01*
X65179Y-46000D01*
X64882Y-45702D01*
X64789Y-45727D01*
X64750Y-45837D01*
X64695Y-45703D01*
X64547Y-45555D01*
X64354Y-45475D01*
X64146Y-45474D01*
X63953Y-45554D01*
X63805Y-45702D01*
X63775Y-45774D01*
X63775Y-45675D01*
X63737Y-45583D01*
X63666Y-45513D01*
X63574Y-45475D01*
X63475Y-45474D01*
X63007Y-45474D01*
X63726Y-44756D01*
X63726Y-44756D01*
X63726Y-44756D01*
X63801Y-44643D01*
X63809Y-44604D01*
X63830Y-44656D01*
X63973Y-44798D01*
X64158Y-44875D01*
X64273Y-44875D01*
X64968Y-45571D01*
X64952Y-45632D01*
X65250Y-45929D01*
X65255Y-45923D01*
X65326Y-45994D01*
X65320Y-46000D01*
X65617Y-46297D01*
X65710Y-46272D01*
X65728Y-46221D01*
X65950Y-46442D01*
X65949Y-46608D01*
X66033Y-46811D01*
X66188Y-46965D01*
X66390Y-47049D01*
X66608Y-47050D01*
X66811Y-46966D01*
X66965Y-46811D01*
X66999Y-46730D01*
X67033Y-46811D01*
X67188Y-46965D01*
X67390Y-47049D01*
X67608Y-47050D01*
X67811Y-46966D01*
X67965Y-46811D01*
X67999Y-46730D01*
X68033Y-46811D01*
X68188Y-46965D01*
X68390Y-47049D01*
X68608Y-47050D01*
X68811Y-46966D01*
X68929Y-46848D01*
X69070Y-46848D01*
X69188Y-46965D01*
X69390Y-47049D01*
X69457Y-47049D01*
X69457Y-47049D01*
G37*
G54D26*
X69457Y-47049D02*
X68355Y-48151D01*
X65753Y-48151D01*
X65779Y-48075D01*
X65779Y-47075D01*
X65768Y-46867D01*
X65710Y-46727D01*
X65617Y-46702D01*
X65547Y-46773D01*
X65547Y-46632D01*
X65522Y-46539D01*
X65419Y-46503D01*
X65522Y-46460D01*
X65547Y-46367D01*
X65250Y-46070D01*
X64952Y-46367D01*
X64977Y-46460D01*
X65080Y-46496D01*
X64977Y-46539D01*
X64952Y-46632D01*
X65250Y-46929D01*
X65547Y-46632D01*
X65547Y-46773D01*
X65320Y-47000D01*
X65617Y-47297D01*
X65710Y-47272D01*
X65779Y-47075D01*
X65779Y-48075D01*
X65768Y-47867D01*
X65710Y-47727D01*
X65617Y-47702D01*
X65547Y-47773D01*
X65547Y-47632D01*
X65522Y-47539D01*
X65419Y-47503D01*
X65522Y-47460D01*
X65547Y-47367D01*
X65250Y-47070D01*
X64952Y-47367D01*
X64977Y-47460D01*
X65080Y-47496D01*
X64977Y-47539D01*
X64952Y-47632D01*
X65250Y-47929D01*
X65547Y-47632D01*
X65547Y-47773D01*
X65320Y-48000D01*
X65326Y-48005D01*
X65255Y-48076D01*
X65250Y-48070D01*
X65244Y-48076D01*
X65173Y-48005D01*
X65179Y-48000D01*
X64882Y-47702D01*
X64789Y-47727D01*
X64750Y-47837D01*
X64695Y-47703D01*
X64547Y-47555D01*
X64414Y-47499D01*
X64547Y-47445D01*
X64694Y-47297D01*
X64747Y-47171D01*
X64789Y-47272D01*
X64882Y-47297D01*
X65179Y-47000D01*
X64882Y-46702D01*
X64789Y-46727D01*
X64750Y-46837D01*
X64695Y-46703D01*
X64547Y-46555D01*
X64414Y-46499D01*
X64547Y-46445D01*
X64694Y-46297D01*
X64747Y-46171D01*
X64789Y-46272D01*
X64882Y-46297D01*
X65179Y-46000D01*
X64882Y-45702D01*
X64789Y-45727D01*
X64750Y-45837D01*
X64695Y-45703D01*
X64547Y-45555D01*
X64354Y-45475D01*
X64146Y-45474D01*
X63953Y-45554D01*
X63805Y-45702D01*
X63775Y-45774D01*
X63775Y-45675D01*
X63737Y-45583D01*
X63666Y-45513D01*
X63574Y-45475D01*
X63475Y-45474D01*
X63007Y-45474D01*
X63726Y-44756D01*
X63726Y-44756D01*
X63726Y-44756D01*
X63801Y-44643D01*
X63809Y-44604D01*
X63830Y-44656D01*
X63973Y-44798D01*
X64158Y-44875D01*
X64273Y-44875D01*
X64968Y-45571D01*
X64952Y-45632D01*
X65250Y-45929D01*
X65255Y-45923D01*
X65326Y-45994D01*
X65320Y-46000D01*
X65617Y-46297D01*
X65710Y-46272D01*
X65728Y-46221D01*
X65950Y-46442D01*
X65949Y-46608D01*
X66033Y-46811D01*
X66188Y-46965D01*
X66390Y-47049D01*
X66608Y-47050D01*
X66811Y-46966D01*
X66965Y-46811D01*
X66999Y-46730D01*
X67033Y-46811D01*
X67188Y-46965D01*
X67390Y-47049D01*
X67608Y-47050D01*
X67811Y-46966D01*
X67965Y-46811D01*
X67999Y-46730D01*
X68033Y-46811D01*
X68188Y-46965D01*
X68390Y-47049D01*
X68608Y-47050D01*
X68811Y-46966D01*
X68929Y-46848D01*
X69070Y-46848D01*
X69188Y-46965D01*
X69390Y-47049D01*
X69457Y-47049D01*
G54D10*
G36*
X71736Y-35395D02*
X71665Y-35466D01*
X71660Y-35460D01*
X71654Y-35466D01*
X71583Y-35395D01*
X71589Y-35390D01*
X71583Y-35384D01*
X71654Y-35313D01*
X71660Y-35319D01*
X71665Y-35313D01*
X71736Y-35384D01*
X71730Y-35390D01*
X71736Y-35395D01*
X71736Y-35395D01*
G37*
G54D26*
X71736Y-35395D02*
X71665Y-35466D01*
X71660Y-35460D01*
X71654Y-35466D01*
X71583Y-35395D01*
X71589Y-35390D01*
X71583Y-35384D01*
X71654Y-35313D01*
X71660Y-35319D01*
X71665Y-35313D01*
X71736Y-35384D01*
X71730Y-35390D01*
X71736Y-35395D01*
G54D10*
G36*
X71891Y-43925D02*
X71725Y-44091D01*
X69665Y-44091D01*
X69335Y-43762D01*
X69335Y-43669D01*
X69259Y-43483D01*
X69116Y-43341D01*
X68931Y-43264D01*
X68729Y-43264D01*
X68543Y-43340D01*
X68533Y-43351D01*
X67515Y-43351D01*
X67487Y-43283D01*
X67416Y-43213D01*
X67385Y-43200D01*
X67416Y-43187D01*
X67486Y-43116D01*
X67524Y-43024D01*
X67525Y-42925D01*
X67525Y-42375D01*
X67487Y-42283D01*
X67416Y-42213D01*
X67324Y-42175D01*
X67284Y-42175D01*
X67829Y-41629D01*
X67829Y-41629D01*
X67829Y-41629D01*
X67900Y-41524D01*
X67900Y-41524D01*
X67925Y-41400D01*
X67925Y-34234D01*
X68234Y-33925D01*
X68347Y-33925D01*
X68194Y-34078D01*
X68110Y-34280D01*
X68109Y-34498D01*
X68193Y-34701D01*
X68332Y-34839D01*
X68310Y-34839D01*
X68218Y-34877D01*
X68148Y-34948D01*
X68110Y-35040D01*
X68109Y-35139D01*
X68109Y-35739D01*
X68147Y-35831D01*
X68218Y-35901D01*
X68310Y-35939D01*
X68409Y-35940D01*
X69009Y-35940D01*
X69101Y-35902D01*
X69171Y-35831D01*
X69209Y-35739D01*
X69209Y-35717D01*
X69348Y-35855D01*
X69550Y-35939D01*
X69768Y-35940D01*
X69971Y-35856D01*
X70125Y-35701D01*
X70151Y-35640D01*
X70151Y-36484D01*
X70083Y-36512D01*
X70013Y-36583D01*
X69975Y-36675D01*
X69974Y-36774D01*
X69974Y-36774D01*
X69945Y-36703D01*
X69797Y-36555D01*
X69604Y-36475D01*
X69396Y-36474D01*
X69203Y-36554D01*
X69055Y-36702D01*
X68999Y-36835D01*
X68945Y-36703D01*
X68797Y-36555D01*
X68604Y-36475D01*
X68396Y-36474D01*
X68203Y-36554D01*
X68055Y-36702D01*
X67975Y-36895D01*
X67974Y-37103D01*
X68054Y-37297D01*
X68202Y-37444D01*
X68395Y-37524D01*
X68603Y-37525D01*
X68797Y-37445D01*
X68944Y-37297D01*
X69000Y-37164D01*
X69054Y-37297D01*
X69151Y-37394D01*
X69151Y-38513D01*
X69013Y-38570D01*
X68871Y-38713D01*
X68794Y-38898D01*
X68794Y-39100D01*
X68870Y-39286D01*
X69013Y-39428D01*
X69198Y-39505D01*
X69400Y-39505D01*
X69586Y-39429D01*
X69728Y-39286D01*
X69805Y-39101D01*
X69805Y-38957D01*
X69821Y-38933D01*
X69848Y-38800D01*
X69848Y-37393D01*
X69944Y-37297D01*
X69974Y-37225D01*
X69974Y-37324D01*
X70012Y-37416D01*
X70083Y-37486D01*
X70175Y-37524D01*
X70274Y-37525D01*
X70811Y-37525D01*
X70811Y-38159D01*
X70811Y-38160D01*
X70833Y-38271D01*
X70838Y-38293D01*
X70913Y-38406D01*
X71225Y-38717D01*
X71224Y-38853D01*
X71304Y-39047D01*
X71452Y-39194D01*
X71645Y-39274D01*
X71853Y-39275D01*
X71891Y-39259D01*
X71891Y-41959D01*
X71867Y-41952D01*
X71797Y-42023D01*
X71797Y-41882D01*
X71772Y-41789D01*
X71575Y-41720D01*
X71367Y-41731D01*
X71227Y-41789D01*
X71202Y-41882D01*
X71500Y-42179D01*
X71797Y-41882D01*
X71797Y-42023D01*
X71570Y-42250D01*
X71867Y-42547D01*
X71891Y-42540D01*
X71891Y-42752D01*
X71824Y-42725D01*
X71737Y-42724D01*
X71772Y-42710D01*
X71797Y-42617D01*
X71500Y-42320D01*
X71429Y-42391D01*
X71429Y-42250D01*
X71132Y-41952D01*
X71039Y-41977D01*
X70970Y-42174D01*
X70981Y-42382D01*
X71039Y-42522D01*
X71132Y-42547D01*
X71429Y-42250D01*
X71429Y-42391D01*
X71202Y-42617D01*
X71227Y-42710D01*
X71268Y-42724D01*
X71175Y-42724D01*
X71083Y-42762D01*
X71013Y-42833D01*
X70975Y-42925D01*
X70974Y-43024D01*
X70974Y-43574D01*
X71012Y-43666D01*
X71083Y-43736D01*
X71175Y-43774D01*
X71274Y-43775D01*
X71824Y-43775D01*
X71891Y-43747D01*
X71891Y-43925D01*
X71891Y-43925D01*
G37*
G54D26*
X71891Y-43925D02*
X71725Y-44091D01*
X69665Y-44091D01*
X69335Y-43762D01*
X69335Y-43669D01*
X69259Y-43483D01*
X69116Y-43341D01*
X68931Y-43264D01*
X68729Y-43264D01*
X68543Y-43340D01*
X68533Y-43351D01*
X67515Y-43351D01*
X67487Y-43283D01*
X67416Y-43213D01*
X67385Y-43200D01*
X67416Y-43187D01*
X67486Y-43116D01*
X67524Y-43024D01*
X67525Y-42925D01*
X67525Y-42375D01*
X67487Y-42283D01*
X67416Y-42213D01*
X67324Y-42175D01*
X67284Y-42175D01*
X67829Y-41629D01*
X67829Y-41629D01*
X67829Y-41629D01*
X67900Y-41524D01*
X67900Y-41524D01*
X67925Y-41400D01*
X67925Y-34234D01*
X68234Y-33925D01*
X68347Y-33925D01*
X68194Y-34078D01*
X68110Y-34280D01*
X68109Y-34498D01*
X68193Y-34701D01*
X68332Y-34839D01*
X68310Y-34839D01*
X68218Y-34877D01*
X68148Y-34948D01*
X68110Y-35040D01*
X68109Y-35139D01*
X68109Y-35739D01*
X68147Y-35831D01*
X68218Y-35901D01*
X68310Y-35939D01*
X68409Y-35940D01*
X69009Y-35940D01*
X69101Y-35902D01*
X69171Y-35831D01*
X69209Y-35739D01*
X69209Y-35717D01*
X69348Y-35855D01*
X69550Y-35939D01*
X69768Y-35940D01*
X69971Y-35856D01*
X70125Y-35701D01*
X70151Y-35640D01*
X70151Y-36484D01*
X70083Y-36512D01*
X70013Y-36583D01*
X69975Y-36675D01*
X69974Y-36774D01*
X69974Y-36774D01*
X69945Y-36703D01*
X69797Y-36555D01*
X69604Y-36475D01*
X69396Y-36474D01*
X69203Y-36554D01*
X69055Y-36702D01*
X68999Y-36835D01*
X68945Y-36703D01*
X68797Y-36555D01*
X68604Y-36475D01*
X68396Y-36474D01*
X68203Y-36554D01*
X68055Y-36702D01*
X67975Y-36895D01*
X67974Y-37103D01*
X68054Y-37297D01*
X68202Y-37444D01*
X68395Y-37524D01*
X68603Y-37525D01*
X68797Y-37445D01*
X68944Y-37297D01*
X69000Y-37164D01*
X69054Y-37297D01*
X69151Y-37394D01*
X69151Y-38513D01*
X69013Y-38570D01*
X68871Y-38713D01*
X68794Y-38898D01*
X68794Y-39100D01*
X68870Y-39286D01*
X69013Y-39428D01*
X69198Y-39505D01*
X69400Y-39505D01*
X69586Y-39429D01*
X69728Y-39286D01*
X69805Y-39101D01*
X69805Y-38957D01*
X69821Y-38933D01*
X69848Y-38800D01*
X69848Y-37393D01*
X69944Y-37297D01*
X69974Y-37225D01*
X69974Y-37324D01*
X70012Y-37416D01*
X70083Y-37486D01*
X70175Y-37524D01*
X70274Y-37525D01*
X70811Y-37525D01*
X70811Y-38159D01*
X70811Y-38160D01*
X70833Y-38271D01*
X70838Y-38293D01*
X70913Y-38406D01*
X71225Y-38717D01*
X71224Y-38853D01*
X71304Y-39047D01*
X71452Y-39194D01*
X71645Y-39274D01*
X71853Y-39275D01*
X71891Y-39259D01*
X71891Y-41959D01*
X71867Y-41952D01*
X71797Y-42023D01*
X71797Y-41882D01*
X71772Y-41789D01*
X71575Y-41720D01*
X71367Y-41731D01*
X71227Y-41789D01*
X71202Y-41882D01*
X71500Y-42179D01*
X71797Y-41882D01*
X71797Y-42023D01*
X71570Y-42250D01*
X71867Y-42547D01*
X71891Y-42540D01*
X71891Y-42752D01*
X71824Y-42725D01*
X71737Y-42724D01*
X71772Y-42710D01*
X71797Y-42617D01*
X71500Y-42320D01*
X71429Y-42391D01*
X71429Y-42250D01*
X71132Y-41952D01*
X71039Y-41977D01*
X70970Y-42174D01*
X70981Y-42382D01*
X71039Y-42522D01*
X71132Y-42547D01*
X71429Y-42250D01*
X71429Y-42391D01*
X71202Y-42617D01*
X71227Y-42710D01*
X71268Y-42724D01*
X71175Y-42724D01*
X71083Y-42762D01*
X71013Y-42833D01*
X70975Y-42925D01*
X70974Y-43024D01*
X70974Y-43574D01*
X71012Y-43666D01*
X71083Y-43736D01*
X71175Y-43774D01*
X71274Y-43775D01*
X71824Y-43775D01*
X71891Y-43747D01*
X71891Y-43925D01*
G54D10*
G36*
X73775Y-54015D02*
X72265Y-55525D01*
X72025Y-55525D01*
X72025Y-54975D01*
X72025Y-54425D01*
X71987Y-54333D01*
X71916Y-54263D01*
X71824Y-54225D01*
X71725Y-54224D01*
X71175Y-54224D01*
X71083Y-54262D01*
X71013Y-54333D01*
X70975Y-54425D01*
X70974Y-54524D01*
X70974Y-54524D01*
X70945Y-54453D01*
X70797Y-54305D01*
X70604Y-54225D01*
X70396Y-54224D01*
X70203Y-54304D01*
X70055Y-54452D01*
X69999Y-54585D01*
X69945Y-54453D01*
X69797Y-54305D01*
X69604Y-54225D01*
X69396Y-54224D01*
X69203Y-54304D01*
X69055Y-54452D01*
X68999Y-54585D01*
X68945Y-54453D01*
X68797Y-54305D01*
X68604Y-54225D01*
X68396Y-54224D01*
X68203Y-54304D01*
X68055Y-54452D01*
X67975Y-54645D01*
X67974Y-54853D01*
X68054Y-55047D01*
X68202Y-55194D01*
X68395Y-55274D01*
X68603Y-55275D01*
X68797Y-55195D01*
X68944Y-55047D01*
X69000Y-54914D01*
X69054Y-55047D01*
X69202Y-55194D01*
X69395Y-55274D01*
X69603Y-55275D01*
X69797Y-55195D01*
X69944Y-55047D01*
X70000Y-54914D01*
X70054Y-55047D01*
X70202Y-55194D01*
X70395Y-55274D01*
X70603Y-55275D01*
X70797Y-55195D01*
X70944Y-55047D01*
X70974Y-54975D01*
X70974Y-55074D01*
X71012Y-55166D01*
X71083Y-55236D01*
X71175Y-55274D01*
X71274Y-55275D01*
X71824Y-55275D01*
X71916Y-55237D01*
X71986Y-55166D01*
X72024Y-55074D01*
X72025Y-54975D01*
X72025Y-55525D01*
X65529Y-55525D01*
X65529Y-53825D01*
X65518Y-53617D01*
X65460Y-53477D01*
X65367Y-53452D01*
X65297Y-53523D01*
X65297Y-53382D01*
X65272Y-53289D01*
X65075Y-53220D01*
X64867Y-53231D01*
X64727Y-53289D01*
X64702Y-53382D01*
X65000Y-53679D01*
X65297Y-53382D01*
X65297Y-53523D01*
X65070Y-53750D01*
X65367Y-54047D01*
X65460Y-54022D01*
X65529Y-53825D01*
X65529Y-55525D01*
X65297Y-55525D01*
X65297Y-54117D01*
X65000Y-53820D01*
X64929Y-53891D01*
X64929Y-53750D01*
X64632Y-53452D01*
X64539Y-53477D01*
X64470Y-53674D01*
X64481Y-53882D01*
X64539Y-54022D01*
X64632Y-54047D01*
X64929Y-53750D01*
X64929Y-53891D01*
X64702Y-54117D01*
X64727Y-54210D01*
X64924Y-54279D01*
X65132Y-54268D01*
X65272Y-54210D01*
X65297Y-54117D01*
X65297Y-55525D01*
X62356Y-55525D01*
X63606Y-54275D01*
X63824Y-54275D01*
X63916Y-54237D01*
X63986Y-54166D01*
X64024Y-54074D01*
X64025Y-53975D01*
X64025Y-53425D01*
X63993Y-53348D01*
X64509Y-53348D01*
X64510Y-53348D01*
X64510Y-53348D01*
X64621Y-53326D01*
X64643Y-53321D01*
X64643Y-53321D01*
X64756Y-53246D01*
X64896Y-53106D01*
X64896Y-53106D01*
X64896Y-53106D01*
X64971Y-52993D01*
X64990Y-52900D01*
X64999Y-52900D01*
X65091Y-52862D01*
X65161Y-52791D01*
X65199Y-52699D01*
X65200Y-52600D01*
X65200Y-52598D01*
X66749Y-52598D01*
X66750Y-52598D01*
X66750Y-52598D01*
X66861Y-52576D01*
X66883Y-52571D01*
X66883Y-52571D01*
X66996Y-52496D01*
X67442Y-52049D01*
X67608Y-52050D01*
X67811Y-51966D01*
X67965Y-51811D01*
X67999Y-51730D01*
X68033Y-51811D01*
X68188Y-51965D01*
X68390Y-52049D01*
X68608Y-52050D01*
X68811Y-51966D01*
X68965Y-51811D01*
X68999Y-51730D01*
X69033Y-51811D01*
X69188Y-51965D01*
X69390Y-52049D01*
X69608Y-52050D01*
X69811Y-51966D01*
X69965Y-51811D01*
X69999Y-51730D01*
X70033Y-51811D01*
X70188Y-51965D01*
X70390Y-52049D01*
X70608Y-52050D01*
X70811Y-51966D01*
X70965Y-51811D01*
X70999Y-51730D01*
X71033Y-51811D01*
X71188Y-51965D01*
X71390Y-52049D01*
X71608Y-52050D01*
X71811Y-51966D01*
X71950Y-51827D01*
X71950Y-51849D01*
X71988Y-51941D01*
X72058Y-52012D01*
X72150Y-52050D01*
X72387Y-52050D01*
X72450Y-51987D01*
X72450Y-51550D01*
X72442Y-51550D01*
X72442Y-51450D01*
X72450Y-51450D01*
X72450Y-51012D01*
X72387Y-50950D01*
X72150Y-50949D01*
X72058Y-50987D01*
X71988Y-51058D01*
X71950Y-51150D01*
X71950Y-51172D01*
X71811Y-51034D01*
X71609Y-50950D01*
X71391Y-50949D01*
X71188Y-51033D01*
X71034Y-51188D01*
X71000Y-51269D01*
X70966Y-51188D01*
X70811Y-51034D01*
X70609Y-50950D01*
X70391Y-50949D01*
X70188Y-51033D01*
X70034Y-51188D01*
X70000Y-51269D01*
X69966Y-51188D01*
X69811Y-51034D01*
X69609Y-50950D01*
X69391Y-50949D01*
X69188Y-51033D01*
X69034Y-51188D01*
X69000Y-51269D01*
X68966Y-51188D01*
X68811Y-51034D01*
X68609Y-50950D01*
X68391Y-50949D01*
X68188Y-51033D01*
X68034Y-51188D01*
X68000Y-51269D01*
X67966Y-51188D01*
X67811Y-51034D01*
X67609Y-50950D01*
X67391Y-50949D01*
X67188Y-51033D01*
X67049Y-51172D01*
X67049Y-51150D01*
X67011Y-51058D01*
X66941Y-50987D01*
X66849Y-50949D01*
X66612Y-50950D01*
X66550Y-51012D01*
X66550Y-51450D01*
X66557Y-51450D01*
X66557Y-51550D01*
X66550Y-51550D01*
X66550Y-51557D01*
X66450Y-51557D01*
X66450Y-51550D01*
X66450Y-51450D01*
X66450Y-51012D01*
X66387Y-50950D01*
X66150Y-50949D01*
X66058Y-50987D01*
X65988Y-51058D01*
X65950Y-51150D01*
X65949Y-51249D01*
X65950Y-51387D01*
X66012Y-51450D01*
X66450Y-51450D01*
X66450Y-51550D01*
X66012Y-51550D01*
X65950Y-51612D01*
X65949Y-51750D01*
X65950Y-51849D01*
X65971Y-51901D01*
X65547Y-51901D01*
X65547Y-51367D01*
X65250Y-51070D01*
X64952Y-51367D01*
X64977Y-51460D01*
X65174Y-51529D01*
X65382Y-51518D01*
X65522Y-51460D01*
X65547Y-51367D01*
X65547Y-51901D01*
X65200Y-51901D01*
X65200Y-51800D01*
X65162Y-51708D01*
X65091Y-51638D01*
X64999Y-51600D01*
X64900Y-51599D01*
X64300Y-51599D01*
X64208Y-51637D01*
X64138Y-51708D01*
X64100Y-51800D01*
X64099Y-51899D01*
X64099Y-52651D01*
X63899Y-52651D01*
X63900Y-52600D01*
X63900Y-51800D01*
X63862Y-51708D01*
X63791Y-51638D01*
X63699Y-51600D01*
X63698Y-51600D01*
X63698Y-51455D01*
X63736Y-51416D01*
X63774Y-51324D01*
X63775Y-51225D01*
X63775Y-51225D01*
X63804Y-51297D01*
X63952Y-51444D01*
X64145Y-51524D01*
X64353Y-51525D01*
X64547Y-51445D01*
X64694Y-51297D01*
X64747Y-51171D01*
X64789Y-51272D01*
X64882Y-51297D01*
X65179Y-51000D01*
X65173Y-50994D01*
X65244Y-50923D01*
X65250Y-50929D01*
X65255Y-50923D01*
X65326Y-50994D01*
X65320Y-51000D01*
X65617Y-51297D01*
X65710Y-51272D01*
X65779Y-51075D01*
X65768Y-50867D01*
X65764Y-50858D01*
X68489Y-50858D01*
X68490Y-50858D01*
X68490Y-50858D01*
X68601Y-50836D01*
X68623Y-50831D01*
X68623Y-50831D01*
X68736Y-50756D01*
X72442Y-47049D01*
X72608Y-47050D01*
X72811Y-46966D01*
X72965Y-46811D01*
X72999Y-46730D01*
X73033Y-46811D01*
X73188Y-46965D01*
X73390Y-47049D01*
X73608Y-47050D01*
X73775Y-46981D01*
X73775Y-51018D01*
X73609Y-50950D01*
X73391Y-50949D01*
X73188Y-51033D01*
X73049Y-51172D01*
X73049Y-51150D01*
X73011Y-51058D01*
X72941Y-50987D01*
X72849Y-50949D01*
X72612Y-50950D01*
X72550Y-51012D01*
X72550Y-51450D01*
X72557Y-51450D01*
X72557Y-51550D01*
X72550Y-51550D01*
X72550Y-51987D01*
X72612Y-52050D01*
X72849Y-52050D01*
X72941Y-52012D01*
X73011Y-51941D01*
X73049Y-51849D01*
X73049Y-51827D01*
X73188Y-51965D01*
X73390Y-52049D01*
X73608Y-52050D01*
X73775Y-51981D01*
X73775Y-54015D01*
X73775Y-54015D01*
G37*
G54D26*
X73775Y-54015D02*
X72265Y-55525D01*
X72025Y-55525D01*
X72025Y-54975D01*
X72025Y-54425D01*
X71987Y-54333D01*
X71916Y-54263D01*
X71824Y-54225D01*
X71725Y-54224D01*
X71175Y-54224D01*
X71083Y-54262D01*
X71013Y-54333D01*
X70975Y-54425D01*
X70974Y-54524D01*
X70974Y-54524D01*
X70945Y-54453D01*
X70797Y-54305D01*
X70604Y-54225D01*
X70396Y-54224D01*
X70203Y-54304D01*
X70055Y-54452D01*
X69999Y-54585D01*
X69945Y-54453D01*
X69797Y-54305D01*
X69604Y-54225D01*
X69396Y-54224D01*
X69203Y-54304D01*
X69055Y-54452D01*
X68999Y-54585D01*
X68945Y-54453D01*
X68797Y-54305D01*
X68604Y-54225D01*
X68396Y-54224D01*
X68203Y-54304D01*
X68055Y-54452D01*
X67975Y-54645D01*
X67974Y-54853D01*
X68054Y-55047D01*
X68202Y-55194D01*
X68395Y-55274D01*
X68603Y-55275D01*
X68797Y-55195D01*
X68944Y-55047D01*
X69000Y-54914D01*
X69054Y-55047D01*
X69202Y-55194D01*
X69395Y-55274D01*
X69603Y-55275D01*
X69797Y-55195D01*
X69944Y-55047D01*
X70000Y-54914D01*
X70054Y-55047D01*
X70202Y-55194D01*
X70395Y-55274D01*
X70603Y-55275D01*
X70797Y-55195D01*
X70944Y-55047D01*
X70974Y-54975D01*
X70974Y-55074D01*
X71012Y-55166D01*
X71083Y-55236D01*
X71175Y-55274D01*
X71274Y-55275D01*
X71824Y-55275D01*
X71916Y-55237D01*
X71986Y-55166D01*
X72024Y-55074D01*
X72025Y-54975D01*
X72025Y-55525D01*
X65529Y-55525D01*
X65529Y-53825D01*
X65518Y-53617D01*
X65460Y-53477D01*
X65367Y-53452D01*
X65297Y-53523D01*
X65297Y-53382D01*
X65272Y-53289D01*
X65075Y-53220D01*
X64867Y-53231D01*
X64727Y-53289D01*
X64702Y-53382D01*
X65000Y-53679D01*
X65297Y-53382D01*
X65297Y-53523D01*
X65070Y-53750D01*
X65367Y-54047D01*
X65460Y-54022D01*
X65529Y-53825D01*
X65529Y-55525D01*
X65297Y-55525D01*
X65297Y-54117D01*
X65000Y-53820D01*
X64929Y-53891D01*
X64929Y-53750D01*
X64632Y-53452D01*
X64539Y-53477D01*
X64470Y-53674D01*
X64481Y-53882D01*
X64539Y-54022D01*
X64632Y-54047D01*
X64929Y-53750D01*
X64929Y-53891D01*
X64702Y-54117D01*
X64727Y-54210D01*
X64924Y-54279D01*
X65132Y-54268D01*
X65272Y-54210D01*
X65297Y-54117D01*
X65297Y-55525D01*
X62356Y-55525D01*
X63606Y-54275D01*
X63824Y-54275D01*
X63916Y-54237D01*
X63986Y-54166D01*
X64024Y-54074D01*
X64025Y-53975D01*
X64025Y-53425D01*
X63993Y-53348D01*
X64509Y-53348D01*
X64510Y-53348D01*
X64510Y-53348D01*
X64621Y-53326D01*
X64643Y-53321D01*
X64643Y-53321D01*
X64756Y-53246D01*
X64896Y-53106D01*
X64896Y-53106D01*
X64896Y-53106D01*
X64971Y-52993D01*
X64990Y-52900D01*
X64999Y-52900D01*
X65091Y-52862D01*
X65161Y-52791D01*
X65199Y-52699D01*
X65200Y-52600D01*
X65200Y-52598D01*
X66749Y-52598D01*
X66750Y-52598D01*
X66750Y-52598D01*
X66861Y-52576D01*
X66883Y-52571D01*
X66883Y-52571D01*
X66996Y-52496D01*
X67442Y-52049D01*
X67608Y-52050D01*
X67811Y-51966D01*
X67965Y-51811D01*
X67999Y-51730D01*
X68033Y-51811D01*
X68188Y-51965D01*
X68390Y-52049D01*
X68608Y-52050D01*
X68811Y-51966D01*
X68965Y-51811D01*
X68999Y-51730D01*
X69033Y-51811D01*
X69188Y-51965D01*
X69390Y-52049D01*
X69608Y-52050D01*
X69811Y-51966D01*
X69965Y-51811D01*
X69999Y-51730D01*
X70033Y-51811D01*
X70188Y-51965D01*
X70390Y-52049D01*
X70608Y-52050D01*
X70811Y-51966D01*
X70965Y-51811D01*
X70999Y-51730D01*
X71033Y-51811D01*
X71188Y-51965D01*
X71390Y-52049D01*
X71608Y-52050D01*
X71811Y-51966D01*
X71950Y-51827D01*
X71950Y-51849D01*
X71988Y-51941D01*
X72058Y-52012D01*
X72150Y-52050D01*
X72387Y-52050D01*
X72450Y-51987D01*
X72450Y-51550D01*
X72442Y-51550D01*
X72442Y-51450D01*
X72450Y-51450D01*
X72450Y-51012D01*
X72387Y-50950D01*
X72150Y-50949D01*
X72058Y-50987D01*
X71988Y-51058D01*
X71950Y-51150D01*
X71950Y-51172D01*
X71811Y-51034D01*
X71609Y-50950D01*
X71391Y-50949D01*
X71188Y-51033D01*
X71034Y-51188D01*
X71000Y-51269D01*
X70966Y-51188D01*
X70811Y-51034D01*
X70609Y-50950D01*
X70391Y-50949D01*
X70188Y-51033D01*
X70034Y-51188D01*
X70000Y-51269D01*
X69966Y-51188D01*
X69811Y-51034D01*
X69609Y-50950D01*
X69391Y-50949D01*
X69188Y-51033D01*
X69034Y-51188D01*
X69000Y-51269D01*
X68966Y-51188D01*
X68811Y-51034D01*
X68609Y-50950D01*
X68391Y-50949D01*
X68188Y-51033D01*
X68034Y-51188D01*
X68000Y-51269D01*
X67966Y-51188D01*
X67811Y-51034D01*
X67609Y-50950D01*
X67391Y-50949D01*
X67188Y-51033D01*
X67049Y-51172D01*
X67049Y-51150D01*
X67011Y-51058D01*
X66941Y-50987D01*
X66849Y-50949D01*
X66612Y-50950D01*
X66550Y-51012D01*
X66550Y-51450D01*
X66557Y-51450D01*
X66557Y-51550D01*
X66550Y-51550D01*
X66550Y-51557D01*
X66450Y-51557D01*
X66450Y-51550D01*
X66450Y-51450D01*
X66450Y-51012D01*
X66387Y-50950D01*
X66150Y-50949D01*
X66058Y-50987D01*
X65988Y-51058D01*
X65950Y-51150D01*
X65949Y-51249D01*
X65950Y-51387D01*
X66012Y-51450D01*
X66450Y-51450D01*
X66450Y-51550D01*
X66012Y-51550D01*
X65950Y-51612D01*
X65949Y-51750D01*
X65950Y-51849D01*
X65971Y-51901D01*
X65547Y-51901D01*
X65547Y-51367D01*
X65250Y-51070D01*
X64952Y-51367D01*
X64977Y-51460D01*
X65174Y-51529D01*
X65382Y-51518D01*
X65522Y-51460D01*
X65547Y-51367D01*
X65547Y-51901D01*
X65200Y-51901D01*
X65200Y-51800D01*
X65162Y-51708D01*
X65091Y-51638D01*
X64999Y-51600D01*
X64900Y-51599D01*
X64300Y-51599D01*
X64208Y-51637D01*
X64138Y-51708D01*
X64100Y-51800D01*
X64099Y-51899D01*
X64099Y-52651D01*
X63899Y-52651D01*
X63900Y-52600D01*
X63900Y-51800D01*
X63862Y-51708D01*
X63791Y-51638D01*
X63699Y-51600D01*
X63698Y-51600D01*
X63698Y-51455D01*
X63736Y-51416D01*
X63774Y-51324D01*
X63775Y-51225D01*
X63775Y-51225D01*
X63804Y-51297D01*
X63952Y-51444D01*
X64145Y-51524D01*
X64353Y-51525D01*
X64547Y-51445D01*
X64694Y-51297D01*
X64747Y-51171D01*
X64789Y-51272D01*
X64882Y-51297D01*
X65179Y-51000D01*
X65173Y-50994D01*
X65244Y-50923D01*
X65250Y-50929D01*
X65255Y-50923D01*
X65326Y-50994D01*
X65320Y-51000D01*
X65617Y-51297D01*
X65710Y-51272D01*
X65779Y-51075D01*
X65768Y-50867D01*
X65764Y-50858D01*
X68489Y-50858D01*
X68490Y-50858D01*
X68490Y-50858D01*
X68601Y-50836D01*
X68623Y-50831D01*
X68623Y-50831D01*
X68736Y-50756D01*
X72442Y-47049D01*
X72608Y-47050D01*
X72811Y-46966D01*
X72965Y-46811D01*
X72999Y-46730D01*
X73033Y-46811D01*
X73188Y-46965D01*
X73390Y-47049D01*
X73608Y-47050D01*
X73775Y-46981D01*
X73775Y-51018D01*
X73609Y-50950D01*
X73391Y-50949D01*
X73188Y-51033D01*
X73049Y-51172D01*
X73049Y-51150D01*
X73011Y-51058D01*
X72941Y-50987D01*
X72849Y-50949D01*
X72612Y-50950D01*
X72550Y-51012D01*
X72550Y-51450D01*
X72557Y-51450D01*
X72557Y-51550D01*
X72550Y-51550D01*
X72550Y-51987D01*
X72612Y-52050D01*
X72849Y-52050D01*
X72941Y-52012D01*
X73011Y-51941D01*
X73049Y-51849D01*
X73049Y-51827D01*
X73188Y-51965D01*
X73390Y-52049D01*
X73608Y-52050D01*
X73775Y-51981D01*
X73775Y-54015D01*
M02*
