G04 (created by PCBNEW (2013-07-07 BZR 4022)-stable) date 04/04/2014 12:18:16*
%MOIN*%
G04 Gerber Fmt 3.4, Leading zero omitted, Abs format*
%FSLAX34Y34*%
G01*
G70*
G90*
G04 APERTURE LIST*
%ADD10C,0.00590551*%
%ADD11C,0.015*%
%ADD12C,0.00984252*%
G04 APERTURE END LIST*
G54D10*
G54D11*
X41000Y-56000D02*
G75*
G03X41000Y-56000I0J0D01*
G74*
G01*
X40999Y-56000D02*
X41000Y-56000D01*
X41000Y-55999D02*
X41000Y-56000D01*
X74000Y-56000D02*
G75*
G03X74000Y-56000I0J0D01*
G74*
G01*
X73999Y-56000D02*
X74000Y-56000D01*
X74000Y-55999D02*
X74000Y-56000D01*
X74000Y-32000D02*
G75*
G03X74000Y-32000I0J0D01*
G74*
G01*
X73999Y-32000D02*
X74000Y-32000D01*
X74000Y-31999D02*
X74000Y-32000D01*
X40000Y-32000D02*
G75*
G03X40000Y-32000I0J0D01*
G74*
G01*
X39999Y-32000D02*
X40000Y-32000D01*
X40000Y-31999D02*
X40000Y-32000D01*
G54D12*
X58859Y-41674D02*
X58904Y-41631D01*
X58936Y-41543D01*
X58923Y-41498D01*
X58903Y-41470D01*
X58856Y-41434D01*
X58803Y-41414D01*
X58744Y-41413D01*
X58711Y-41421D01*
X58672Y-41446D01*
X58620Y-41507D01*
X58581Y-41533D01*
X58548Y-41541D01*
X58489Y-41539D01*
X58436Y-41520D01*
X58389Y-41483D01*
X58369Y-41456D01*
X58356Y-41411D01*
X58388Y-41323D01*
X58434Y-41280D01*
X58631Y-41232D02*
X58682Y-41091D01*
X58465Y-41112D02*
X58940Y-41285D01*
X59000Y-41286D01*
X59039Y-41261D01*
X59052Y-41225D01*
X59097Y-41102D02*
X58727Y-40967D01*
X58832Y-41006D02*
X58786Y-40969D01*
X58766Y-40942D01*
X58752Y-40897D01*
X58765Y-40862D01*
X59238Y-40715D02*
X58947Y-40609D01*
X58888Y-40607D01*
X58849Y-40633D01*
X58823Y-40703D01*
X58837Y-40748D01*
X59211Y-40705D02*
X59225Y-40750D01*
X59193Y-40838D01*
X59154Y-40863D01*
X59094Y-40862D01*
X59041Y-40843D01*
X58995Y-40806D01*
X58981Y-40761D01*
X59014Y-40673D01*
X59000Y-40628D01*
X58932Y-40404D02*
X59487Y-40606D01*
X58958Y-40413D02*
X58945Y-40368D01*
X58970Y-40298D01*
X59010Y-40272D01*
X59042Y-40264D01*
X59102Y-40266D01*
X59260Y-40324D01*
X59307Y-40361D01*
X59327Y-40388D01*
X59340Y-40433D01*
X59315Y-40503D01*
X59275Y-40529D01*
X59144Y-39822D02*
X59539Y-39887D01*
X59301Y-39720D01*
X59590Y-39746D01*
X59246Y-39540D01*
X59667Y-39534D02*
X59297Y-39400D01*
X59112Y-39332D02*
X59132Y-39359D01*
X59165Y-39351D01*
X59145Y-39324D01*
X59112Y-39332D01*
X59165Y-39351D01*
X59731Y-39358D02*
X59362Y-39223D01*
X59467Y-39262D02*
X59421Y-39225D01*
X59401Y-39198D01*
X59387Y-39153D01*
X59400Y-39118D01*
X59840Y-38978D02*
X59853Y-39023D01*
X59828Y-39094D01*
X59788Y-39119D01*
X59729Y-39118D01*
X59518Y-39041D01*
X59471Y-39004D01*
X59458Y-38959D01*
X59483Y-38889D01*
X59523Y-38863D01*
X59582Y-38865D01*
X59635Y-38884D01*
X59623Y-39079D01*
X59644Y-38448D02*
X59695Y-38307D01*
X59478Y-38328D02*
X59954Y-38501D01*
X60013Y-38503D01*
X60052Y-38477D01*
X60065Y-38442D01*
X60129Y-38266D02*
X60090Y-38291D01*
X60057Y-38299D01*
X59998Y-38298D01*
X59839Y-38240D01*
X59793Y-38203D01*
X59773Y-38176D01*
X59759Y-38131D01*
X59778Y-38078D01*
X59818Y-38053D01*
X59850Y-38045D01*
X59910Y-38046D01*
X60068Y-38104D01*
X60115Y-38141D01*
X60135Y-38168D01*
X60148Y-38213D01*
X60129Y-38266D01*
X60334Y-37702D02*
X59779Y-37500D01*
X59831Y-37359D01*
X59870Y-37333D01*
X59903Y-37325D01*
X59962Y-37327D01*
X60041Y-37356D01*
X60088Y-37393D01*
X60108Y-37420D01*
X60121Y-37465D01*
X60070Y-37606D01*
X59901Y-37165D02*
X60488Y-37279D01*
X60117Y-37064D01*
X60539Y-37138D01*
X60017Y-36848D01*
X60623Y-36909D02*
X60068Y-36707D01*
X60509Y-36728D01*
X60158Y-36461D01*
X60713Y-36663D01*
X60589Y-36099D02*
X60633Y-35975D01*
X60943Y-36028D02*
X60879Y-36205D01*
X60324Y-36003D01*
X60388Y-35826D01*
X60988Y-35905D02*
X60689Y-35577D01*
X60618Y-35770D02*
X61059Y-35711D01*
X60721Y-35489D02*
X60772Y-35348D01*
X60555Y-35368D02*
X61031Y-35542D01*
X61090Y-35543D01*
X61129Y-35518D01*
X61142Y-35482D01*
X61212Y-35208D02*
X61225Y-35253D01*
X61200Y-35324D01*
X61161Y-35349D01*
X61101Y-35348D01*
X60890Y-35271D01*
X60843Y-35234D01*
X60830Y-35189D01*
X60856Y-35119D01*
X60895Y-35093D01*
X60954Y-35095D01*
X61007Y-35114D01*
X60996Y-35309D01*
X60932Y-34907D02*
X61302Y-35042D01*
X60985Y-34926D02*
X60965Y-34899D01*
X60952Y-34854D01*
X60971Y-34801D01*
X61010Y-34776D01*
X61069Y-34777D01*
X61360Y-34883D01*
X61391Y-34715D02*
X61431Y-34690D01*
X61456Y-34619D01*
X61443Y-34574D01*
X61396Y-34537D01*
X61370Y-34528D01*
X61311Y-34526D01*
X61271Y-34552D01*
X61252Y-34605D01*
X61213Y-34630D01*
X61154Y-34629D01*
X61127Y-34619D01*
X61081Y-34582D01*
X61067Y-34537D01*
X61086Y-34484D01*
X61126Y-34459D01*
X61533Y-34408D02*
X61163Y-34273D01*
X60978Y-34206D02*
X60998Y-34233D01*
X61031Y-34225D01*
X61011Y-34198D01*
X60978Y-34206D01*
X61031Y-34225D01*
X61617Y-34179D02*
X61577Y-34204D01*
X61545Y-34212D01*
X61485Y-34211D01*
X61327Y-34153D01*
X61280Y-34116D01*
X61260Y-34089D01*
X61247Y-34044D01*
X61266Y-33991D01*
X61305Y-33965D01*
X61338Y-33957D01*
X61397Y-33959D01*
X61556Y-34017D01*
X61602Y-34054D01*
X61622Y-34081D01*
X61636Y-34126D01*
X61617Y-34179D01*
X61349Y-33762D02*
X61719Y-33897D01*
X61402Y-33781D02*
X61382Y-33754D01*
X61368Y-33709D01*
X61388Y-33656D01*
X61427Y-33631D01*
X61486Y-33632D01*
X61777Y-33738D01*
X61968Y-33050D02*
X61988Y-33077D01*
X61995Y-33139D01*
X61982Y-33174D01*
X61936Y-33218D01*
X61871Y-33234D01*
X61812Y-33232D01*
X61699Y-33211D01*
X61620Y-33182D01*
X61521Y-33126D01*
X61474Y-33089D01*
X61434Y-33035D01*
X61427Y-32972D01*
X61440Y-32937D01*
X61486Y-32894D01*
X61518Y-32886D01*
X62098Y-32857D02*
X62058Y-32883D01*
X62025Y-32891D01*
X61966Y-32889D01*
X61808Y-32832D01*
X61761Y-32795D01*
X61741Y-32768D01*
X61728Y-32723D01*
X61747Y-32670D01*
X61786Y-32644D01*
X61819Y-32636D01*
X61878Y-32638D01*
X62037Y-32696D01*
X62083Y-32732D01*
X62103Y-32760D01*
X62117Y-32804D01*
X62098Y-32857D01*
X61830Y-32441D02*
X62200Y-32575D01*
X61883Y-32460D02*
X61863Y-32433D01*
X61849Y-32388D01*
X61869Y-32335D01*
X61908Y-32309D01*
X61967Y-32311D01*
X62258Y-32417D01*
X61952Y-32106D02*
X62322Y-32241D01*
X62005Y-32125D02*
X61985Y-32098D01*
X61971Y-32053D01*
X61990Y-32000D01*
X62030Y-31975D01*
X62089Y-31976D01*
X62380Y-32082D01*
X62469Y-31755D02*
X62482Y-31800D01*
X62457Y-31871D01*
X62417Y-31896D01*
X62358Y-31895D01*
X62147Y-31818D01*
X62100Y-31781D01*
X62087Y-31736D01*
X62112Y-31666D01*
X62152Y-31640D01*
X62211Y-31642D01*
X62264Y-31661D01*
X62252Y-31856D01*
X62590Y-31421D02*
X62604Y-31466D01*
X62578Y-31536D01*
X62539Y-31562D01*
X62506Y-31570D01*
X62447Y-31568D01*
X62289Y-31510D01*
X62242Y-31473D01*
X62222Y-31446D01*
X62208Y-31401D01*
X62234Y-31331D01*
X62273Y-31305D01*
X62285Y-31190D02*
X62337Y-31049D01*
X62120Y-31070D02*
X62595Y-31243D01*
X62655Y-31245D01*
X62694Y-31219D01*
X62707Y-31184D01*
X62771Y-31008D02*
X62732Y-31033D01*
X62699Y-31041D01*
X62639Y-31040D01*
X62481Y-30982D01*
X62434Y-30945D01*
X62414Y-30918D01*
X62401Y-30873D01*
X62420Y-30820D01*
X62459Y-30794D01*
X62492Y-30786D01*
X62551Y-30788D01*
X62710Y-30846D01*
X62756Y-30883D01*
X62776Y-30910D01*
X62790Y-30955D01*
X62771Y-31008D01*
X62873Y-30726D02*
X62503Y-30591D01*
X62609Y-30629D02*
X62563Y-30593D01*
X62543Y-30565D01*
X62529Y-30521D01*
X62542Y-30485D01*
X62904Y-30477D02*
X62937Y-30469D01*
X62957Y-30497D01*
X62924Y-30505D01*
X62904Y-30477D01*
X62957Y-30497D01*
X59139Y-41965D02*
X59216Y-41754D01*
X59732Y-42062D02*
X59177Y-41860D01*
X59815Y-41833D02*
X59260Y-41631D01*
X59873Y-41674D02*
X59582Y-41568D01*
X59523Y-41567D01*
X59484Y-41592D01*
X59465Y-41645D01*
X59478Y-41690D01*
X59498Y-41717D01*
X59962Y-41347D02*
X59976Y-41392D01*
X59950Y-41463D01*
X59911Y-41488D01*
X59852Y-41487D01*
X59640Y-41410D01*
X59594Y-41373D01*
X59580Y-41328D01*
X59606Y-41257D01*
X59645Y-41232D01*
X59704Y-41233D01*
X59757Y-41253D01*
X59746Y-41448D01*
X60219Y-40723D02*
X60155Y-40899D01*
X59600Y-40697D01*
X60288Y-40369D02*
X60308Y-40396D01*
X60316Y-40458D01*
X60303Y-40494D01*
X60257Y-40537D01*
X60191Y-40553D01*
X60132Y-40551D01*
X60020Y-40530D01*
X59941Y-40502D01*
X59841Y-40445D01*
X59795Y-40409D01*
X59755Y-40354D01*
X59748Y-40292D01*
X59761Y-40256D01*
X59806Y-40213D01*
X59839Y-40205D01*
X60399Y-40229D02*
X59844Y-40027D01*
X59876Y-39939D01*
X59922Y-39896D01*
X59987Y-39880D01*
X60047Y-39882D01*
X60159Y-39903D01*
X60238Y-39931D01*
X60337Y-39988D01*
X60384Y-40024D01*
X60424Y-40079D01*
X60431Y-40141D01*
X60399Y-40229D01*
X60660Y-39347D02*
X60680Y-39374D01*
X60687Y-39437D01*
X60675Y-39472D01*
X60629Y-39515D01*
X60563Y-39531D01*
X60504Y-39529D01*
X60392Y-39509D01*
X60313Y-39480D01*
X60213Y-39424D01*
X60167Y-39387D01*
X60127Y-39332D01*
X60120Y-39270D01*
X60132Y-39235D01*
X60178Y-39191D01*
X60211Y-39183D01*
X60790Y-39155D02*
X60751Y-39180D01*
X60718Y-39188D01*
X60659Y-39187D01*
X60500Y-39129D01*
X60454Y-39092D01*
X60434Y-39065D01*
X60420Y-39020D01*
X60439Y-38967D01*
X60479Y-38942D01*
X60511Y-38934D01*
X60571Y-38935D01*
X60729Y-38993D01*
X60776Y-39030D01*
X60796Y-39057D01*
X60809Y-39102D01*
X60790Y-39155D01*
X60523Y-38738D02*
X60893Y-38873D01*
X60576Y-38757D02*
X60556Y-38730D01*
X60542Y-38685D01*
X60561Y-38633D01*
X60600Y-38607D01*
X60660Y-38609D01*
X60950Y-38714D01*
X60644Y-38404D02*
X61014Y-38538D01*
X60697Y-38423D02*
X60677Y-38396D01*
X60664Y-38351D01*
X60683Y-38298D01*
X60722Y-38272D01*
X60781Y-38274D01*
X61072Y-38380D01*
X61161Y-38053D02*
X61175Y-38098D01*
X61149Y-38168D01*
X61110Y-38194D01*
X61051Y-38192D01*
X60839Y-38115D01*
X60793Y-38078D01*
X60779Y-38034D01*
X60805Y-37963D01*
X60844Y-37937D01*
X60903Y-37939D01*
X60956Y-37958D01*
X60945Y-38154D01*
X61283Y-37718D02*
X61297Y-37763D01*
X61271Y-37833D01*
X61232Y-37859D01*
X61199Y-37867D01*
X61140Y-37865D01*
X60981Y-37808D01*
X60935Y-37771D01*
X60915Y-37744D01*
X60901Y-37699D01*
X60927Y-37628D01*
X60966Y-37603D01*
X60978Y-37487D02*
X61029Y-37346D01*
X60812Y-37367D02*
X61288Y-37540D01*
X61347Y-37542D01*
X61386Y-37516D01*
X61399Y-37481D01*
X61444Y-37358D02*
X61074Y-37223D01*
X60889Y-37156D02*
X60909Y-37183D01*
X60942Y-37175D01*
X60922Y-37148D01*
X60889Y-37156D01*
X60942Y-37175D01*
X61527Y-37129D02*
X61488Y-37154D01*
X61455Y-37162D01*
X61396Y-37161D01*
X61238Y-37103D01*
X61191Y-37066D01*
X61171Y-37039D01*
X61157Y-36994D01*
X61177Y-36941D01*
X61216Y-36916D01*
X61249Y-36908D01*
X61308Y-36909D01*
X61467Y-36967D01*
X61513Y-37004D01*
X61533Y-37031D01*
X61547Y-37076D01*
X61527Y-37129D01*
X61260Y-36712D02*
X61630Y-36847D01*
X61313Y-36732D02*
X61293Y-36704D01*
X61279Y-36659D01*
X61299Y-36607D01*
X61338Y-36581D01*
X61397Y-36583D01*
X61688Y-36688D01*
X61854Y-36230D02*
X61299Y-36028D01*
X61511Y-36105D02*
X61497Y-36060D01*
X61523Y-35990D01*
X61562Y-35964D01*
X61595Y-35956D01*
X61654Y-35958D01*
X61813Y-36016D01*
X61859Y-36053D01*
X61879Y-36080D01*
X61893Y-36125D01*
X61867Y-36195D01*
X61828Y-36221D01*
X61995Y-35843D02*
X61956Y-35868D01*
X61923Y-35876D01*
X61864Y-35875D01*
X61706Y-35817D01*
X61659Y-35780D01*
X61639Y-35753D01*
X61626Y-35708D01*
X61645Y-35655D01*
X61684Y-35630D01*
X61717Y-35622D01*
X61776Y-35623D01*
X61935Y-35681D01*
X61981Y-35718D01*
X62001Y-35745D01*
X62015Y-35790D01*
X61995Y-35843D01*
X62156Y-35402D02*
X61865Y-35297D01*
X61806Y-35295D01*
X61767Y-35321D01*
X61741Y-35391D01*
X61755Y-35436D01*
X62129Y-35393D02*
X62143Y-35438D01*
X62111Y-35526D01*
X62072Y-35551D01*
X62012Y-35550D01*
X61960Y-35530D01*
X61913Y-35494D01*
X61900Y-35449D01*
X61932Y-35361D01*
X61918Y-35316D01*
X62220Y-35226D02*
X61850Y-35092D01*
X61956Y-35130D02*
X61909Y-35093D01*
X61889Y-35066D01*
X61876Y-35021D01*
X61888Y-34986D01*
X62361Y-34839D02*
X61806Y-34637D01*
X62335Y-34829D02*
X62348Y-34874D01*
X62323Y-34944D01*
X62283Y-34970D01*
X62250Y-34978D01*
X62191Y-34976D01*
X62033Y-34919D01*
X61986Y-34882D01*
X61966Y-34854D01*
X61953Y-34810D01*
X61978Y-34739D01*
X62017Y-34714D01*
X62528Y-34381D02*
X62158Y-34246D01*
X61973Y-34179D02*
X61993Y-34206D01*
X62026Y-34198D01*
X62006Y-34171D01*
X61973Y-34179D01*
X62026Y-34198D01*
X62559Y-34212D02*
X62598Y-34187D01*
X62624Y-34116D01*
X62610Y-34071D01*
X62564Y-34035D01*
X62537Y-34025D01*
X62478Y-34023D01*
X62439Y-34049D01*
X62420Y-34102D01*
X62380Y-34127D01*
X62321Y-34126D01*
X62295Y-34116D01*
X62248Y-34079D01*
X62235Y-34034D01*
X62254Y-33982D01*
X62293Y-33956D01*
X62803Y-33623D02*
X62433Y-33488D01*
X62248Y-33421D02*
X62268Y-33448D01*
X62301Y-33440D01*
X62281Y-33413D01*
X62248Y-33421D01*
X62301Y-33440D01*
X62498Y-33312D02*
X62868Y-33447D01*
X62550Y-33331D02*
X62530Y-33304D01*
X62517Y-33259D01*
X62536Y-33206D01*
X62575Y-33181D01*
X62635Y-33182D01*
X62925Y-33288D01*
X62703Y-32748D02*
X62754Y-32608D01*
X62537Y-32628D02*
X63013Y-32801D01*
X63072Y-32803D01*
X63111Y-32777D01*
X63124Y-32742D01*
X63169Y-32619D02*
X62614Y-32417D01*
X63227Y-32460D02*
X62936Y-32354D01*
X62877Y-32353D01*
X62837Y-32378D01*
X62818Y-32431D01*
X62832Y-32476D01*
X62852Y-32503D01*
X63316Y-32134D02*
X63329Y-32178D01*
X63304Y-32249D01*
X63264Y-32274D01*
X63205Y-32273D01*
X62994Y-32196D01*
X62947Y-32159D01*
X62934Y-32114D01*
X62959Y-32044D01*
X62999Y-32018D01*
X63058Y-32020D01*
X63111Y-32039D01*
X63099Y-32234D01*
X63126Y-31586D02*
X63522Y-31650D01*
X63283Y-31483D01*
X63573Y-31509D01*
X63229Y-31304D01*
X63708Y-31139D02*
X63417Y-31033D01*
X63358Y-31032D01*
X63318Y-31057D01*
X63293Y-31128D01*
X63306Y-31173D01*
X63681Y-31129D02*
X63695Y-31174D01*
X63663Y-31262D01*
X63623Y-31288D01*
X63564Y-31286D01*
X63511Y-31267D01*
X63465Y-31230D01*
X63451Y-31185D01*
X63483Y-31097D01*
X63470Y-31052D01*
X63389Y-30863D02*
X63791Y-30910D01*
X63453Y-30687D02*
X63791Y-30910D01*
X63910Y-30993D01*
X63930Y-31021D01*
X63944Y-31065D01*
X63821Y-30662D02*
X63854Y-30654D01*
X63874Y-30681D01*
X63841Y-30689D01*
X63821Y-30662D01*
X63874Y-30681D01*
G54D11*
X72500Y-33800D02*
X72300Y-33600D01*
X72500Y-34000D02*
X72500Y-33800D01*
X72500Y-45800D02*
X72500Y-34000D01*
X74100Y-45800D02*
X72500Y-45800D01*
X74100Y-54100D02*
X74100Y-45800D01*
X41100Y-44750D02*
X41100Y-44700D01*
X41100Y-53500D02*
X41100Y-44750D01*
X43450Y-55850D02*
X41100Y-53500D01*
X72400Y-55850D02*
X43450Y-55850D01*
X74100Y-54150D02*
X72400Y-55850D01*
X68100Y-33600D02*
X72300Y-33600D01*
X67600Y-34100D02*
X68100Y-33600D01*
X67600Y-41400D02*
X67600Y-34100D01*
X67000Y-42000D02*
X67600Y-41400D01*
X62350Y-42000D02*
X67000Y-42000D01*
X62350Y-42500D02*
X62350Y-42000D01*
X62150Y-42700D02*
X62350Y-42500D01*
X56950Y-42700D02*
X62150Y-42700D01*
X56950Y-44700D02*
X56950Y-42700D01*
X41100Y-44700D02*
X56950Y-44700D01*
M02*
