G04 (created by PCBNEW (2013-07-07 BZR 4022)-stable) date 07/05/2014 19:47:58*
%MOIN*%
G04 Gerber Fmt 3.4, Leading zero omitted, Abs format*
%FSLAX34Y34*%
G01*
G70*
G90*
G04 APERTURE LIST*
%ADD10C,0.00590551*%
%ADD11C,0.015*%
%ADD12C,0.005*%
%ADD13C,0.0026*%
%ADD14C,0.004*%
%ADD15C,0.012*%
%ADD16C,0.01*%
%ADD17C,0.008*%
%ADD18C,0.0039*%
%ADD19C,0.002*%
%ADD20C,0.0035*%
%ADD21C,0.0075*%
%ADD22C,0.0043*%
%ADD23C,0.00492126*%
G04 APERTURE END LIST*
G54D10*
G54D11*
X58960Y-27090D02*
X58960Y-27150D01*
X65240Y-27090D02*
X58960Y-27090D01*
X65240Y-29660D02*
X65240Y-27090D01*
X58960Y-29660D02*
X65240Y-29660D01*
X58960Y-27200D02*
X58960Y-29660D01*
X41000Y-56000D02*
G75*
G03X41000Y-56000I0J0D01*
G74*
G01*
X40999Y-56000D02*
X41000Y-56000D01*
X41000Y-55999D02*
X41000Y-56000D01*
X74000Y-56000D02*
G75*
G03X74000Y-56000I0J0D01*
G74*
G01*
X73999Y-56000D02*
X74000Y-56000D01*
X74000Y-55999D02*
X74000Y-56000D01*
X74000Y-32000D02*
G75*
G03X74000Y-32000I0J0D01*
G74*
G01*
X73999Y-32000D02*
X74000Y-32000D01*
X74000Y-31999D02*
X74000Y-32000D01*
X40000Y-32000D02*
G75*
G03X40000Y-32000I0J0D01*
G74*
G01*
X39999Y-32000D02*
X40000Y-32000D01*
X40000Y-31999D02*
X40000Y-32000D01*
X72500Y-33800D02*
X72300Y-33600D01*
X72500Y-34000D02*
X72500Y-33800D01*
X72500Y-45800D02*
X72500Y-34000D01*
X74100Y-45800D02*
X72500Y-45800D01*
X74100Y-54100D02*
X74100Y-45800D01*
X41100Y-44750D02*
X41100Y-44700D01*
X41100Y-53500D02*
X41100Y-44750D01*
X43450Y-55850D02*
X41100Y-53500D01*
X72400Y-55850D02*
X43450Y-55850D01*
X74100Y-54150D02*
X72400Y-55850D01*
X68100Y-33600D02*
X72300Y-33600D01*
X67600Y-34100D02*
X68100Y-33600D01*
X67600Y-41400D02*
X67600Y-34100D01*
X67000Y-42000D02*
X67600Y-41400D01*
X62350Y-42000D02*
X67000Y-42000D01*
X62350Y-42500D02*
X62350Y-42000D01*
X62150Y-42700D02*
X62350Y-42500D01*
X56950Y-42700D02*
X62150Y-42700D01*
X56950Y-44700D02*
X56950Y-42700D01*
X41100Y-44700D02*
X56950Y-44700D01*
G54D12*
X57850Y-53650D02*
G75*
G03X57850Y-53650I-50J0D01*
G74*
G01*
X57800Y-53200D02*
X57800Y-53600D01*
X57800Y-53600D02*
X57200Y-53600D01*
X57200Y-53600D02*
X57200Y-53200D01*
X57200Y-52800D02*
X57200Y-52400D01*
X57200Y-52400D02*
X57800Y-52400D01*
X57800Y-52400D02*
X57800Y-52800D01*
X60850Y-53650D02*
G75*
G03X60850Y-53650I-50J0D01*
G74*
G01*
X60800Y-53200D02*
X60800Y-53600D01*
X60800Y-53600D02*
X60200Y-53600D01*
X60200Y-53600D02*
X60200Y-53200D01*
X60200Y-52800D02*
X60200Y-52400D01*
X60200Y-52400D02*
X60800Y-52400D01*
X60800Y-52400D02*
X60800Y-52800D01*
X68850Y-53650D02*
G75*
G03X68850Y-53650I-50J0D01*
G74*
G01*
X68800Y-53200D02*
X68800Y-53600D01*
X68800Y-53600D02*
X68200Y-53600D01*
X68200Y-53600D02*
X68200Y-53200D01*
X68200Y-52800D02*
X68200Y-52400D01*
X68200Y-52400D02*
X68800Y-52400D01*
X68800Y-52400D02*
X68800Y-52800D01*
X71850Y-53650D02*
G75*
G03X71850Y-53650I-50J0D01*
G74*
G01*
X71800Y-53200D02*
X71800Y-53600D01*
X71800Y-53600D02*
X71200Y-53600D01*
X71200Y-53600D02*
X71200Y-53200D01*
X71200Y-52800D02*
X71200Y-52400D01*
X71200Y-52400D02*
X71800Y-52400D01*
X71800Y-52400D02*
X71800Y-52800D01*
G54D13*
X52561Y-50539D02*
X52639Y-50539D01*
X52639Y-50539D02*
X52639Y-50461D01*
X52561Y-50461D02*
X52639Y-50461D01*
X52561Y-50539D02*
X52561Y-50461D01*
X52777Y-50775D02*
X52914Y-50775D01*
X52914Y-50775D02*
X52914Y-50677D01*
X52777Y-50677D02*
X52914Y-50677D01*
X52777Y-50775D02*
X52777Y-50677D01*
X52914Y-50775D02*
X52954Y-50775D01*
X52954Y-50775D02*
X52954Y-50304D01*
X52914Y-50304D02*
X52954Y-50304D01*
X52914Y-50775D02*
X52914Y-50304D01*
X52914Y-50284D02*
X52954Y-50284D01*
X52954Y-50284D02*
X52954Y-50225D01*
X52914Y-50225D02*
X52954Y-50225D01*
X52914Y-50284D02*
X52914Y-50225D01*
X52246Y-50775D02*
X52286Y-50775D01*
X52286Y-50775D02*
X52286Y-50304D01*
X52246Y-50304D02*
X52286Y-50304D01*
X52246Y-50775D02*
X52246Y-50304D01*
X52246Y-50284D02*
X52286Y-50284D01*
X52286Y-50284D02*
X52286Y-50225D01*
X52246Y-50225D02*
X52286Y-50225D01*
X52246Y-50284D02*
X52246Y-50225D01*
X52777Y-50775D02*
X52836Y-50775D01*
X52836Y-50775D02*
X52836Y-50677D01*
X52777Y-50677D02*
X52836Y-50677D01*
X52777Y-50775D02*
X52777Y-50677D01*
G54D14*
X53210Y-50795D02*
X51990Y-50795D01*
X51990Y-50795D02*
X51990Y-50205D01*
X51990Y-50205D02*
X53210Y-50205D01*
X53210Y-50205D02*
X53210Y-50795D01*
X52384Y-50696D02*
G75*
G03X52816Y-50695I215J196D01*
G74*
G01*
X52384Y-50303D02*
G75*
G03X52383Y-50695I215J-196D01*
G74*
G01*
X52815Y-50303D02*
G75*
G03X52383Y-50304I-215J-196D01*
G74*
G01*
X52815Y-50696D02*
G75*
G03X52816Y-50304I-215J196D01*
G74*
G01*
G54D15*
X44200Y-45100D02*
X41200Y-45100D01*
X41200Y-53100D02*
X44200Y-53100D01*
X41700Y-53100D02*
X41700Y-45100D01*
X44200Y-45100D02*
X44200Y-53100D01*
X41200Y-45100D02*
X41200Y-53100D01*
X62750Y-51500D02*
X62750Y-50500D01*
X62750Y-50500D02*
X65750Y-50500D01*
X65750Y-50500D02*
X65750Y-51500D01*
X65750Y-51500D02*
X62750Y-51500D01*
X63750Y-50500D02*
X63750Y-51500D01*
X62750Y-50500D02*
X62750Y-49500D01*
X62750Y-49500D02*
X65750Y-49500D01*
X65750Y-49500D02*
X65750Y-50500D01*
X65750Y-50500D02*
X62750Y-50500D01*
X63750Y-49500D02*
X63750Y-50500D01*
X62750Y-49500D02*
X62750Y-48500D01*
X62750Y-48500D02*
X65750Y-48500D01*
X65750Y-48500D02*
X65750Y-49500D01*
X65750Y-49500D02*
X62750Y-49500D01*
X63750Y-48500D02*
X63750Y-49500D01*
X62750Y-46500D02*
X62750Y-45500D01*
X62750Y-45500D02*
X65750Y-45500D01*
X65750Y-45500D02*
X65750Y-46500D01*
X65750Y-46500D02*
X62750Y-46500D01*
X63750Y-45500D02*
X63750Y-46500D01*
X62750Y-47500D02*
X62750Y-46500D01*
X62750Y-46500D02*
X65750Y-46500D01*
X65750Y-46500D02*
X65750Y-47500D01*
X65750Y-47500D02*
X62750Y-47500D01*
X63750Y-46500D02*
X63750Y-47500D01*
X62750Y-48500D02*
X62750Y-47500D01*
X62750Y-47500D02*
X65750Y-47500D01*
X65750Y-47500D02*
X65750Y-48500D01*
X65750Y-48500D02*
X62750Y-48500D01*
X63750Y-47500D02*
X63750Y-48500D01*
X69000Y-37500D02*
X69000Y-36500D01*
X69000Y-36500D02*
X72000Y-36500D01*
X72000Y-36500D02*
X72000Y-37500D01*
X72000Y-37500D02*
X69000Y-37500D01*
X70000Y-36500D02*
X70000Y-37500D01*
G54D12*
X44411Y-54250D02*
G75*
G03X44411Y-54250I-111J0D01*
G74*
G01*
X44500Y-52100D02*
X44500Y-54200D01*
X44400Y-52100D02*
X44400Y-54200D01*
X45700Y-54200D02*
X44400Y-54200D01*
X45700Y-52100D02*
X44400Y-52100D01*
X46900Y-52100D02*
X48200Y-52100D01*
X48200Y-52100D02*
X48200Y-54200D01*
X48200Y-54200D02*
X46900Y-54200D01*
X44561Y-47850D02*
G75*
G03X44561Y-47850I-111J0D01*
G74*
G01*
X44650Y-45700D02*
X44650Y-47800D01*
X44550Y-45700D02*
X44550Y-47800D01*
X45850Y-47800D02*
X44550Y-47800D01*
X45850Y-45700D02*
X44550Y-45700D01*
X47050Y-45700D02*
X48350Y-45700D01*
X48350Y-45700D02*
X48350Y-47800D01*
X48350Y-47800D02*
X47050Y-47800D01*
G54D15*
X67500Y-42200D02*
X67500Y-43200D01*
X67500Y-43200D02*
X62500Y-43200D01*
X62500Y-43200D02*
X62500Y-42200D01*
X62500Y-42200D02*
X67500Y-42200D01*
X66500Y-42200D02*
X66500Y-43200D01*
X67500Y-43200D02*
X67500Y-44200D01*
X67500Y-44200D02*
X62500Y-44200D01*
X62500Y-44200D02*
X62500Y-43200D01*
X62500Y-43200D02*
X67500Y-43200D01*
X66500Y-43200D02*
X66500Y-44200D01*
X61000Y-55250D02*
X61000Y-55250D01*
X61000Y-54250D02*
X61000Y-55250D01*
X61000Y-55250D02*
X61000Y-55250D01*
X61000Y-55250D02*
X57000Y-55250D01*
X57000Y-55250D02*
X57000Y-54250D01*
X57000Y-54250D02*
X61000Y-54250D01*
X60000Y-54250D02*
X60000Y-55250D01*
X72000Y-55250D02*
X72000Y-55250D01*
X72000Y-54250D02*
X72000Y-55250D01*
X72000Y-55250D02*
X72000Y-55250D01*
X72000Y-55250D02*
X68000Y-55250D01*
X68000Y-55250D02*
X68000Y-54250D01*
X68000Y-54250D02*
X72000Y-54250D01*
X71000Y-54250D02*
X71000Y-55250D01*
X68160Y-33890D02*
X72160Y-33890D01*
X72160Y-33890D02*
X72160Y-35890D01*
X72160Y-35890D02*
X68160Y-35890D01*
X68160Y-35890D02*
X68160Y-33890D01*
G54D16*
X54500Y-46000D02*
X62500Y-46000D01*
X62500Y-46000D02*
X62500Y-52000D01*
X62500Y-52000D02*
X54500Y-52000D01*
X54500Y-52000D02*
X54500Y-46000D01*
X66000Y-46000D02*
X74000Y-46000D01*
X74000Y-46000D02*
X74000Y-52000D01*
X74000Y-52000D02*
X66000Y-52000D01*
X66000Y-52000D02*
X66000Y-46000D01*
G54D15*
X72000Y-43750D02*
X71000Y-43750D01*
X71000Y-43750D02*
X71000Y-41750D01*
X71000Y-41750D02*
X72000Y-41750D01*
X72000Y-41750D02*
X72000Y-43750D01*
G54D13*
X53398Y-52630D02*
X53201Y-52630D01*
X53201Y-52630D02*
X53201Y-53043D01*
X53398Y-53043D02*
X53201Y-53043D01*
X53398Y-52630D02*
X53398Y-53043D01*
X53418Y-52748D02*
X53181Y-52748D01*
X53181Y-52748D02*
X53181Y-52994D01*
X53418Y-52994D02*
X53181Y-52994D01*
X53418Y-52748D02*
X53418Y-52994D01*
X52898Y-52630D02*
X52701Y-52630D01*
X52701Y-52630D02*
X52701Y-53043D01*
X52898Y-53043D02*
X52701Y-53043D01*
X52898Y-52630D02*
X52898Y-53043D01*
X52918Y-52748D02*
X52681Y-52748D01*
X52681Y-52748D02*
X52681Y-52994D01*
X52918Y-52994D02*
X52681Y-52994D01*
X52918Y-52748D02*
X52918Y-52994D01*
X52399Y-52630D02*
X52202Y-52630D01*
X52202Y-52630D02*
X52202Y-53043D01*
X52399Y-53043D02*
X52202Y-53043D01*
X52399Y-52630D02*
X52399Y-53043D01*
X52419Y-52748D02*
X52182Y-52748D01*
X52182Y-52748D02*
X52182Y-52994D01*
X52419Y-52994D02*
X52182Y-52994D01*
X52419Y-52748D02*
X52419Y-52994D01*
X51899Y-52630D02*
X51702Y-52630D01*
X51702Y-52630D02*
X51702Y-53043D01*
X51899Y-53043D02*
X51702Y-53043D01*
X51899Y-52630D02*
X51899Y-53043D01*
X51919Y-52748D02*
X51682Y-52748D01*
X51682Y-52748D02*
X51682Y-52994D01*
X51919Y-52994D02*
X51682Y-52994D01*
X51919Y-52748D02*
X51919Y-52994D01*
X53494Y-54657D02*
X51596Y-54657D01*
X51596Y-54657D02*
X51596Y-55070D01*
X53494Y-55070D02*
X51596Y-55070D01*
X53494Y-54657D02*
X53494Y-55070D01*
X53170Y-53447D02*
X51930Y-53447D01*
X51930Y-53447D02*
X51930Y-54666D01*
X53170Y-54666D02*
X51930Y-54666D01*
X53170Y-53447D02*
X53170Y-54666D01*
G54D17*
X53494Y-54617D02*
X51606Y-54617D01*
X51606Y-54617D02*
X51606Y-53083D01*
X51606Y-53083D02*
X53494Y-53083D01*
X53494Y-53083D02*
X53494Y-54617D01*
X53494Y-53083D02*
X53494Y-53368D01*
X51606Y-53368D02*
X51606Y-53083D01*
X53376Y-54696D02*
X53376Y-54952D01*
X53376Y-54952D02*
X53374Y-54972D01*
X53374Y-54972D02*
X53366Y-54991D01*
X53366Y-54991D02*
X53353Y-55008D01*
X53353Y-55008D02*
X53337Y-55020D01*
X53337Y-55020D02*
X53318Y-55028D01*
X53318Y-55028D02*
X53298Y-55031D01*
X53298Y-55031D02*
X51802Y-55031D01*
X51802Y-55031D02*
X51782Y-55028D01*
X51782Y-55028D02*
X51763Y-55020D01*
X51763Y-55020D02*
X51747Y-55008D01*
X51747Y-55008D02*
X51734Y-54991D01*
X51734Y-54991D02*
X51726Y-54972D01*
X51726Y-54972D02*
X51724Y-54952D01*
X51724Y-54952D02*
X51724Y-54696D01*
X51724Y-54696D02*
X52078Y-54696D01*
X52078Y-54696D02*
X52078Y-54755D01*
X52078Y-54755D02*
X53022Y-54755D01*
X53022Y-54755D02*
X53022Y-54696D01*
X53022Y-54696D02*
X53376Y-54696D01*
G54D14*
X53278Y-53850D02*
G75*
G03X53278Y-53850I-89J0D01*
G74*
G01*
G54D12*
X68050Y-40000D02*
X68950Y-40000D01*
X68950Y-40000D02*
X68950Y-39350D01*
X68050Y-38650D02*
X68050Y-38000D01*
X68050Y-38000D02*
X68950Y-38000D01*
X68950Y-38000D02*
X68950Y-38650D01*
X68050Y-39350D02*
X68050Y-40000D01*
X51050Y-48800D02*
X50150Y-48800D01*
X50150Y-48800D02*
X50150Y-49450D01*
X51050Y-50150D02*
X51050Y-50800D01*
X51050Y-50800D02*
X50150Y-50800D01*
X50150Y-50800D02*
X50150Y-50150D01*
X51050Y-49450D02*
X51050Y-48800D01*
G54D18*
X52950Y-51650D02*
G75*
G03X52950Y-51650I-50J0D01*
G74*
G01*
X52450Y-51650D02*
X52850Y-51650D01*
X52850Y-51650D02*
X52850Y-52250D01*
X52850Y-52250D02*
X52450Y-52250D01*
X52050Y-52250D02*
X51650Y-52250D01*
X51650Y-52250D02*
X51650Y-51650D01*
X51650Y-51650D02*
X52050Y-51650D01*
X53750Y-51700D02*
G75*
G03X53750Y-51700I-50J0D01*
G74*
G01*
X53700Y-52150D02*
X53700Y-51750D01*
X53700Y-51750D02*
X54300Y-51750D01*
X54300Y-51750D02*
X54300Y-52150D01*
X54300Y-52550D02*
X54300Y-52950D01*
X54300Y-52950D02*
X53700Y-52950D01*
X53700Y-52950D02*
X53700Y-52550D01*
X68250Y-40600D02*
G75*
G03X68250Y-40600I-50J0D01*
G74*
G01*
X68200Y-41050D02*
X68200Y-40650D01*
X68200Y-40650D02*
X68800Y-40650D01*
X68800Y-40650D02*
X68800Y-41050D01*
X68800Y-41450D02*
X68800Y-41850D01*
X68800Y-41850D02*
X68200Y-41850D01*
X68200Y-41850D02*
X68200Y-41450D01*
X52100Y-49900D02*
G75*
G03X52100Y-49900I-50J0D01*
G74*
G01*
X52050Y-49450D02*
X52050Y-49850D01*
X52050Y-49850D02*
X51450Y-49850D01*
X51450Y-49850D02*
X51450Y-49450D01*
X51450Y-49050D02*
X51450Y-48650D01*
X51450Y-48650D02*
X52050Y-48650D01*
X52050Y-48650D02*
X52050Y-49050D01*
X68850Y-43400D02*
G75*
G03X68850Y-43400I-50J0D01*
G74*
G01*
X68800Y-42950D02*
X68800Y-43350D01*
X68800Y-43350D02*
X68200Y-43350D01*
X68200Y-43350D02*
X68200Y-42950D01*
X68200Y-42550D02*
X68200Y-42150D01*
X68200Y-42150D02*
X68800Y-42150D01*
X68800Y-42150D02*
X68800Y-42550D01*
G54D17*
X47950Y-50100D02*
G75*
G03X47950Y-50100I-1600J0D01*
G74*
G01*
G54D11*
X66000Y-53750D02*
G75*
G03X66000Y-53750I-1750J0D01*
G74*
G01*
X71143Y-39984D02*
X70356Y-39984D01*
X70356Y-38212D02*
X70356Y-39787D01*
X70356Y-39787D02*
X71143Y-39787D01*
X71143Y-39787D02*
X71143Y-38212D01*
X71143Y-38212D02*
X70356Y-38212D01*
G54D12*
X70200Y-41750D02*
X69300Y-41750D01*
X69300Y-41750D02*
X69300Y-42400D01*
X70200Y-43100D02*
X70200Y-43750D01*
X70200Y-43750D02*
X69300Y-43750D01*
X69300Y-43750D02*
X69300Y-43100D01*
X70200Y-42400D02*
X70200Y-41750D01*
G54D11*
X49740Y-48325D02*
X48559Y-48325D01*
X49740Y-51277D02*
X48559Y-51277D01*
X48559Y-51277D02*
X48559Y-48522D01*
X48559Y-48522D02*
X49740Y-48522D01*
X49740Y-48522D02*
X49740Y-51277D01*
X49790Y-52575D02*
X48609Y-52575D01*
X49790Y-55527D02*
X48609Y-55527D01*
X48609Y-55527D02*
X48609Y-52772D01*
X48609Y-52772D02*
X49790Y-52772D01*
X49790Y-52772D02*
X49790Y-55527D01*
X50478Y-48293D02*
X50478Y-47506D01*
X53824Y-48293D02*
X53824Y-47506D01*
X53824Y-47506D02*
X50675Y-47506D01*
X50675Y-47506D02*
X50675Y-48293D01*
X50675Y-48293D02*
X53824Y-48293D01*
X70984Y-41393D02*
X70984Y-40606D01*
X69212Y-41393D02*
X69212Y-40606D01*
X69212Y-40606D02*
X70787Y-40606D01*
X70787Y-40606D02*
X70787Y-41393D01*
X70787Y-41393D02*
X69212Y-41393D01*
X69356Y-39984D02*
X70143Y-39984D01*
X69356Y-38212D02*
X70143Y-38212D01*
X70143Y-38212D02*
X70143Y-39787D01*
X70143Y-39787D02*
X69356Y-39787D01*
X69356Y-39787D02*
X69356Y-38212D01*
G54D13*
X51500Y-45600D02*
X51100Y-45600D01*
X51100Y-45600D02*
X51100Y-46000D01*
X51500Y-46000D02*
X51100Y-46000D01*
X51500Y-45600D02*
X51500Y-46000D01*
X53500Y-45600D02*
X53100Y-45600D01*
X53100Y-45600D02*
X53100Y-46000D01*
X53500Y-46000D02*
X53100Y-46000D01*
X53500Y-45600D02*
X53500Y-46000D01*
G54D12*
X50330Y-47300D02*
X50330Y-46730D01*
X54270Y-47300D02*
X54270Y-46730D01*
X54270Y-47300D02*
X50330Y-47300D01*
X50330Y-44300D02*
X50350Y-44400D01*
X50330Y-46730D02*
X50480Y-46870D01*
X50330Y-46730D02*
X50330Y-44300D01*
X50480Y-46870D02*
X50680Y-46990D01*
X50680Y-46990D02*
X50871Y-47070D01*
X50871Y-47070D02*
X51040Y-47120D01*
X51040Y-47120D02*
X51220Y-47150D01*
X51220Y-47150D02*
X51290Y-47150D01*
X52330Y-46730D02*
X52480Y-46870D01*
X52480Y-46870D02*
X52680Y-46990D01*
X52680Y-46990D02*
X52870Y-47070D01*
X52870Y-47070D02*
X53040Y-47120D01*
X53040Y-47120D02*
X53220Y-47150D01*
X53220Y-47150D02*
X53290Y-47150D01*
X54270Y-46730D02*
X54120Y-46870D01*
X54270Y-46730D02*
X54270Y-44300D01*
X54120Y-46870D02*
X53920Y-46990D01*
X53920Y-46990D02*
X53729Y-47070D01*
X53729Y-47070D02*
X53560Y-47120D01*
X53560Y-47120D02*
X53380Y-47150D01*
X53380Y-47150D02*
X53310Y-47150D01*
X52270Y-46730D02*
X52120Y-46870D01*
X52120Y-46870D02*
X51920Y-46990D01*
X51920Y-46990D02*
X51730Y-47070D01*
X51730Y-47070D02*
X51560Y-47120D01*
X51560Y-47120D02*
X51380Y-47150D01*
X51380Y-47150D02*
X51310Y-47150D01*
X52330Y-46730D02*
X52270Y-46730D01*
X50350Y-44400D02*
X50350Y-44200D01*
X54250Y-44050D02*
X54250Y-44200D01*
X50350Y-44400D02*
X51000Y-44400D01*
X54250Y-44400D02*
X54270Y-44300D01*
G54D19*
X51000Y-44400D02*
X51000Y-44200D01*
G54D12*
X51000Y-44400D02*
X51600Y-44400D01*
G54D19*
X51600Y-44400D02*
X51600Y-44200D01*
G54D12*
X51600Y-44400D02*
X53000Y-44400D01*
G54D19*
X53000Y-44400D02*
X53000Y-44200D01*
G54D12*
X53000Y-44400D02*
X53600Y-44400D01*
G54D19*
X53600Y-44400D02*
X53600Y-44200D01*
G54D12*
X53600Y-44400D02*
X54250Y-44400D01*
X54250Y-44050D02*
X53500Y-44050D01*
G54D19*
X54250Y-44200D02*
X53600Y-44200D01*
G54D12*
X54250Y-44200D02*
X54250Y-44400D01*
G54D19*
X53600Y-44200D02*
X53500Y-44050D01*
G54D12*
X53500Y-44050D02*
X53100Y-44050D01*
G54D19*
X53000Y-44200D02*
X51600Y-44200D01*
X53000Y-44200D02*
X53100Y-44050D01*
G54D12*
X53100Y-44050D02*
X51500Y-44050D01*
G54D19*
X51600Y-44200D02*
X51500Y-44050D01*
G54D12*
X51500Y-44050D02*
X51100Y-44050D01*
G54D19*
X51000Y-44200D02*
X50350Y-44200D01*
X51000Y-44200D02*
X51100Y-44050D01*
G54D12*
X51100Y-44050D02*
X50350Y-44050D01*
X50350Y-44200D02*
X50350Y-44050D01*
G54D15*
X57100Y-43900D02*
X57100Y-42900D01*
X57100Y-42900D02*
X62100Y-42900D01*
X62100Y-42900D02*
X62100Y-43900D01*
X62100Y-43900D02*
X57100Y-43900D01*
X58100Y-43900D02*
X58100Y-42900D01*
X59090Y-29510D02*
X59090Y-28510D01*
X59090Y-28510D02*
X65090Y-28510D01*
X65090Y-28510D02*
X65090Y-29510D01*
X65090Y-29510D02*
X59090Y-29510D01*
X60090Y-29510D02*
X60090Y-28510D01*
X59110Y-28360D02*
X59110Y-27360D01*
X59110Y-27360D02*
X64110Y-27360D01*
X64110Y-27360D02*
X64110Y-28360D01*
X64110Y-28360D02*
X59110Y-28360D01*
X60110Y-28360D02*
X60110Y-27360D01*
G54D20*
X52407Y-51221D02*
X52264Y-51221D01*
X52264Y-50921D01*
X52507Y-51064D02*
X52607Y-51064D01*
X52650Y-51221D02*
X52507Y-51221D01*
X52507Y-50921D01*
X52650Y-50921D01*
X52778Y-51221D02*
X52778Y-50921D01*
X52850Y-50921D01*
X52892Y-50935D01*
X52921Y-50964D01*
X52935Y-50992D01*
X52950Y-51050D01*
X52950Y-51092D01*
X52935Y-51150D01*
X52921Y-51178D01*
X52892Y-51207D01*
X52850Y-51221D01*
X52778Y-51221D01*
G54D15*
X44346Y-51467D02*
X44346Y-51181D01*
X44517Y-51524D02*
X43917Y-51324D01*
X44517Y-51124D01*
X44517Y-50638D02*
X44517Y-50924D01*
X43917Y-50924D01*
X44517Y-50438D02*
X43917Y-50438D01*
X44517Y-50152D02*
X43917Y-50152D01*
X44346Y-49952D01*
X43917Y-49752D01*
X44517Y-49752D01*
X44575Y-49610D02*
X44575Y-49152D01*
X44517Y-49010D02*
X43917Y-49010D01*
X44517Y-48724D02*
X43917Y-48724D01*
X44517Y-48381D01*
X43917Y-48381D01*
G54D21*
X45914Y-53542D02*
X45914Y-53642D01*
X46071Y-53642D02*
X45771Y-53642D01*
X45771Y-53500D01*
X45771Y-53385D02*
X46014Y-53385D01*
X46042Y-53371D01*
X46057Y-53357D01*
X46071Y-53328D01*
X46071Y-53271D01*
X46057Y-53242D01*
X46042Y-53228D01*
X46014Y-53214D01*
X45771Y-53214D01*
X46057Y-53085D02*
X46071Y-53042D01*
X46071Y-52971D01*
X46057Y-52942D01*
X46042Y-52928D01*
X46014Y-52914D01*
X45985Y-52914D01*
X45957Y-52928D01*
X45942Y-52942D01*
X45928Y-52971D01*
X45914Y-53028D01*
X45900Y-53057D01*
X45885Y-53071D01*
X45857Y-53085D01*
X45828Y-53085D01*
X45800Y-53071D01*
X45785Y-53057D01*
X45771Y-53028D01*
X45771Y-52957D01*
X45785Y-52914D01*
X45914Y-52785D02*
X45914Y-52685D01*
X46071Y-52642D02*
X46071Y-52785D01*
X45771Y-52785D01*
X45771Y-52642D01*
X46064Y-47142D02*
X46064Y-47242D01*
X46221Y-47242D02*
X45921Y-47242D01*
X45921Y-47100D01*
X45921Y-46985D02*
X46164Y-46985D01*
X46192Y-46971D01*
X46207Y-46957D01*
X46221Y-46928D01*
X46221Y-46871D01*
X46207Y-46842D01*
X46192Y-46828D01*
X46164Y-46814D01*
X45921Y-46814D01*
X46207Y-46685D02*
X46221Y-46642D01*
X46221Y-46571D01*
X46207Y-46542D01*
X46192Y-46528D01*
X46164Y-46514D01*
X46135Y-46514D01*
X46107Y-46528D01*
X46092Y-46542D01*
X46078Y-46571D01*
X46064Y-46628D01*
X46050Y-46657D01*
X46035Y-46671D01*
X46007Y-46685D01*
X45978Y-46685D01*
X45950Y-46671D01*
X45935Y-46657D01*
X45921Y-46628D01*
X45921Y-46557D01*
X45935Y-46514D01*
X46064Y-46385D02*
X46064Y-46285D01*
X46221Y-46242D02*
X46221Y-46385D01*
X45921Y-46385D01*
X45921Y-46242D01*
G54D15*
X55285Y-48702D02*
X55285Y-48202D01*
X55514Y-48202D01*
X55571Y-48226D01*
X55600Y-48250D01*
X55628Y-48297D01*
X55628Y-48369D01*
X55600Y-48416D01*
X55571Y-48440D01*
X55514Y-48464D01*
X55285Y-48464D01*
X56000Y-48202D02*
X56114Y-48202D01*
X56171Y-48226D01*
X56228Y-48273D01*
X56257Y-48369D01*
X56257Y-48535D01*
X56228Y-48630D01*
X56171Y-48678D01*
X56114Y-48702D01*
X56000Y-48702D01*
X55942Y-48678D01*
X55885Y-48630D01*
X55857Y-48535D01*
X55857Y-48369D01*
X55885Y-48273D01*
X55942Y-48226D01*
X56000Y-48202D01*
X56799Y-48702D02*
X56514Y-48702D01*
X56514Y-48202D01*
X57114Y-48202D02*
X57228Y-48202D01*
X57285Y-48226D01*
X57342Y-48273D01*
X57371Y-48369D01*
X57371Y-48535D01*
X57342Y-48630D01*
X57285Y-48678D01*
X57228Y-48702D01*
X57114Y-48702D01*
X57057Y-48678D01*
X56999Y-48630D01*
X56971Y-48535D01*
X56971Y-48369D01*
X56999Y-48273D01*
X57057Y-48226D01*
X57114Y-48202D01*
X57914Y-48702D02*
X57628Y-48702D01*
X57628Y-48202D01*
X58114Y-48202D02*
X58114Y-48607D01*
X58142Y-48654D01*
X58171Y-48678D01*
X58228Y-48702D01*
X58342Y-48702D01*
X58399Y-48678D01*
X58428Y-48654D01*
X58457Y-48607D01*
X58457Y-48202D01*
X58599Y-48750D02*
X59057Y-48750D01*
X59171Y-48559D02*
X59457Y-48559D01*
X59114Y-48702D02*
X59314Y-48202D01*
X59514Y-48702D01*
X59971Y-48369D02*
X59971Y-48702D01*
X59828Y-48178D02*
X59685Y-48535D01*
X60057Y-48535D01*
X60314Y-48702D02*
X60428Y-48702D01*
X60485Y-48678D01*
X60514Y-48654D01*
X60571Y-48583D01*
X60599Y-48488D01*
X60599Y-48297D01*
X60571Y-48250D01*
X60542Y-48226D01*
X60485Y-48202D01*
X60371Y-48202D01*
X60314Y-48226D01*
X60285Y-48250D01*
X60257Y-48297D01*
X60257Y-48416D01*
X60285Y-48464D01*
X60314Y-48488D01*
X60371Y-48511D01*
X60485Y-48511D01*
X60542Y-48488D01*
X60571Y-48464D01*
X60599Y-48416D01*
X60942Y-48416D02*
X60885Y-48392D01*
X60857Y-48369D01*
X60828Y-48321D01*
X60828Y-48297D01*
X60857Y-48250D01*
X60885Y-48226D01*
X60942Y-48202D01*
X61057Y-48202D01*
X61114Y-48226D01*
X61142Y-48250D01*
X61171Y-48297D01*
X61171Y-48321D01*
X61142Y-48369D01*
X61114Y-48392D01*
X61057Y-48416D01*
X60942Y-48416D01*
X60885Y-48440D01*
X60857Y-48464D01*
X60828Y-48511D01*
X60828Y-48607D01*
X60857Y-48654D01*
X60885Y-48678D01*
X60942Y-48702D01*
X61057Y-48702D01*
X61114Y-48678D01*
X61142Y-48654D01*
X61171Y-48607D01*
X61171Y-48511D01*
X61142Y-48464D01*
X61114Y-48440D01*
X61057Y-48416D01*
X61514Y-48416D02*
X61457Y-48392D01*
X61428Y-48369D01*
X61400Y-48321D01*
X61400Y-48297D01*
X61428Y-48250D01*
X61457Y-48226D01*
X61514Y-48202D01*
X61628Y-48202D01*
X61685Y-48226D01*
X61714Y-48250D01*
X61742Y-48297D01*
X61742Y-48321D01*
X61714Y-48369D01*
X61685Y-48392D01*
X61628Y-48416D01*
X61514Y-48416D01*
X61457Y-48440D01*
X61428Y-48464D01*
X61400Y-48511D01*
X61400Y-48607D01*
X61428Y-48654D01*
X61457Y-48678D01*
X61514Y-48702D01*
X61628Y-48702D01*
X61685Y-48678D01*
X61714Y-48654D01*
X61742Y-48607D01*
X61742Y-48511D01*
X61714Y-48464D01*
X61685Y-48440D01*
X61628Y-48416D01*
X66785Y-48702D02*
X66785Y-48202D01*
X67014Y-48202D01*
X67071Y-48226D01*
X67100Y-48250D01*
X67128Y-48297D01*
X67128Y-48369D01*
X67100Y-48416D01*
X67071Y-48440D01*
X67014Y-48464D01*
X66785Y-48464D01*
X67500Y-48202D02*
X67614Y-48202D01*
X67671Y-48226D01*
X67728Y-48273D01*
X67757Y-48369D01*
X67757Y-48535D01*
X67728Y-48630D01*
X67671Y-48678D01*
X67614Y-48702D01*
X67500Y-48702D01*
X67442Y-48678D01*
X67385Y-48630D01*
X67357Y-48535D01*
X67357Y-48369D01*
X67385Y-48273D01*
X67442Y-48226D01*
X67500Y-48202D01*
X68299Y-48702D02*
X68014Y-48702D01*
X68014Y-48202D01*
X68614Y-48202D02*
X68728Y-48202D01*
X68785Y-48226D01*
X68842Y-48273D01*
X68871Y-48369D01*
X68871Y-48535D01*
X68842Y-48630D01*
X68785Y-48678D01*
X68728Y-48702D01*
X68614Y-48702D01*
X68557Y-48678D01*
X68499Y-48630D01*
X68471Y-48535D01*
X68471Y-48369D01*
X68499Y-48273D01*
X68557Y-48226D01*
X68614Y-48202D01*
X69414Y-48702D02*
X69128Y-48702D01*
X69128Y-48202D01*
X69614Y-48202D02*
X69614Y-48607D01*
X69642Y-48654D01*
X69671Y-48678D01*
X69728Y-48702D01*
X69842Y-48702D01*
X69899Y-48678D01*
X69928Y-48654D01*
X69957Y-48607D01*
X69957Y-48202D01*
X70099Y-48750D02*
X70557Y-48750D01*
X70671Y-48559D02*
X70957Y-48559D01*
X70614Y-48702D02*
X70814Y-48202D01*
X71014Y-48702D01*
X71471Y-48369D02*
X71471Y-48702D01*
X71328Y-48178D02*
X71185Y-48535D01*
X71557Y-48535D01*
X71814Y-48702D02*
X71928Y-48702D01*
X71985Y-48678D01*
X72014Y-48654D01*
X72071Y-48583D01*
X72099Y-48488D01*
X72099Y-48297D01*
X72071Y-48250D01*
X72042Y-48226D01*
X71985Y-48202D01*
X71871Y-48202D01*
X71814Y-48226D01*
X71785Y-48250D01*
X71757Y-48297D01*
X71757Y-48416D01*
X71785Y-48464D01*
X71814Y-48488D01*
X71871Y-48511D01*
X71985Y-48511D01*
X72042Y-48488D01*
X72071Y-48464D01*
X72099Y-48416D01*
X72442Y-48416D02*
X72385Y-48392D01*
X72357Y-48369D01*
X72328Y-48321D01*
X72328Y-48297D01*
X72357Y-48250D01*
X72385Y-48226D01*
X72442Y-48202D01*
X72557Y-48202D01*
X72614Y-48226D01*
X72642Y-48250D01*
X72671Y-48297D01*
X72671Y-48321D01*
X72642Y-48369D01*
X72614Y-48392D01*
X72557Y-48416D01*
X72442Y-48416D01*
X72385Y-48440D01*
X72357Y-48464D01*
X72328Y-48511D01*
X72328Y-48607D01*
X72357Y-48654D01*
X72385Y-48678D01*
X72442Y-48702D01*
X72557Y-48702D01*
X72614Y-48678D01*
X72642Y-48654D01*
X72671Y-48607D01*
X72671Y-48511D01*
X72642Y-48464D01*
X72614Y-48440D01*
X72557Y-48416D01*
X73014Y-48416D02*
X72957Y-48392D01*
X72928Y-48369D01*
X72900Y-48321D01*
X72900Y-48297D01*
X72928Y-48250D01*
X72957Y-48226D01*
X73014Y-48202D01*
X73128Y-48202D01*
X73185Y-48226D01*
X73214Y-48250D01*
X73242Y-48297D01*
X73242Y-48321D01*
X73214Y-48369D01*
X73185Y-48392D01*
X73128Y-48416D01*
X73014Y-48416D01*
X72957Y-48440D01*
X72928Y-48464D01*
X72900Y-48511D01*
X72900Y-48607D01*
X72928Y-48654D01*
X72957Y-48678D01*
X73014Y-48702D01*
X73128Y-48702D01*
X73185Y-48678D01*
X73214Y-48654D01*
X73242Y-48607D01*
X73242Y-48511D01*
X73214Y-48464D01*
X73185Y-48440D01*
X73128Y-48416D01*
G54D22*
X52113Y-51879D02*
X52001Y-51879D01*
X52057Y-51879D02*
X52057Y-51682D01*
X52038Y-51710D01*
X52020Y-51729D01*
X52001Y-51739D01*
X52235Y-51682D02*
X52254Y-51682D01*
X52273Y-51692D01*
X52282Y-51701D01*
X52292Y-51720D01*
X52301Y-51757D01*
X52301Y-51804D01*
X52292Y-51842D01*
X52282Y-51860D01*
X52273Y-51870D01*
X52254Y-51879D01*
X52235Y-51879D01*
X52217Y-51870D01*
X52207Y-51860D01*
X52198Y-51842D01*
X52189Y-51804D01*
X52189Y-51757D01*
X52198Y-51720D01*
X52207Y-51701D01*
X52217Y-51692D01*
X52235Y-51682D01*
X52498Y-51879D02*
X52432Y-51785D01*
X52386Y-51879D02*
X52386Y-51682D01*
X52461Y-51682D01*
X52479Y-51692D01*
X52489Y-51701D01*
X52498Y-51720D01*
X52498Y-51748D01*
X52489Y-51767D01*
X52479Y-51776D01*
X52461Y-51785D01*
X52386Y-51785D01*
X53929Y-52579D02*
X53929Y-52692D01*
X53929Y-52636D02*
X53732Y-52636D01*
X53760Y-52654D01*
X53779Y-52673D01*
X53789Y-52692D01*
X53732Y-52457D02*
X53732Y-52439D01*
X53742Y-52420D01*
X53751Y-52410D01*
X53770Y-52401D01*
X53807Y-52392D01*
X53854Y-52392D01*
X53892Y-52401D01*
X53910Y-52410D01*
X53920Y-52420D01*
X53929Y-52439D01*
X53929Y-52457D01*
X53920Y-52476D01*
X53910Y-52486D01*
X53892Y-52495D01*
X53854Y-52504D01*
X53807Y-52504D01*
X53770Y-52495D01*
X53751Y-52486D01*
X53742Y-52476D01*
X53732Y-52457D01*
X53732Y-52270D02*
X53732Y-52251D01*
X53742Y-52232D01*
X53751Y-52223D01*
X53770Y-52213D01*
X53807Y-52204D01*
X53854Y-52204D01*
X53892Y-52213D01*
X53910Y-52223D01*
X53920Y-52232D01*
X53929Y-52251D01*
X53929Y-52270D01*
X53920Y-52289D01*
X53910Y-52298D01*
X53892Y-52307D01*
X53854Y-52317D01*
X53807Y-52317D01*
X53770Y-52307D01*
X53751Y-52298D01*
X53742Y-52289D01*
X53732Y-52270D01*
X53929Y-52120D02*
X53732Y-52120D01*
X53929Y-52007D02*
X53817Y-52092D01*
X53732Y-52007D02*
X53845Y-52120D01*
X68298Y-41451D02*
X68429Y-41451D01*
X68223Y-41498D02*
X68364Y-41545D01*
X68364Y-41423D01*
X68410Y-41348D02*
X68420Y-41339D01*
X68429Y-41348D01*
X68420Y-41357D01*
X68410Y-41348D01*
X68429Y-41348D01*
X68232Y-41273D02*
X68232Y-41142D01*
X68429Y-41226D01*
X68429Y-41067D02*
X68232Y-41067D01*
X68429Y-40954D02*
X68317Y-41038D01*
X68232Y-40954D02*
X68345Y-41067D01*
X51979Y-49432D02*
X51979Y-49545D01*
X51979Y-49489D02*
X51782Y-49489D01*
X51810Y-49507D01*
X51829Y-49526D01*
X51839Y-49545D01*
X51960Y-49348D02*
X51970Y-49339D01*
X51979Y-49348D01*
X51970Y-49357D01*
X51960Y-49348D01*
X51979Y-49348D01*
X51867Y-49226D02*
X51857Y-49245D01*
X51848Y-49254D01*
X51829Y-49264D01*
X51820Y-49264D01*
X51801Y-49254D01*
X51792Y-49245D01*
X51782Y-49226D01*
X51782Y-49189D01*
X51792Y-49170D01*
X51801Y-49160D01*
X51820Y-49151D01*
X51829Y-49151D01*
X51848Y-49160D01*
X51857Y-49170D01*
X51867Y-49189D01*
X51867Y-49226D01*
X51876Y-49245D01*
X51885Y-49254D01*
X51904Y-49264D01*
X51942Y-49264D01*
X51960Y-49254D01*
X51970Y-49245D01*
X51979Y-49226D01*
X51979Y-49189D01*
X51970Y-49170D01*
X51960Y-49160D01*
X51942Y-49151D01*
X51904Y-49151D01*
X51885Y-49160D01*
X51876Y-49170D01*
X51867Y-49189D01*
X51979Y-49067D02*
X51782Y-49067D01*
X51979Y-48954D02*
X51867Y-49038D01*
X51782Y-48954D02*
X51895Y-49067D01*
X68598Y-42951D02*
X68729Y-42951D01*
X68523Y-42998D02*
X68664Y-43045D01*
X68664Y-42923D01*
X68710Y-42848D02*
X68720Y-42839D01*
X68729Y-42848D01*
X68720Y-42857D01*
X68710Y-42848D01*
X68729Y-42848D01*
X68532Y-42773D02*
X68532Y-42642D01*
X68729Y-42726D01*
X68729Y-42567D02*
X68532Y-42567D01*
X68729Y-42454D02*
X68617Y-42538D01*
X68532Y-42454D02*
X68645Y-42567D01*
G54D17*
X47210Y-50641D02*
X47210Y-50841D01*
X47210Y-50741D02*
X46810Y-50741D01*
X46868Y-50775D01*
X46906Y-50808D01*
X46925Y-50841D01*
X46810Y-50425D02*
X46810Y-50391D01*
X46829Y-50358D01*
X46849Y-50341D01*
X46887Y-50325D01*
X46963Y-50308D01*
X47058Y-50308D01*
X47134Y-50325D01*
X47172Y-50341D01*
X47191Y-50358D01*
X47210Y-50391D01*
X47210Y-50425D01*
X47191Y-50458D01*
X47172Y-50475D01*
X47134Y-50491D01*
X47058Y-50508D01*
X46963Y-50508D01*
X46887Y-50491D01*
X46849Y-50475D01*
X46829Y-50458D01*
X46810Y-50425D01*
X46810Y-50091D02*
X46810Y-50058D01*
X46829Y-50025D01*
X46849Y-50008D01*
X46887Y-49991D01*
X46963Y-49975D01*
X47058Y-49975D01*
X47134Y-49991D01*
X47172Y-50008D01*
X47191Y-50025D01*
X47210Y-50058D01*
X47210Y-50091D01*
X47191Y-50125D01*
X47172Y-50141D01*
X47134Y-50158D01*
X47058Y-50175D01*
X46963Y-50175D01*
X46887Y-50158D01*
X46849Y-50141D01*
X46829Y-50125D01*
X46810Y-50091D01*
X46944Y-49674D02*
X47210Y-49674D01*
X46944Y-49824D02*
X47153Y-49824D01*
X47191Y-49808D01*
X47210Y-49774D01*
X47210Y-49724D01*
X47191Y-49691D01*
X47172Y-49674D01*
X47001Y-49391D02*
X47001Y-49508D01*
X47210Y-49508D02*
X46810Y-49508D01*
X46810Y-49341D01*
X63592Y-52745D02*
X63592Y-53011D01*
X63497Y-52592D02*
X63402Y-52878D01*
X63650Y-52878D01*
X63764Y-52611D02*
X64030Y-52611D01*
X63859Y-53011D01*
X64259Y-52611D02*
X64297Y-52611D01*
X64335Y-52630D01*
X64354Y-52650D01*
X64373Y-52688D01*
X64392Y-52764D01*
X64392Y-52859D01*
X64373Y-52935D01*
X64354Y-52973D01*
X64335Y-52992D01*
X64297Y-53011D01*
X64259Y-53011D01*
X64221Y-52992D01*
X64202Y-52973D01*
X64183Y-52935D01*
X64164Y-52859D01*
X64164Y-52764D01*
X64183Y-52688D01*
X64202Y-52650D01*
X64221Y-52630D01*
X64259Y-52611D01*
X64735Y-52745D02*
X64735Y-53011D01*
X64564Y-52745D02*
X64564Y-52954D01*
X64583Y-52992D01*
X64621Y-53011D01*
X64678Y-53011D01*
X64716Y-52992D01*
X64735Y-52973D01*
X65059Y-52802D02*
X64926Y-52802D01*
X64926Y-53011D02*
X64926Y-52611D01*
X65116Y-52611D01*
G54D23*
X71148Y-40152D02*
X71157Y-40124D01*
X71157Y-40077D01*
X71148Y-40058D01*
X71138Y-40049D01*
X71120Y-40039D01*
X71101Y-40039D01*
X71082Y-40049D01*
X71073Y-40058D01*
X71063Y-40077D01*
X71054Y-40114D01*
X71045Y-40133D01*
X71035Y-40143D01*
X71017Y-40152D01*
X70998Y-40152D01*
X70979Y-40143D01*
X70970Y-40133D01*
X70960Y-40114D01*
X70960Y-40068D01*
X70970Y-40039D01*
X70960Y-39974D02*
X70960Y-39843D01*
X71157Y-39974D01*
X71157Y-39843D01*
X71157Y-39768D02*
X70960Y-39768D01*
X71101Y-39702D01*
X70960Y-39636D01*
X71157Y-39636D01*
X71157Y-39543D02*
X70960Y-39543D01*
X71101Y-39477D01*
X70960Y-39411D01*
X71157Y-39411D01*
X70960Y-39336D02*
X70960Y-39215D01*
X71035Y-39280D01*
X71035Y-39252D01*
X71045Y-39233D01*
X71054Y-39224D01*
X71073Y-39215D01*
X71120Y-39215D01*
X71138Y-39224D01*
X71148Y-39233D01*
X71157Y-39252D01*
X71157Y-39308D01*
X71148Y-39327D01*
X71138Y-39336D01*
X70960Y-39149D02*
X70960Y-39018D01*
X71157Y-39149D01*
X71157Y-39018D01*
X71026Y-38858D02*
X71157Y-38858D01*
X70951Y-38905D02*
X71092Y-38952D01*
X71092Y-38830D01*
X70960Y-38783D02*
X71157Y-38718D01*
X70960Y-38652D01*
X70960Y-38605D02*
X70960Y-38474D01*
X71157Y-38605D01*
X71157Y-38474D01*
X70960Y-38427D02*
X70960Y-38315D01*
X71157Y-38371D02*
X70960Y-38371D01*
X71157Y-38146D02*
X71157Y-38258D01*
X71157Y-38202D02*
X70960Y-38202D01*
X70988Y-38221D01*
X71007Y-38240D01*
X71017Y-38258D01*
X70970Y-37958D02*
X70960Y-37977D01*
X70960Y-38005D01*
X70970Y-38033D01*
X70988Y-38052D01*
X71007Y-38062D01*
X71045Y-38071D01*
X71073Y-38071D01*
X71110Y-38062D01*
X71129Y-38052D01*
X71148Y-38033D01*
X71157Y-38005D01*
X71157Y-37987D01*
X71148Y-37958D01*
X71138Y-37949D01*
X71073Y-37949D01*
X71073Y-37987D01*
X48430Y-50675D02*
X48439Y-50647D01*
X48439Y-50600D01*
X48430Y-50581D01*
X48420Y-50572D01*
X48402Y-50563D01*
X48383Y-50563D01*
X48364Y-50572D01*
X48355Y-50581D01*
X48345Y-50600D01*
X48336Y-50638D01*
X48327Y-50656D01*
X48317Y-50666D01*
X48299Y-50675D01*
X48280Y-50675D01*
X48261Y-50666D01*
X48252Y-50656D01*
X48242Y-50638D01*
X48242Y-50591D01*
X48252Y-50563D01*
X48439Y-50478D02*
X48242Y-50478D01*
X48439Y-50366D02*
X48327Y-50450D01*
X48242Y-50366D02*
X48355Y-50478D01*
X48242Y-50300D02*
X48242Y-50178D01*
X48317Y-50244D01*
X48317Y-50216D01*
X48327Y-50197D01*
X48336Y-50188D01*
X48355Y-50178D01*
X48402Y-50178D01*
X48420Y-50188D01*
X48430Y-50197D01*
X48439Y-50216D01*
X48439Y-50272D01*
X48430Y-50291D01*
X48420Y-50300D01*
X48439Y-49991D02*
X48439Y-50103D01*
X48439Y-50047D02*
X48242Y-50047D01*
X48270Y-50066D01*
X48289Y-50084D01*
X48299Y-50103D01*
X48242Y-49869D02*
X48242Y-49850D01*
X48252Y-49831D01*
X48261Y-49822D01*
X48280Y-49813D01*
X48317Y-49803D01*
X48364Y-49803D01*
X48402Y-49813D01*
X48420Y-49822D01*
X48430Y-49831D01*
X48439Y-49850D01*
X48439Y-49869D01*
X48430Y-49888D01*
X48420Y-49897D01*
X48402Y-49906D01*
X48364Y-49916D01*
X48317Y-49916D01*
X48280Y-49906D01*
X48261Y-49897D01*
X48252Y-49888D01*
X48242Y-49869D01*
X48383Y-49728D02*
X48383Y-49635D01*
X48439Y-49747D02*
X48242Y-49681D01*
X48439Y-49616D01*
X48364Y-49550D02*
X48364Y-49400D01*
X48242Y-49335D02*
X48242Y-49222D01*
X48439Y-49278D02*
X48242Y-49278D01*
X48439Y-49156D02*
X48242Y-49156D01*
X48242Y-49081D01*
X48252Y-49063D01*
X48261Y-49053D01*
X48280Y-49044D01*
X48308Y-49044D01*
X48327Y-49053D01*
X48336Y-49063D01*
X48345Y-49081D01*
X48345Y-49156D01*
X50140Y-54995D02*
X50149Y-54967D01*
X50149Y-54920D01*
X50140Y-54901D01*
X50130Y-54892D01*
X50112Y-54883D01*
X50093Y-54883D01*
X50074Y-54892D01*
X50065Y-54901D01*
X50055Y-54920D01*
X50046Y-54958D01*
X50037Y-54976D01*
X50027Y-54986D01*
X50009Y-54995D01*
X49990Y-54995D01*
X49971Y-54986D01*
X49962Y-54976D01*
X49952Y-54958D01*
X49952Y-54911D01*
X49962Y-54883D01*
X50149Y-54798D02*
X49952Y-54798D01*
X50149Y-54686D02*
X50037Y-54770D01*
X49952Y-54686D02*
X50065Y-54798D01*
X49952Y-54620D02*
X49952Y-54498D01*
X50027Y-54564D01*
X50027Y-54536D01*
X50037Y-54517D01*
X50046Y-54508D01*
X50065Y-54498D01*
X50112Y-54498D01*
X50130Y-54508D01*
X50140Y-54517D01*
X50149Y-54536D01*
X50149Y-54592D01*
X50140Y-54611D01*
X50130Y-54620D01*
X50149Y-54311D02*
X50149Y-54423D01*
X50149Y-54367D02*
X49952Y-54367D01*
X49980Y-54386D01*
X49999Y-54404D01*
X50009Y-54423D01*
X49952Y-54189D02*
X49952Y-54170D01*
X49962Y-54151D01*
X49971Y-54142D01*
X49990Y-54133D01*
X50027Y-54123D01*
X50074Y-54123D01*
X50112Y-54133D01*
X50130Y-54142D01*
X50140Y-54151D01*
X50149Y-54170D01*
X50149Y-54189D01*
X50140Y-54208D01*
X50130Y-54217D01*
X50112Y-54226D01*
X50074Y-54236D01*
X50027Y-54236D01*
X49990Y-54226D01*
X49971Y-54217D01*
X49962Y-54208D01*
X49952Y-54189D01*
X50093Y-54048D02*
X50093Y-53955D01*
X50149Y-54067D02*
X49952Y-54001D01*
X50149Y-53936D01*
X50074Y-53870D02*
X50074Y-53720D01*
X49952Y-53655D02*
X49952Y-53542D01*
X50149Y-53598D02*
X49952Y-53598D01*
X50149Y-53476D02*
X49952Y-53476D01*
X49952Y-53401D01*
X49962Y-53383D01*
X49971Y-53373D01*
X49990Y-53364D01*
X50018Y-53364D01*
X50037Y-53373D01*
X50046Y-53383D01*
X50055Y-53401D01*
X50055Y-53476D01*
X51404Y-47100D02*
X51433Y-47109D01*
X51442Y-47119D01*
X51451Y-47138D01*
X51451Y-47166D01*
X51442Y-47184D01*
X51433Y-47194D01*
X51414Y-47203D01*
X51339Y-47203D01*
X51339Y-47006D01*
X51404Y-47006D01*
X51423Y-47016D01*
X51433Y-47025D01*
X51442Y-47044D01*
X51442Y-47063D01*
X51433Y-47081D01*
X51423Y-47091D01*
X51404Y-47100D01*
X51339Y-47100D01*
X51526Y-47025D02*
X51536Y-47016D01*
X51554Y-47006D01*
X51601Y-47006D01*
X51620Y-47016D01*
X51629Y-47025D01*
X51639Y-47044D01*
X51639Y-47063D01*
X51629Y-47091D01*
X51517Y-47203D01*
X51639Y-47203D01*
X51807Y-47072D02*
X51807Y-47203D01*
X51761Y-46997D02*
X51714Y-47138D01*
X51836Y-47138D01*
X51948Y-47006D02*
X51967Y-47006D01*
X51986Y-47016D01*
X51995Y-47025D01*
X52004Y-47044D01*
X52014Y-47081D01*
X52014Y-47128D01*
X52004Y-47166D01*
X51995Y-47184D01*
X51986Y-47194D01*
X51967Y-47203D01*
X51948Y-47203D01*
X51929Y-47194D01*
X51920Y-47184D01*
X51911Y-47166D01*
X51901Y-47128D01*
X51901Y-47081D01*
X51911Y-47044D01*
X51920Y-47025D01*
X51929Y-47016D01*
X51948Y-47006D01*
X52089Y-47147D02*
X52182Y-47147D01*
X52070Y-47203D02*
X52136Y-47006D01*
X52201Y-47203D01*
X52267Y-47128D02*
X52417Y-47128D01*
X52614Y-47203D02*
X52501Y-47203D01*
X52557Y-47203D02*
X52557Y-47006D01*
X52539Y-47034D01*
X52520Y-47053D01*
X52501Y-47063D01*
X52679Y-47006D02*
X52801Y-47006D01*
X52736Y-47081D01*
X52764Y-47081D01*
X52782Y-47091D01*
X52792Y-47100D01*
X52801Y-47119D01*
X52801Y-47166D01*
X52792Y-47184D01*
X52782Y-47194D01*
X52764Y-47203D01*
X52707Y-47203D01*
X52689Y-47194D01*
X52679Y-47184D01*
X52885Y-47128D02*
X53035Y-47128D01*
X53195Y-47100D02*
X53129Y-47100D01*
X53129Y-47203D02*
X53129Y-47006D01*
X53223Y-47006D01*
X69419Y-41367D02*
X69307Y-41367D01*
X69363Y-41367D02*
X69363Y-41170D01*
X69344Y-41198D01*
X69325Y-41217D01*
X69307Y-41227D01*
X69504Y-41367D02*
X69504Y-41170D01*
X69616Y-41367D01*
X69616Y-41170D01*
X69794Y-41236D02*
X69794Y-41367D01*
X69747Y-41161D02*
X69700Y-41302D01*
X69822Y-41302D01*
X70000Y-41367D02*
X69888Y-41367D01*
X69944Y-41367D02*
X69944Y-41170D01*
X69925Y-41198D01*
X69907Y-41217D01*
X69888Y-41227D01*
X70169Y-41236D02*
X70169Y-41367D01*
X70122Y-41161D02*
X70075Y-41302D01*
X70197Y-41302D01*
X70300Y-41255D02*
X70282Y-41245D01*
X70272Y-41236D01*
X70263Y-41217D01*
X70263Y-41208D01*
X70272Y-41189D01*
X70282Y-41180D01*
X70300Y-41170D01*
X70338Y-41170D01*
X70357Y-41180D01*
X70366Y-41189D01*
X70375Y-41208D01*
X70375Y-41217D01*
X70366Y-41236D01*
X70357Y-41245D01*
X70338Y-41255D01*
X70300Y-41255D01*
X70282Y-41264D01*
X70272Y-41273D01*
X70263Y-41292D01*
X70263Y-41330D01*
X70272Y-41348D01*
X70282Y-41358D01*
X70300Y-41367D01*
X70338Y-41367D01*
X70357Y-41358D01*
X70366Y-41348D01*
X70375Y-41330D01*
X70375Y-41292D01*
X70366Y-41273D01*
X70357Y-41264D01*
X70338Y-41255D01*
X70441Y-41170D02*
X70488Y-41367D01*
X70525Y-41227D01*
X70563Y-41367D01*
X70610Y-41170D01*
X70657Y-41170D02*
X70769Y-41170D01*
X70713Y-41367D02*
X70713Y-41170D01*
X70149Y-39760D02*
X70149Y-39872D01*
X70149Y-39816D02*
X69952Y-39816D01*
X69980Y-39835D01*
X69999Y-39854D01*
X70009Y-39872D01*
X70149Y-39675D02*
X69952Y-39675D01*
X70149Y-39563D01*
X69952Y-39563D01*
X70018Y-39385D02*
X70149Y-39385D01*
X69943Y-39432D02*
X70084Y-39479D01*
X70084Y-39357D01*
X70149Y-39179D02*
X70149Y-39291D01*
X70149Y-39235D02*
X69952Y-39235D01*
X69980Y-39254D01*
X69999Y-39272D01*
X70009Y-39291D01*
X70018Y-39010D02*
X70149Y-39010D01*
X69943Y-39057D02*
X70084Y-39104D01*
X70084Y-38982D01*
X70037Y-38879D02*
X70027Y-38897D01*
X70018Y-38907D01*
X69999Y-38916D01*
X69990Y-38916D01*
X69971Y-38907D01*
X69962Y-38897D01*
X69952Y-38879D01*
X69952Y-38841D01*
X69962Y-38822D01*
X69971Y-38813D01*
X69990Y-38804D01*
X69999Y-38804D01*
X70018Y-38813D01*
X70027Y-38822D01*
X70037Y-38841D01*
X70037Y-38879D01*
X70046Y-38897D01*
X70055Y-38907D01*
X70074Y-38916D01*
X70112Y-38916D01*
X70130Y-38907D01*
X70140Y-38897D01*
X70149Y-38879D01*
X70149Y-38841D01*
X70140Y-38822D01*
X70130Y-38813D01*
X70112Y-38804D01*
X70074Y-38804D01*
X70055Y-38813D01*
X70046Y-38822D01*
X70037Y-38841D01*
X69952Y-38738D02*
X70149Y-38691D01*
X70009Y-38654D01*
X70149Y-38616D01*
X69952Y-38569D01*
X69952Y-38522D02*
X69952Y-38410D01*
X70149Y-38466D02*
X69952Y-38466D01*
M02*
