G04 (created by PCBNEW (2013-07-07 BZR 4022)-stable) date 04/04/2014 12:21:01*
%MOIN*%
G04 Gerber Fmt 3.4, Leading zero omitted, Abs format*
%FSLAX34Y34*%
G01*
G70*
G90*
G04 APERTURE LIST*
%ADD10C,0.00590551*%
%ADD11C,0.015*%
%ADD12C,0.15*%
%ADD13R,0.15X0.15*%
%ADD14R,0.055X0.055*%
%ADD15C,0.055*%
%ADD16R,0.06X0.06*%
%ADD17C,0.06*%
%ADD18R,0.06X0.08*%
%ADD19R,0.065X0.065*%
%ADD20C,0.065*%
%ADD21C,0.09*%
%ADD22C,0.0393701*%
%ADD23C,0.0511811*%
%ADD24C,0.0393701*%
%ADD25C,0.008*%
%ADD26C,0.01*%
G04 APERTURE END LIST*
G54D10*
G54D11*
X41000Y-56000D02*
G75*
G03X41000Y-56000I0J0D01*
G74*
G01*
X40999Y-56000D02*
X41000Y-56000D01*
X41000Y-55999D02*
X41000Y-56000D01*
X74000Y-56000D02*
G75*
G03X74000Y-56000I0J0D01*
G74*
G01*
X73999Y-56000D02*
X74000Y-56000D01*
X74000Y-55999D02*
X74000Y-56000D01*
X74000Y-32000D02*
G75*
G03X74000Y-32000I0J0D01*
G74*
G01*
X73999Y-32000D02*
X74000Y-32000D01*
X74000Y-31999D02*
X74000Y-32000D01*
X40000Y-32000D02*
G75*
G03X40000Y-32000I0J0D01*
G74*
G01*
X39999Y-32000D02*
X40000Y-32000D01*
X40000Y-31999D02*
X40000Y-32000D01*
X72500Y-33800D02*
X72300Y-33600D01*
X72500Y-34000D02*
X72500Y-33800D01*
X72500Y-45800D02*
X72500Y-34000D01*
X74100Y-45800D02*
X72500Y-45800D01*
X74100Y-54100D02*
X74100Y-45800D01*
X41100Y-44750D02*
X41100Y-44700D01*
X41100Y-53500D02*
X41100Y-44750D01*
X43450Y-55850D02*
X41100Y-53500D01*
X72400Y-55850D02*
X43450Y-55850D01*
X74100Y-54150D02*
X72400Y-55850D01*
X68100Y-33600D02*
X72300Y-33600D01*
X67600Y-34100D02*
X68100Y-33600D01*
X67600Y-41400D02*
X67600Y-34100D01*
X67000Y-42000D02*
X67600Y-41400D01*
X62350Y-42000D02*
X67000Y-42000D01*
X62350Y-42500D02*
X62350Y-42000D01*
X62150Y-42700D02*
X62350Y-42500D01*
X56950Y-42700D02*
X62150Y-42700D01*
X56950Y-44700D02*
X56950Y-42700D01*
X41100Y-44700D02*
X56950Y-44700D01*
G54D12*
X42700Y-48100D03*
X42700Y-50100D03*
G54D13*
X42700Y-46100D03*
G54D12*
X42700Y-52100D03*
G54D14*
X71750Y-36750D03*
G54D15*
X71750Y-37750D03*
X71750Y-38750D03*
G54D14*
X63250Y-51000D03*
G54D15*
X64250Y-51000D03*
X65250Y-51000D03*
G54D14*
X63250Y-50000D03*
G54D15*
X64250Y-50000D03*
X65250Y-50000D03*
G54D14*
X63250Y-49000D03*
G54D15*
X64250Y-49000D03*
X65250Y-49000D03*
G54D14*
X63250Y-46000D03*
G54D15*
X64250Y-46000D03*
X65250Y-46000D03*
G54D14*
X63250Y-47000D03*
G54D15*
X64250Y-47000D03*
X65250Y-47000D03*
G54D14*
X63250Y-48000D03*
G54D15*
X64250Y-48000D03*
X65250Y-48000D03*
G54D14*
X70500Y-37000D03*
G54D15*
X69500Y-37000D03*
X68500Y-37000D03*
G54D14*
X67000Y-42700D03*
G54D15*
X66000Y-42700D03*
X65000Y-42700D03*
X64000Y-42700D03*
X63000Y-42700D03*
G54D14*
X67000Y-43700D03*
G54D15*
X66000Y-43700D03*
X65000Y-43700D03*
X64000Y-43700D03*
X63000Y-43700D03*
G54D14*
X60500Y-54750D03*
G54D15*
X59500Y-54750D03*
X58500Y-54750D03*
X57500Y-54750D03*
G54D14*
X71500Y-54750D03*
G54D15*
X70500Y-54750D03*
X69500Y-54750D03*
X68500Y-54750D03*
G54D16*
X68660Y-35390D03*
G54D17*
X68660Y-34390D03*
X69660Y-35390D03*
X69660Y-34390D03*
X70660Y-35390D03*
X70660Y-34390D03*
X71660Y-35390D03*
X71660Y-34390D03*
G54D16*
X55000Y-51500D03*
G54D17*
X56000Y-51500D03*
X57000Y-51500D03*
X58000Y-51500D03*
X59000Y-51500D03*
X60000Y-51500D03*
G54D16*
X61000Y-51500D03*
G54D17*
X62000Y-51500D03*
X62000Y-46500D03*
X61000Y-46500D03*
X60000Y-46500D03*
X59000Y-46500D03*
X58000Y-46500D03*
X57000Y-46500D03*
X56000Y-46500D03*
X55000Y-46500D03*
G54D16*
X66500Y-51500D03*
G54D17*
X67500Y-51500D03*
X68500Y-51500D03*
X69500Y-51500D03*
X70500Y-51500D03*
X71500Y-51500D03*
G54D16*
X72500Y-51500D03*
G54D17*
X73500Y-51500D03*
X73500Y-46500D03*
X72500Y-46500D03*
X71500Y-46500D03*
X70500Y-46500D03*
X69500Y-46500D03*
X68500Y-46500D03*
X67500Y-46500D03*
X66500Y-46500D03*
G54D14*
X71500Y-43250D03*
G54D15*
X71500Y-42250D03*
G54D18*
X64650Y-52250D03*
X63350Y-52250D03*
G54D19*
X46350Y-49600D03*
G54D20*
X46350Y-50600D03*
G54D14*
X63500Y-53750D03*
G54D15*
X65000Y-53750D03*
G54D21*
X51300Y-45800D03*
X53300Y-45800D03*
G54D14*
X57600Y-43400D03*
G54D15*
X58600Y-43400D03*
X59600Y-43400D03*
X60600Y-43400D03*
X61600Y-43400D03*
G54D22*
X50500Y-54250D03*
G54D23*
X64350Y-44410D03*
X65520Y-44275D03*
X54010Y-50580D03*
X69242Y-39020D03*
X68509Y-44338D03*
X66940Y-45590D03*
X68162Y-37589D03*
X68852Y-43771D03*
X58550Y-44424D03*
X58210Y-45576D03*
G54D24*
X61750Y-55500D02*
X63500Y-53750D01*
X51750Y-55500D02*
X61750Y-55500D01*
X50500Y-54250D02*
X51750Y-55500D01*
G54D25*
X63000Y-42700D02*
X63000Y-42735D01*
X55517Y-45983D02*
X55000Y-46500D01*
X58590Y-45983D02*
X55517Y-45983D01*
X59045Y-45528D02*
X58590Y-45983D01*
X60207Y-45528D02*
X59045Y-45528D01*
X63000Y-42735D02*
X60207Y-45528D01*
X56000Y-46500D02*
X56000Y-46592D01*
X63496Y-43204D02*
X64000Y-42700D01*
X62790Y-43204D02*
X63496Y-43204D01*
X62482Y-43512D02*
X62790Y-43204D01*
X62482Y-43554D02*
X62482Y-43512D01*
X60312Y-45724D02*
X62482Y-43554D01*
X59129Y-45724D02*
X60312Y-45724D01*
X58555Y-46298D02*
X59129Y-45724D01*
X58555Y-46571D02*
X58555Y-46298D01*
X58142Y-46984D02*
X58555Y-46571D01*
X56392Y-46984D02*
X58142Y-46984D01*
X56000Y-46592D02*
X56392Y-46984D01*
X66440Y-46500D02*
X66500Y-46500D01*
X64350Y-44410D02*
X66440Y-46500D01*
X67283Y-46500D02*
X67500Y-46500D01*
X66304Y-45521D02*
X67283Y-46500D01*
X66304Y-45059D02*
X66304Y-45521D01*
X65520Y-44275D02*
X66304Y-45059D01*
X60040Y-43960D02*
X60600Y-43400D01*
X58040Y-43960D02*
X60040Y-43960D01*
X57090Y-44910D02*
X58040Y-43960D01*
X55140Y-44910D02*
X57090Y-44910D01*
X54140Y-45910D02*
X55140Y-44910D01*
X54140Y-50450D02*
X54140Y-45910D01*
X54010Y-50580D02*
X54140Y-50450D01*
X69500Y-38762D02*
X69500Y-37000D01*
X69242Y-39020D02*
X69500Y-38762D01*
X65000Y-42700D02*
X65000Y-42891D01*
X63476Y-45024D02*
X62000Y-46500D01*
X63476Y-43484D02*
X63476Y-45024D01*
X63756Y-43204D02*
X63476Y-43484D01*
X64687Y-43204D02*
X63756Y-43204D01*
X65000Y-42891D02*
X64687Y-43204D01*
X72948Y-45948D02*
X73500Y-46500D01*
X70119Y-45948D02*
X72948Y-45948D01*
X68509Y-44338D02*
X70119Y-45948D01*
X66000Y-43700D02*
X66000Y-42700D01*
X66500Y-44200D02*
X66000Y-43700D01*
X66500Y-45150D02*
X66500Y-44200D01*
X66940Y-45590D02*
X66500Y-45150D01*
X71700Y-35100D02*
X71200Y-34600D01*
X71200Y-34600D02*
X71200Y-34100D01*
X71200Y-34100D02*
X71000Y-33900D01*
X71000Y-33900D02*
X68300Y-33900D01*
X68300Y-33900D02*
X68100Y-34100D01*
X68100Y-34100D02*
X68100Y-36400D01*
X71700Y-35100D02*
X71700Y-35400D01*
X68100Y-36386D02*
X68100Y-36400D01*
X68009Y-36477D02*
X68100Y-36386D01*
X68009Y-37436D02*
X68009Y-36477D01*
X68162Y-37589D02*
X68009Y-37436D01*
X66500Y-51500D02*
X67000Y-51000D01*
X72000Y-51000D02*
X72500Y-51500D01*
X67000Y-51000D02*
X72000Y-51000D01*
X55000Y-51500D02*
X55500Y-51000D01*
X60500Y-51000D02*
X61000Y-51500D01*
X55500Y-51000D02*
X60500Y-51000D01*
X63250Y-50000D02*
X63250Y-49000D01*
X63250Y-51000D02*
X63250Y-50000D01*
X63350Y-52250D02*
X63350Y-51100D01*
X63350Y-51100D02*
X63250Y-51000D01*
X70700Y-35400D02*
X70700Y-36800D01*
X70700Y-36800D02*
X70500Y-37000D01*
X64250Y-46000D02*
X64250Y-46250D01*
X61500Y-47000D02*
X61000Y-46500D01*
X62250Y-47000D02*
X61500Y-47000D01*
X62750Y-46500D02*
X62250Y-47000D01*
X64000Y-46500D02*
X62750Y-46500D01*
X64250Y-46250D02*
X64000Y-46500D01*
X68250Y-49500D02*
X68500Y-49500D01*
X64250Y-49700D02*
X64450Y-49500D01*
X64450Y-49500D02*
X68250Y-49500D01*
X71500Y-46500D02*
X68500Y-49500D01*
X64250Y-49700D02*
X64250Y-50000D01*
X68250Y-50500D02*
X68500Y-50500D01*
X64250Y-50850D02*
X64600Y-50500D01*
X64600Y-50500D02*
X68250Y-50500D01*
X72500Y-46500D02*
X68500Y-50500D01*
X64250Y-50850D02*
X64250Y-51000D01*
X64250Y-48000D02*
X63750Y-48500D01*
X59000Y-47000D02*
X59000Y-46500D01*
X60500Y-48500D02*
X59000Y-47000D01*
X63250Y-48500D02*
X60500Y-48500D01*
X63750Y-48500D02*
X63250Y-48500D01*
X60000Y-46500D02*
X61000Y-47500D01*
X63750Y-47500D02*
X64250Y-47000D01*
X61000Y-47500D02*
X63750Y-47500D01*
X68250Y-48500D02*
X68500Y-48500D01*
X64250Y-48950D02*
X64700Y-48500D01*
X64700Y-48500D02*
X68250Y-48500D01*
X70500Y-46500D02*
X68500Y-48500D01*
X64250Y-48950D02*
X64250Y-49000D01*
X70700Y-34400D02*
X71200Y-34900D01*
X71200Y-38200D02*
X71750Y-38750D01*
X71200Y-36000D02*
X71200Y-38200D01*
X71200Y-34900D02*
X71200Y-36000D01*
X67000Y-43700D02*
X67000Y-42700D01*
X67000Y-43700D02*
X68781Y-43700D01*
X68781Y-43700D02*
X68852Y-43771D01*
X68852Y-43771D02*
X72317Y-40306D01*
X72317Y-35017D02*
X71700Y-34400D01*
X72317Y-40306D02*
X72317Y-35017D01*
X58550Y-45236D02*
X58550Y-44424D01*
X58210Y-45576D02*
X58550Y-45236D01*
X71700Y-34400D02*
X71700Y-33800D01*
X71700Y-33800D02*
X71600Y-33700D01*
X71600Y-33700D02*
X68100Y-33700D01*
X68100Y-33700D02*
X67750Y-34050D01*
X67750Y-34050D02*
X67750Y-34250D01*
X67300Y-43700D02*
X67000Y-43700D01*
X67750Y-43250D02*
X67750Y-34250D01*
X67300Y-43700D02*
X67750Y-43250D01*
X56000Y-51500D02*
X56000Y-52000D01*
X63900Y-53000D02*
X64650Y-52250D01*
X57000Y-53000D02*
X63900Y-53000D01*
X56000Y-52000D02*
X57000Y-53000D01*
X68500Y-46500D02*
X68500Y-45200D01*
X68500Y-45200D02*
X67000Y-43700D01*
X64650Y-52250D02*
X67000Y-52250D01*
X67000Y-52250D02*
X67500Y-51750D01*
X67500Y-51750D02*
X67500Y-51500D01*
G54D10*
G36*
X57688Y-43901D02*
X57275Y-44314D01*
X57275Y-43924D01*
X57275Y-43925D01*
X57487Y-43925D01*
X57550Y-43862D01*
X57550Y-43450D01*
X57542Y-43450D01*
X57542Y-43350D01*
X57550Y-43350D01*
X57550Y-43342D01*
X57650Y-43342D01*
X57650Y-43350D01*
X57657Y-43350D01*
X57657Y-43450D01*
X57650Y-43450D01*
X57650Y-43862D01*
X57688Y-43901D01*
X57688Y-43901D01*
G37*
G54D26*
X57688Y-43901D02*
X57275Y-44314D01*
X57275Y-43924D01*
X57275Y-43925D01*
X57487Y-43925D01*
X57550Y-43862D01*
X57550Y-43450D01*
X57542Y-43450D01*
X57542Y-43350D01*
X57550Y-43350D01*
X57550Y-43342D01*
X57650Y-43342D01*
X57650Y-43350D01*
X57657Y-43350D01*
X57657Y-43450D01*
X57650Y-43450D01*
X57650Y-43862D01*
X57688Y-43901D01*
G54D10*
G36*
X59676Y-43405D02*
X59605Y-43476D01*
X59600Y-43470D01*
X59594Y-43476D01*
X59523Y-43405D01*
X59529Y-43400D01*
X59523Y-43394D01*
X59594Y-43323D01*
X59600Y-43329D01*
X59605Y-43323D01*
X59676Y-43394D01*
X59670Y-43400D01*
X59676Y-43405D01*
X59676Y-43405D01*
G37*
G54D26*
X59676Y-43405D02*
X59605Y-43476D01*
X59600Y-43470D01*
X59594Y-43476D01*
X59523Y-43405D01*
X59529Y-43400D01*
X59523Y-43394D01*
X59594Y-43323D01*
X59600Y-43329D01*
X59605Y-43323D01*
X59676Y-43394D01*
X59670Y-43400D01*
X59676Y-43405D01*
G54D10*
G36*
X61676Y-43405D02*
X61605Y-43476D01*
X61600Y-43470D01*
X61302Y-43767D01*
X61327Y-43860D01*
X61428Y-43896D01*
X60086Y-45238D01*
X59045Y-45238D01*
X58934Y-45260D01*
X58839Y-45322D01*
X58839Y-45322D01*
X58818Y-45344D01*
X58840Y-45236D01*
X58839Y-45236D01*
X58840Y-45236D01*
X58840Y-44849D01*
X58978Y-44710D01*
X59055Y-44525D01*
X59055Y-44323D01*
X59025Y-44250D01*
X60040Y-44250D01*
X60150Y-44227D01*
X60245Y-44165D01*
X60488Y-43922D01*
X60495Y-43924D01*
X60703Y-43925D01*
X60897Y-43845D01*
X61044Y-43697D01*
X61097Y-43571D01*
X61139Y-43672D01*
X61232Y-43697D01*
X61529Y-43400D01*
X61523Y-43394D01*
X61594Y-43323D01*
X61600Y-43329D01*
X61605Y-43323D01*
X61676Y-43394D01*
X61670Y-43400D01*
X61676Y-43405D01*
X61676Y-43405D01*
G37*
G54D26*
X61676Y-43405D02*
X61605Y-43476D01*
X61600Y-43470D01*
X61302Y-43767D01*
X61327Y-43860D01*
X61428Y-43896D01*
X60086Y-45238D01*
X59045Y-45238D01*
X58934Y-45260D01*
X58839Y-45322D01*
X58839Y-45322D01*
X58818Y-45344D01*
X58840Y-45236D01*
X58839Y-45236D01*
X58840Y-45236D01*
X58840Y-44849D01*
X58978Y-44710D01*
X59055Y-44525D01*
X59055Y-44323D01*
X59025Y-44250D01*
X60040Y-44250D01*
X60150Y-44227D01*
X60245Y-44165D01*
X60488Y-43922D01*
X60495Y-43924D01*
X60703Y-43925D01*
X60897Y-43845D01*
X61044Y-43697D01*
X61097Y-43571D01*
X61139Y-43672D01*
X61232Y-43697D01*
X61529Y-43400D01*
X61523Y-43394D01*
X61594Y-43323D01*
X61600Y-43329D01*
X61605Y-43323D01*
X61676Y-43394D01*
X61670Y-43400D01*
X61676Y-43405D01*
G54D10*
G36*
X63060Y-51599D02*
X63000Y-51599D01*
X62908Y-51637D01*
X62838Y-51708D01*
X62800Y-51800D01*
X62799Y-51899D01*
X62799Y-52699D01*
X62804Y-52710D01*
X62550Y-52710D01*
X62550Y-51391D01*
X62466Y-51188D01*
X62311Y-51034D01*
X62109Y-50950D01*
X61891Y-50949D01*
X61688Y-51033D01*
X61549Y-51172D01*
X61549Y-51150D01*
X61511Y-51058D01*
X61441Y-50987D01*
X61349Y-50949D01*
X61112Y-50950D01*
X61050Y-51012D01*
X61050Y-51450D01*
X61057Y-51450D01*
X61057Y-51550D01*
X61050Y-51550D01*
X61050Y-51987D01*
X61112Y-52050D01*
X61349Y-52050D01*
X61441Y-52012D01*
X61511Y-51941D01*
X61549Y-51849D01*
X61549Y-51827D01*
X61688Y-51965D01*
X61890Y-52049D01*
X62108Y-52050D01*
X62311Y-51966D01*
X62465Y-51811D01*
X62549Y-51609D01*
X62550Y-51391D01*
X62550Y-52710D01*
X57120Y-52710D01*
X56343Y-51933D01*
X56465Y-51811D01*
X56499Y-51730D01*
X56533Y-51811D01*
X56688Y-51965D01*
X56890Y-52049D01*
X57108Y-52050D01*
X57311Y-51966D01*
X57465Y-51811D01*
X57499Y-51730D01*
X57533Y-51811D01*
X57688Y-51965D01*
X57890Y-52049D01*
X58108Y-52050D01*
X58311Y-51966D01*
X58465Y-51811D01*
X58499Y-51730D01*
X58533Y-51811D01*
X58688Y-51965D01*
X58890Y-52049D01*
X59108Y-52050D01*
X59311Y-51966D01*
X59465Y-51811D01*
X59499Y-51730D01*
X59533Y-51811D01*
X59688Y-51965D01*
X59890Y-52049D01*
X60108Y-52050D01*
X60311Y-51966D01*
X60450Y-51827D01*
X60450Y-51849D01*
X60488Y-51941D01*
X60558Y-52012D01*
X60650Y-52050D01*
X60887Y-52050D01*
X60950Y-51987D01*
X60950Y-51550D01*
X60942Y-51550D01*
X60942Y-51450D01*
X60950Y-51450D01*
X60950Y-51012D01*
X60887Y-50950D01*
X60650Y-50949D01*
X60558Y-50987D01*
X60488Y-51058D01*
X60450Y-51150D01*
X60450Y-51172D01*
X60311Y-51034D01*
X60109Y-50950D01*
X59891Y-50949D01*
X59688Y-51033D01*
X59534Y-51188D01*
X59500Y-51269D01*
X59466Y-51188D01*
X59311Y-51034D01*
X59109Y-50950D01*
X58891Y-50949D01*
X58688Y-51033D01*
X58534Y-51188D01*
X58500Y-51269D01*
X58466Y-51188D01*
X58311Y-51034D01*
X58109Y-50950D01*
X57891Y-50949D01*
X57688Y-51033D01*
X57534Y-51188D01*
X57500Y-51269D01*
X57466Y-51188D01*
X57311Y-51034D01*
X57109Y-50950D01*
X56891Y-50949D01*
X56688Y-51033D01*
X56534Y-51188D01*
X56500Y-51269D01*
X56466Y-51188D01*
X56311Y-51034D01*
X56109Y-50950D01*
X55891Y-50949D01*
X55688Y-51033D01*
X55549Y-51172D01*
X55549Y-51150D01*
X55511Y-51058D01*
X55441Y-50987D01*
X55349Y-50949D01*
X55112Y-50950D01*
X55050Y-51012D01*
X55050Y-51450D01*
X55057Y-51450D01*
X55057Y-51550D01*
X55050Y-51550D01*
X55050Y-51987D01*
X55112Y-52050D01*
X55349Y-52050D01*
X55441Y-52012D01*
X55511Y-51941D01*
X55549Y-51849D01*
X55549Y-51827D01*
X55688Y-51965D01*
X55710Y-51975D01*
X55710Y-52000D01*
X55732Y-52110D01*
X55794Y-52205D01*
X56794Y-53205D01*
X56889Y-53267D01*
X57000Y-53290D01*
X63056Y-53290D01*
X63013Y-53333D01*
X62975Y-53425D01*
X62974Y-53524D01*
X62974Y-53643D01*
X61564Y-55053D01*
X61024Y-55053D01*
X61025Y-54975D01*
X61025Y-54425D01*
X60987Y-54333D01*
X60916Y-54263D01*
X60824Y-54225D01*
X60725Y-54224D01*
X60175Y-54224D01*
X60083Y-54262D01*
X60013Y-54333D01*
X59975Y-54425D01*
X59974Y-54524D01*
X59974Y-54524D01*
X59945Y-54453D01*
X59797Y-54305D01*
X59604Y-54225D01*
X59396Y-54224D01*
X59203Y-54304D01*
X59055Y-54452D01*
X58999Y-54585D01*
X58945Y-54453D01*
X58797Y-54305D01*
X58604Y-54225D01*
X58396Y-54224D01*
X58203Y-54304D01*
X58055Y-54452D01*
X57999Y-54585D01*
X57945Y-54453D01*
X57797Y-54305D01*
X57604Y-54225D01*
X57396Y-54224D01*
X57203Y-54304D01*
X57055Y-54452D01*
X56975Y-54645D01*
X56974Y-54853D01*
X57054Y-55047D01*
X57060Y-55053D01*
X54950Y-55053D01*
X54950Y-51987D01*
X54950Y-51550D01*
X54950Y-51450D01*
X54950Y-51012D01*
X54887Y-50950D01*
X54650Y-50949D01*
X54558Y-50987D01*
X54488Y-51058D01*
X54450Y-51150D01*
X54449Y-51249D01*
X54450Y-51387D01*
X54512Y-51450D01*
X54950Y-51450D01*
X54950Y-51550D01*
X54512Y-51550D01*
X54450Y-51612D01*
X54449Y-51750D01*
X54450Y-51849D01*
X54488Y-51941D01*
X54558Y-52012D01*
X54650Y-52050D01*
X54887Y-52050D01*
X54950Y-51987D01*
X54950Y-55053D01*
X52000Y-55053D01*
X52000Y-45661D01*
X51893Y-45404D01*
X51697Y-45206D01*
X51439Y-45100D01*
X51161Y-45099D01*
X50904Y-45206D01*
X50706Y-45402D01*
X50600Y-45660D01*
X50599Y-45938D01*
X50706Y-46196D01*
X50902Y-46393D01*
X51160Y-46499D01*
X51438Y-46500D01*
X51696Y-46393D01*
X51893Y-46197D01*
X51999Y-45939D01*
X52000Y-45661D01*
X52000Y-55053D01*
X51935Y-55053D01*
X50816Y-53934D01*
X50815Y-53934D01*
X50753Y-53871D01*
X50589Y-53803D01*
X50411Y-53803D01*
X50247Y-53870D01*
X50121Y-53996D01*
X50053Y-54160D01*
X50053Y-54338D01*
X50120Y-54502D01*
X50184Y-54565D01*
X50246Y-54628D01*
X50246Y-54628D01*
X51143Y-55525D01*
X46929Y-55525D01*
X46929Y-50687D01*
X46925Y-50587D01*
X46925Y-49875D01*
X46925Y-49225D01*
X46887Y-49133D01*
X46816Y-49063D01*
X46724Y-49025D01*
X46625Y-49024D01*
X45975Y-49024D01*
X45883Y-49062D01*
X45813Y-49133D01*
X45775Y-49225D01*
X45774Y-49324D01*
X45774Y-49974D01*
X45812Y-50066D01*
X45883Y-50136D01*
X45975Y-50174D01*
X46023Y-50174D01*
X46016Y-50195D01*
X46350Y-50529D01*
X46683Y-50195D01*
X46676Y-50175D01*
X46724Y-50175D01*
X46816Y-50137D01*
X46886Y-50066D01*
X46924Y-49974D01*
X46925Y-49875D01*
X46925Y-50587D01*
X46919Y-50459D01*
X46851Y-50297D01*
X46754Y-50266D01*
X46420Y-50600D01*
X46754Y-50933D01*
X46851Y-50902D01*
X46929Y-50687D01*
X46929Y-55525D01*
X46683Y-55525D01*
X46683Y-51004D01*
X46350Y-50670D01*
X46279Y-50741D01*
X46279Y-50600D01*
X45945Y-50266D01*
X45848Y-50297D01*
X45770Y-50512D01*
X45780Y-50740D01*
X45848Y-50902D01*
X45945Y-50933D01*
X46279Y-50600D01*
X46279Y-50741D01*
X46016Y-51004D01*
X46047Y-51101D01*
X46262Y-51179D01*
X46490Y-51169D01*
X46652Y-51101D01*
X46683Y-51004D01*
X46683Y-55525D01*
X43701Y-55525D01*
X43701Y-50289D01*
X43700Y-50112D01*
X43700Y-47901D01*
X43700Y-47901D01*
X43548Y-47534D01*
X43267Y-47252D01*
X42899Y-47100D01*
X42700Y-47100D01*
X42750Y-47100D01*
X42750Y-47037D01*
X42812Y-47100D01*
X43400Y-47100D01*
X43499Y-47099D01*
X43591Y-47061D01*
X43662Y-46991D01*
X43700Y-46899D01*
X43700Y-45300D01*
X43662Y-45208D01*
X43591Y-45138D01*
X43499Y-45100D01*
X43400Y-45099D01*
X42812Y-45100D01*
X42750Y-45162D01*
X42750Y-46050D01*
X43637Y-46050D01*
X43700Y-45987D01*
X43700Y-45300D01*
X43700Y-46899D01*
X43700Y-46212D01*
X43637Y-46150D01*
X42750Y-46150D01*
X42750Y-46157D01*
X42650Y-46157D01*
X42650Y-46150D01*
X42650Y-46050D01*
X42650Y-45162D01*
X42587Y-45100D01*
X41999Y-45099D01*
X41900Y-45100D01*
X41808Y-45138D01*
X41737Y-45208D01*
X41699Y-45300D01*
X41700Y-45987D01*
X41762Y-46050D01*
X42650Y-46050D01*
X42650Y-46150D01*
X41762Y-46150D01*
X41700Y-46212D01*
X41699Y-46899D01*
X41737Y-46991D01*
X41808Y-47061D01*
X41900Y-47099D01*
X41999Y-47100D01*
X42501Y-47100D01*
X42134Y-47251D01*
X41852Y-47532D01*
X41700Y-47900D01*
X41699Y-48298D01*
X41851Y-48665D01*
X42132Y-48947D01*
X42500Y-49099D01*
X42695Y-49099D01*
X42491Y-49101D01*
X42141Y-49246D01*
X42059Y-49388D01*
X42700Y-50029D01*
X43340Y-49388D01*
X43258Y-49246D01*
X42894Y-49100D01*
X42898Y-49100D01*
X43265Y-48948D01*
X43547Y-48667D01*
X43699Y-48299D01*
X43700Y-47901D01*
X43700Y-50112D01*
X43698Y-49891D01*
X43553Y-49541D01*
X43411Y-49459D01*
X42770Y-50100D01*
X43411Y-50740D01*
X43553Y-50658D01*
X43701Y-50289D01*
X43701Y-55525D01*
X43700Y-55525D01*
X43700Y-51901D01*
X43548Y-51534D01*
X43267Y-51252D01*
X42899Y-51100D01*
X42704Y-51100D01*
X42908Y-51098D01*
X43258Y-50953D01*
X43340Y-50811D01*
X42700Y-50170D01*
X42629Y-50241D01*
X42629Y-50100D01*
X41988Y-49459D01*
X41846Y-49541D01*
X41698Y-49910D01*
X41701Y-50308D01*
X41846Y-50658D01*
X41988Y-50740D01*
X42629Y-50100D01*
X42629Y-50241D01*
X42059Y-50811D01*
X42141Y-50953D01*
X42505Y-51099D01*
X42501Y-51099D01*
X42134Y-51251D01*
X41852Y-51532D01*
X41700Y-51900D01*
X41699Y-52298D01*
X41851Y-52665D01*
X42132Y-52947D01*
X42500Y-53099D01*
X42898Y-53100D01*
X43265Y-52948D01*
X43547Y-52667D01*
X43699Y-52299D01*
X43700Y-51901D01*
X43700Y-55525D01*
X43584Y-55525D01*
X41425Y-53365D01*
X41425Y-45025D01*
X54614Y-45025D01*
X53993Y-45646D01*
X53893Y-45404D01*
X53697Y-45206D01*
X53439Y-45100D01*
X53161Y-45099D01*
X52904Y-45206D01*
X52706Y-45402D01*
X52600Y-45660D01*
X52599Y-45938D01*
X52706Y-46196D01*
X52902Y-46393D01*
X53160Y-46499D01*
X53438Y-46500D01*
X53696Y-46393D01*
X53850Y-46240D01*
X53850Y-50098D01*
X53723Y-50150D01*
X53581Y-50293D01*
X53504Y-50478D01*
X53504Y-50680D01*
X53580Y-50866D01*
X53723Y-51008D01*
X53908Y-51085D01*
X54110Y-51085D01*
X54296Y-51009D01*
X54438Y-50866D01*
X54515Y-50681D01*
X54515Y-50479D01*
X54439Y-50293D01*
X54430Y-50284D01*
X54430Y-46030D01*
X55260Y-45200D01*
X57090Y-45200D01*
X57200Y-45177D01*
X57295Y-45115D01*
X58044Y-44365D01*
X58044Y-44524D01*
X58120Y-44710D01*
X58260Y-44849D01*
X58260Y-45070D01*
X58109Y-45070D01*
X57923Y-45146D01*
X57781Y-45289D01*
X57704Y-45474D01*
X57704Y-45676D01*
X57710Y-45693D01*
X55517Y-45693D01*
X55516Y-45693D01*
X55498Y-45696D01*
X55406Y-45715D01*
X55311Y-45777D01*
X55311Y-45777D01*
X55311Y-45777D01*
X55131Y-45958D01*
X55109Y-45950D01*
X54891Y-45949D01*
X54688Y-46033D01*
X54534Y-46188D01*
X54450Y-46390D01*
X54449Y-46608D01*
X54533Y-46811D01*
X54688Y-46965D01*
X54890Y-47049D01*
X55108Y-47050D01*
X55311Y-46966D01*
X55465Y-46811D01*
X55499Y-46730D01*
X55533Y-46811D01*
X55688Y-46965D01*
X55890Y-47049D01*
X56047Y-47050D01*
X56186Y-47189D01*
X56281Y-47251D01*
X56392Y-47274D01*
X58142Y-47274D01*
X58252Y-47251D01*
X58347Y-47189D01*
X58629Y-46906D01*
X58688Y-46965D01*
X58710Y-46975D01*
X58710Y-47000D01*
X58732Y-47110D01*
X58794Y-47205D01*
X60294Y-48705D01*
X60294Y-48705D01*
X60389Y-48767D01*
X60500Y-48790D01*
X62724Y-48790D01*
X62724Y-49324D01*
X62762Y-49416D01*
X62833Y-49486D01*
X62864Y-49499D01*
X62833Y-49512D01*
X62763Y-49583D01*
X62725Y-49675D01*
X62724Y-49774D01*
X62724Y-50324D01*
X62762Y-50416D01*
X62833Y-50486D01*
X62864Y-50499D01*
X62833Y-50512D01*
X62763Y-50583D01*
X62725Y-50675D01*
X62724Y-50774D01*
X62724Y-51324D01*
X62762Y-51416D01*
X62833Y-51486D01*
X62925Y-51524D01*
X63024Y-51525D01*
X63060Y-51525D01*
X63060Y-51599D01*
X63060Y-51599D01*
G37*
G54D26*
X63060Y-51599D02*
X63000Y-51599D01*
X62908Y-51637D01*
X62838Y-51708D01*
X62800Y-51800D01*
X62799Y-51899D01*
X62799Y-52699D01*
X62804Y-52710D01*
X62550Y-52710D01*
X62550Y-51391D01*
X62466Y-51188D01*
X62311Y-51034D01*
X62109Y-50950D01*
X61891Y-50949D01*
X61688Y-51033D01*
X61549Y-51172D01*
X61549Y-51150D01*
X61511Y-51058D01*
X61441Y-50987D01*
X61349Y-50949D01*
X61112Y-50950D01*
X61050Y-51012D01*
X61050Y-51450D01*
X61057Y-51450D01*
X61057Y-51550D01*
X61050Y-51550D01*
X61050Y-51987D01*
X61112Y-52050D01*
X61349Y-52050D01*
X61441Y-52012D01*
X61511Y-51941D01*
X61549Y-51849D01*
X61549Y-51827D01*
X61688Y-51965D01*
X61890Y-52049D01*
X62108Y-52050D01*
X62311Y-51966D01*
X62465Y-51811D01*
X62549Y-51609D01*
X62550Y-51391D01*
X62550Y-52710D01*
X57120Y-52710D01*
X56343Y-51933D01*
X56465Y-51811D01*
X56499Y-51730D01*
X56533Y-51811D01*
X56688Y-51965D01*
X56890Y-52049D01*
X57108Y-52050D01*
X57311Y-51966D01*
X57465Y-51811D01*
X57499Y-51730D01*
X57533Y-51811D01*
X57688Y-51965D01*
X57890Y-52049D01*
X58108Y-52050D01*
X58311Y-51966D01*
X58465Y-51811D01*
X58499Y-51730D01*
X58533Y-51811D01*
X58688Y-51965D01*
X58890Y-52049D01*
X59108Y-52050D01*
X59311Y-51966D01*
X59465Y-51811D01*
X59499Y-51730D01*
X59533Y-51811D01*
X59688Y-51965D01*
X59890Y-52049D01*
X60108Y-52050D01*
X60311Y-51966D01*
X60450Y-51827D01*
X60450Y-51849D01*
X60488Y-51941D01*
X60558Y-52012D01*
X60650Y-52050D01*
X60887Y-52050D01*
X60950Y-51987D01*
X60950Y-51550D01*
X60942Y-51550D01*
X60942Y-51450D01*
X60950Y-51450D01*
X60950Y-51012D01*
X60887Y-50950D01*
X60650Y-50949D01*
X60558Y-50987D01*
X60488Y-51058D01*
X60450Y-51150D01*
X60450Y-51172D01*
X60311Y-51034D01*
X60109Y-50950D01*
X59891Y-50949D01*
X59688Y-51033D01*
X59534Y-51188D01*
X59500Y-51269D01*
X59466Y-51188D01*
X59311Y-51034D01*
X59109Y-50950D01*
X58891Y-50949D01*
X58688Y-51033D01*
X58534Y-51188D01*
X58500Y-51269D01*
X58466Y-51188D01*
X58311Y-51034D01*
X58109Y-50950D01*
X57891Y-50949D01*
X57688Y-51033D01*
X57534Y-51188D01*
X57500Y-51269D01*
X57466Y-51188D01*
X57311Y-51034D01*
X57109Y-50950D01*
X56891Y-50949D01*
X56688Y-51033D01*
X56534Y-51188D01*
X56500Y-51269D01*
X56466Y-51188D01*
X56311Y-51034D01*
X56109Y-50950D01*
X55891Y-50949D01*
X55688Y-51033D01*
X55549Y-51172D01*
X55549Y-51150D01*
X55511Y-51058D01*
X55441Y-50987D01*
X55349Y-50949D01*
X55112Y-50950D01*
X55050Y-51012D01*
X55050Y-51450D01*
X55057Y-51450D01*
X55057Y-51550D01*
X55050Y-51550D01*
X55050Y-51987D01*
X55112Y-52050D01*
X55349Y-52050D01*
X55441Y-52012D01*
X55511Y-51941D01*
X55549Y-51849D01*
X55549Y-51827D01*
X55688Y-51965D01*
X55710Y-51975D01*
X55710Y-52000D01*
X55732Y-52110D01*
X55794Y-52205D01*
X56794Y-53205D01*
X56889Y-53267D01*
X57000Y-53290D01*
X63056Y-53290D01*
X63013Y-53333D01*
X62975Y-53425D01*
X62974Y-53524D01*
X62974Y-53643D01*
X61564Y-55053D01*
X61024Y-55053D01*
X61025Y-54975D01*
X61025Y-54425D01*
X60987Y-54333D01*
X60916Y-54263D01*
X60824Y-54225D01*
X60725Y-54224D01*
X60175Y-54224D01*
X60083Y-54262D01*
X60013Y-54333D01*
X59975Y-54425D01*
X59974Y-54524D01*
X59974Y-54524D01*
X59945Y-54453D01*
X59797Y-54305D01*
X59604Y-54225D01*
X59396Y-54224D01*
X59203Y-54304D01*
X59055Y-54452D01*
X58999Y-54585D01*
X58945Y-54453D01*
X58797Y-54305D01*
X58604Y-54225D01*
X58396Y-54224D01*
X58203Y-54304D01*
X58055Y-54452D01*
X57999Y-54585D01*
X57945Y-54453D01*
X57797Y-54305D01*
X57604Y-54225D01*
X57396Y-54224D01*
X57203Y-54304D01*
X57055Y-54452D01*
X56975Y-54645D01*
X56974Y-54853D01*
X57054Y-55047D01*
X57060Y-55053D01*
X54950Y-55053D01*
X54950Y-51987D01*
X54950Y-51550D01*
X54950Y-51450D01*
X54950Y-51012D01*
X54887Y-50950D01*
X54650Y-50949D01*
X54558Y-50987D01*
X54488Y-51058D01*
X54450Y-51150D01*
X54449Y-51249D01*
X54450Y-51387D01*
X54512Y-51450D01*
X54950Y-51450D01*
X54950Y-51550D01*
X54512Y-51550D01*
X54450Y-51612D01*
X54449Y-51750D01*
X54450Y-51849D01*
X54488Y-51941D01*
X54558Y-52012D01*
X54650Y-52050D01*
X54887Y-52050D01*
X54950Y-51987D01*
X54950Y-55053D01*
X52000Y-55053D01*
X52000Y-45661D01*
X51893Y-45404D01*
X51697Y-45206D01*
X51439Y-45100D01*
X51161Y-45099D01*
X50904Y-45206D01*
X50706Y-45402D01*
X50600Y-45660D01*
X50599Y-45938D01*
X50706Y-46196D01*
X50902Y-46393D01*
X51160Y-46499D01*
X51438Y-46500D01*
X51696Y-46393D01*
X51893Y-46197D01*
X51999Y-45939D01*
X52000Y-45661D01*
X52000Y-55053D01*
X51935Y-55053D01*
X50816Y-53934D01*
X50815Y-53934D01*
X50753Y-53871D01*
X50589Y-53803D01*
X50411Y-53803D01*
X50247Y-53870D01*
X50121Y-53996D01*
X50053Y-54160D01*
X50053Y-54338D01*
X50120Y-54502D01*
X50184Y-54565D01*
X50246Y-54628D01*
X50246Y-54628D01*
X51143Y-55525D01*
X46929Y-55525D01*
X46929Y-50687D01*
X46925Y-50587D01*
X46925Y-49875D01*
X46925Y-49225D01*
X46887Y-49133D01*
X46816Y-49063D01*
X46724Y-49025D01*
X46625Y-49024D01*
X45975Y-49024D01*
X45883Y-49062D01*
X45813Y-49133D01*
X45775Y-49225D01*
X45774Y-49324D01*
X45774Y-49974D01*
X45812Y-50066D01*
X45883Y-50136D01*
X45975Y-50174D01*
X46023Y-50174D01*
X46016Y-50195D01*
X46350Y-50529D01*
X46683Y-50195D01*
X46676Y-50175D01*
X46724Y-50175D01*
X46816Y-50137D01*
X46886Y-50066D01*
X46924Y-49974D01*
X46925Y-49875D01*
X46925Y-50587D01*
X46919Y-50459D01*
X46851Y-50297D01*
X46754Y-50266D01*
X46420Y-50600D01*
X46754Y-50933D01*
X46851Y-50902D01*
X46929Y-50687D01*
X46929Y-55525D01*
X46683Y-55525D01*
X46683Y-51004D01*
X46350Y-50670D01*
X46279Y-50741D01*
X46279Y-50600D01*
X45945Y-50266D01*
X45848Y-50297D01*
X45770Y-50512D01*
X45780Y-50740D01*
X45848Y-50902D01*
X45945Y-50933D01*
X46279Y-50600D01*
X46279Y-50741D01*
X46016Y-51004D01*
X46047Y-51101D01*
X46262Y-51179D01*
X46490Y-51169D01*
X46652Y-51101D01*
X46683Y-51004D01*
X46683Y-55525D01*
X43701Y-55525D01*
X43701Y-50289D01*
X43700Y-50112D01*
X43700Y-47901D01*
X43700Y-47901D01*
X43548Y-47534D01*
X43267Y-47252D01*
X42899Y-47100D01*
X42700Y-47100D01*
X42750Y-47100D01*
X42750Y-47037D01*
X42812Y-47100D01*
X43400Y-47100D01*
X43499Y-47099D01*
X43591Y-47061D01*
X43662Y-46991D01*
X43700Y-46899D01*
X43700Y-45300D01*
X43662Y-45208D01*
X43591Y-45138D01*
X43499Y-45100D01*
X43400Y-45099D01*
X42812Y-45100D01*
X42750Y-45162D01*
X42750Y-46050D01*
X43637Y-46050D01*
X43700Y-45987D01*
X43700Y-45300D01*
X43700Y-46899D01*
X43700Y-46212D01*
X43637Y-46150D01*
X42750Y-46150D01*
X42750Y-46157D01*
X42650Y-46157D01*
X42650Y-46150D01*
X42650Y-46050D01*
X42650Y-45162D01*
X42587Y-45100D01*
X41999Y-45099D01*
X41900Y-45100D01*
X41808Y-45138D01*
X41737Y-45208D01*
X41699Y-45300D01*
X41700Y-45987D01*
X41762Y-46050D01*
X42650Y-46050D01*
X42650Y-46150D01*
X41762Y-46150D01*
X41700Y-46212D01*
X41699Y-46899D01*
X41737Y-46991D01*
X41808Y-47061D01*
X41900Y-47099D01*
X41999Y-47100D01*
X42501Y-47100D01*
X42134Y-47251D01*
X41852Y-47532D01*
X41700Y-47900D01*
X41699Y-48298D01*
X41851Y-48665D01*
X42132Y-48947D01*
X42500Y-49099D01*
X42695Y-49099D01*
X42491Y-49101D01*
X42141Y-49246D01*
X42059Y-49388D01*
X42700Y-50029D01*
X43340Y-49388D01*
X43258Y-49246D01*
X42894Y-49100D01*
X42898Y-49100D01*
X43265Y-48948D01*
X43547Y-48667D01*
X43699Y-48299D01*
X43700Y-47901D01*
X43700Y-50112D01*
X43698Y-49891D01*
X43553Y-49541D01*
X43411Y-49459D01*
X42770Y-50100D01*
X43411Y-50740D01*
X43553Y-50658D01*
X43701Y-50289D01*
X43701Y-55525D01*
X43700Y-55525D01*
X43700Y-51901D01*
X43548Y-51534D01*
X43267Y-51252D01*
X42899Y-51100D01*
X42704Y-51100D01*
X42908Y-51098D01*
X43258Y-50953D01*
X43340Y-50811D01*
X42700Y-50170D01*
X42629Y-50241D01*
X42629Y-50100D01*
X41988Y-49459D01*
X41846Y-49541D01*
X41698Y-49910D01*
X41701Y-50308D01*
X41846Y-50658D01*
X41988Y-50740D01*
X42629Y-50100D01*
X42629Y-50241D01*
X42059Y-50811D01*
X42141Y-50953D01*
X42505Y-51099D01*
X42501Y-51099D01*
X42134Y-51251D01*
X41852Y-51532D01*
X41700Y-51900D01*
X41699Y-52298D01*
X41851Y-52665D01*
X42132Y-52947D01*
X42500Y-53099D01*
X42898Y-53100D01*
X43265Y-52948D01*
X43547Y-52667D01*
X43699Y-52299D01*
X43700Y-51901D01*
X43700Y-55525D01*
X43584Y-55525D01*
X41425Y-53365D01*
X41425Y-45025D01*
X54614Y-45025D01*
X53993Y-45646D01*
X53893Y-45404D01*
X53697Y-45206D01*
X53439Y-45100D01*
X53161Y-45099D01*
X52904Y-45206D01*
X52706Y-45402D01*
X52600Y-45660D01*
X52599Y-45938D01*
X52706Y-46196D01*
X52902Y-46393D01*
X53160Y-46499D01*
X53438Y-46500D01*
X53696Y-46393D01*
X53850Y-46240D01*
X53850Y-50098D01*
X53723Y-50150D01*
X53581Y-50293D01*
X53504Y-50478D01*
X53504Y-50680D01*
X53580Y-50866D01*
X53723Y-51008D01*
X53908Y-51085D01*
X54110Y-51085D01*
X54296Y-51009D01*
X54438Y-50866D01*
X54515Y-50681D01*
X54515Y-50479D01*
X54439Y-50293D01*
X54430Y-50284D01*
X54430Y-46030D01*
X55260Y-45200D01*
X57090Y-45200D01*
X57200Y-45177D01*
X57295Y-45115D01*
X58044Y-44365D01*
X58044Y-44524D01*
X58120Y-44710D01*
X58260Y-44849D01*
X58260Y-45070D01*
X58109Y-45070D01*
X57923Y-45146D01*
X57781Y-45289D01*
X57704Y-45474D01*
X57704Y-45676D01*
X57710Y-45693D01*
X55517Y-45693D01*
X55516Y-45693D01*
X55498Y-45696D01*
X55406Y-45715D01*
X55311Y-45777D01*
X55311Y-45777D01*
X55311Y-45777D01*
X55131Y-45958D01*
X55109Y-45950D01*
X54891Y-45949D01*
X54688Y-46033D01*
X54534Y-46188D01*
X54450Y-46390D01*
X54449Y-46608D01*
X54533Y-46811D01*
X54688Y-46965D01*
X54890Y-47049D01*
X55108Y-47050D01*
X55311Y-46966D01*
X55465Y-46811D01*
X55499Y-46730D01*
X55533Y-46811D01*
X55688Y-46965D01*
X55890Y-47049D01*
X56047Y-47050D01*
X56186Y-47189D01*
X56281Y-47251D01*
X56392Y-47274D01*
X58142Y-47274D01*
X58252Y-47251D01*
X58347Y-47189D01*
X58629Y-46906D01*
X58688Y-46965D01*
X58710Y-46975D01*
X58710Y-47000D01*
X58732Y-47110D01*
X58794Y-47205D01*
X60294Y-48705D01*
X60294Y-48705D01*
X60389Y-48767D01*
X60500Y-48790D01*
X62724Y-48790D01*
X62724Y-49324D01*
X62762Y-49416D01*
X62833Y-49486D01*
X62864Y-49499D01*
X62833Y-49512D01*
X62763Y-49583D01*
X62725Y-49675D01*
X62724Y-49774D01*
X62724Y-50324D01*
X62762Y-50416D01*
X62833Y-50486D01*
X62864Y-50499D01*
X62833Y-50512D01*
X62763Y-50583D01*
X62725Y-50675D01*
X62724Y-50774D01*
X62724Y-51324D01*
X62762Y-51416D01*
X62833Y-51486D01*
X62925Y-51524D01*
X63024Y-51525D01*
X63060Y-51525D01*
X63060Y-51599D01*
G54D10*
G36*
X65326Y-49005D02*
X65255Y-49076D01*
X65250Y-49070D01*
X65244Y-49076D01*
X65173Y-49005D01*
X65179Y-49000D01*
X65173Y-48994D01*
X65244Y-48923D01*
X65250Y-48929D01*
X65255Y-48923D01*
X65326Y-48994D01*
X65320Y-49000D01*
X65326Y-49005D01*
X65326Y-49005D01*
G37*
G54D26*
X65326Y-49005D02*
X65255Y-49076D01*
X65250Y-49070D01*
X65244Y-49076D01*
X65173Y-49005D01*
X65179Y-49000D01*
X65173Y-48994D01*
X65244Y-48923D01*
X65250Y-48929D01*
X65255Y-48923D01*
X65326Y-48994D01*
X65320Y-49000D01*
X65326Y-49005D01*
G54D10*
G36*
X65326Y-50005D02*
X65255Y-50076D01*
X65250Y-50070D01*
X65244Y-50076D01*
X65173Y-50005D01*
X65179Y-50000D01*
X65173Y-49994D01*
X65244Y-49923D01*
X65250Y-49929D01*
X65255Y-49923D01*
X65326Y-49994D01*
X65320Y-50000D01*
X65326Y-50005D01*
X65326Y-50005D01*
G37*
G54D26*
X65326Y-50005D02*
X65255Y-50076D01*
X65250Y-50070D01*
X65244Y-50076D01*
X65173Y-50005D01*
X65179Y-50000D01*
X65173Y-49994D01*
X65244Y-49923D01*
X65250Y-49929D01*
X65255Y-49923D01*
X65326Y-49994D01*
X65320Y-50000D01*
X65326Y-50005D01*
G54D10*
G36*
X68210Y-46024D02*
X68188Y-46033D01*
X68034Y-46188D01*
X68000Y-46269D01*
X67966Y-46188D01*
X67811Y-46034D01*
X67609Y-45950D01*
X67391Y-45949D01*
X67215Y-46022D01*
X66594Y-45400D01*
X66594Y-45059D01*
X66571Y-44948D01*
X66509Y-44853D01*
X66025Y-44370D01*
X66025Y-44224D01*
X66132Y-44218D01*
X66272Y-44160D01*
X66297Y-44067D01*
X66000Y-43770D01*
X65994Y-43776D01*
X65923Y-43705D01*
X65929Y-43700D01*
X65632Y-43402D01*
X65539Y-43427D01*
X65500Y-43537D01*
X65445Y-43403D01*
X65297Y-43255D01*
X65164Y-43199D01*
X65297Y-43145D01*
X65444Y-42997D01*
X65497Y-42871D01*
X65539Y-42972D01*
X65632Y-42997D01*
X65929Y-42700D01*
X65923Y-42694D01*
X65994Y-42623D01*
X66000Y-42629D01*
X66005Y-42623D01*
X66076Y-42694D01*
X66070Y-42700D01*
X66367Y-42997D01*
X66460Y-42972D01*
X66474Y-42931D01*
X66474Y-43024D01*
X66512Y-43116D01*
X66583Y-43186D01*
X66614Y-43199D01*
X66583Y-43212D01*
X66513Y-43283D01*
X66475Y-43375D01*
X66474Y-43462D01*
X66460Y-43427D01*
X66367Y-43402D01*
X66297Y-43473D01*
X66297Y-43332D01*
X66272Y-43239D01*
X66169Y-43203D01*
X66272Y-43160D01*
X66297Y-43067D01*
X66000Y-42770D01*
X65702Y-43067D01*
X65727Y-43160D01*
X65830Y-43196D01*
X65727Y-43239D01*
X65702Y-43332D01*
X66000Y-43629D01*
X66297Y-43332D01*
X66297Y-43473D01*
X66070Y-43700D01*
X66367Y-43997D01*
X66460Y-43972D01*
X66474Y-43931D01*
X66474Y-44024D01*
X66512Y-44116D01*
X66583Y-44186D01*
X66675Y-44224D01*
X66774Y-44225D01*
X67114Y-44225D01*
X68210Y-45320D01*
X68210Y-46024D01*
X68210Y-46024D01*
G37*
G54D26*
X68210Y-46024D02*
X68188Y-46033D01*
X68034Y-46188D01*
X68000Y-46269D01*
X67966Y-46188D01*
X67811Y-46034D01*
X67609Y-45950D01*
X67391Y-45949D01*
X67215Y-46022D01*
X66594Y-45400D01*
X66594Y-45059D01*
X66571Y-44948D01*
X66509Y-44853D01*
X66025Y-44370D01*
X66025Y-44224D01*
X66132Y-44218D01*
X66272Y-44160D01*
X66297Y-44067D01*
X66000Y-43770D01*
X65994Y-43776D01*
X65923Y-43705D01*
X65929Y-43700D01*
X65632Y-43402D01*
X65539Y-43427D01*
X65500Y-43537D01*
X65445Y-43403D01*
X65297Y-43255D01*
X65164Y-43199D01*
X65297Y-43145D01*
X65444Y-42997D01*
X65497Y-42871D01*
X65539Y-42972D01*
X65632Y-42997D01*
X65929Y-42700D01*
X65923Y-42694D01*
X65994Y-42623D01*
X66000Y-42629D01*
X66005Y-42623D01*
X66076Y-42694D01*
X66070Y-42700D01*
X66367Y-42997D01*
X66460Y-42972D01*
X66474Y-42931D01*
X66474Y-43024D01*
X66512Y-43116D01*
X66583Y-43186D01*
X66614Y-43199D01*
X66583Y-43212D01*
X66513Y-43283D01*
X66475Y-43375D01*
X66474Y-43462D01*
X66460Y-43427D01*
X66367Y-43402D01*
X66297Y-43473D01*
X66297Y-43332D01*
X66272Y-43239D01*
X66169Y-43203D01*
X66272Y-43160D01*
X66297Y-43067D01*
X66000Y-42770D01*
X65702Y-43067D01*
X65727Y-43160D01*
X65830Y-43196D01*
X65727Y-43239D01*
X65702Y-43332D01*
X66000Y-43629D01*
X66297Y-43332D01*
X66297Y-43473D01*
X66070Y-43700D01*
X66367Y-43997D01*
X66460Y-43972D01*
X66474Y-43931D01*
X66474Y-44024D01*
X66512Y-44116D01*
X66583Y-44186D01*
X66675Y-44224D01*
X66774Y-44225D01*
X67114Y-44225D01*
X68210Y-45320D01*
X68210Y-46024D01*
G54D10*
G36*
X69539Y-47050D02*
X68379Y-48210D01*
X68250Y-48210D01*
X65732Y-48210D01*
X65779Y-48075D01*
X65779Y-47075D01*
X65768Y-46867D01*
X65710Y-46727D01*
X65617Y-46702D01*
X65547Y-46773D01*
X65547Y-46632D01*
X65522Y-46539D01*
X65419Y-46503D01*
X65522Y-46460D01*
X65547Y-46367D01*
X65250Y-46070D01*
X64952Y-46367D01*
X64977Y-46460D01*
X65080Y-46496D01*
X64977Y-46539D01*
X64952Y-46632D01*
X65250Y-46929D01*
X65547Y-46632D01*
X65547Y-46773D01*
X65320Y-47000D01*
X65617Y-47297D01*
X65710Y-47272D01*
X65779Y-47075D01*
X65779Y-48075D01*
X65768Y-47867D01*
X65710Y-47727D01*
X65617Y-47702D01*
X65547Y-47773D01*
X65547Y-47632D01*
X65522Y-47539D01*
X65419Y-47503D01*
X65522Y-47460D01*
X65547Y-47367D01*
X65250Y-47070D01*
X64952Y-47367D01*
X64977Y-47460D01*
X65080Y-47496D01*
X64977Y-47539D01*
X64952Y-47632D01*
X65250Y-47929D01*
X65547Y-47632D01*
X65547Y-47773D01*
X65320Y-48000D01*
X65326Y-48005D01*
X65255Y-48076D01*
X65250Y-48070D01*
X65244Y-48076D01*
X65173Y-48005D01*
X65179Y-48000D01*
X64882Y-47702D01*
X64789Y-47727D01*
X64750Y-47837D01*
X64695Y-47703D01*
X64547Y-47555D01*
X64414Y-47499D01*
X64547Y-47445D01*
X64694Y-47297D01*
X64747Y-47171D01*
X64789Y-47272D01*
X64882Y-47297D01*
X65179Y-47000D01*
X64882Y-46702D01*
X64789Y-46727D01*
X64750Y-46837D01*
X64695Y-46703D01*
X64547Y-46555D01*
X64414Y-46499D01*
X64547Y-46445D01*
X64694Y-46297D01*
X64747Y-46171D01*
X64789Y-46272D01*
X64882Y-46297D01*
X65179Y-46000D01*
X64882Y-45702D01*
X64789Y-45727D01*
X64750Y-45837D01*
X64695Y-45703D01*
X64547Y-45555D01*
X64354Y-45475D01*
X64146Y-45474D01*
X63953Y-45554D01*
X63805Y-45702D01*
X63775Y-45774D01*
X63775Y-45675D01*
X63737Y-45583D01*
X63666Y-45513D01*
X63574Y-45475D01*
X63475Y-45474D01*
X63435Y-45474D01*
X63681Y-45229D01*
X63743Y-45134D01*
X63766Y-45024D01*
X63766Y-44171D01*
X63881Y-44219D01*
X63844Y-44308D01*
X63844Y-44510D01*
X63920Y-44696D01*
X64063Y-44838D01*
X64248Y-44915D01*
X64445Y-44915D01*
X65042Y-45512D01*
X64977Y-45539D01*
X64952Y-45632D01*
X65250Y-45929D01*
X65255Y-45923D01*
X65326Y-45994D01*
X65320Y-46000D01*
X65617Y-46297D01*
X65710Y-46272D01*
X65734Y-46204D01*
X65950Y-46420D01*
X65949Y-46608D01*
X66033Y-46811D01*
X66188Y-46965D01*
X66390Y-47049D01*
X66608Y-47050D01*
X66811Y-46966D01*
X66965Y-46811D01*
X66999Y-46730D01*
X67033Y-46811D01*
X67188Y-46965D01*
X67390Y-47049D01*
X67608Y-47050D01*
X67811Y-46966D01*
X67965Y-46811D01*
X67999Y-46730D01*
X68033Y-46811D01*
X68188Y-46965D01*
X68390Y-47049D01*
X68608Y-47050D01*
X68811Y-46966D01*
X68965Y-46811D01*
X68999Y-46730D01*
X69033Y-46811D01*
X69188Y-46965D01*
X69390Y-47049D01*
X69539Y-47050D01*
X69539Y-47050D01*
G37*
G54D26*
X69539Y-47050D02*
X68379Y-48210D01*
X68250Y-48210D01*
X65732Y-48210D01*
X65779Y-48075D01*
X65779Y-47075D01*
X65768Y-46867D01*
X65710Y-46727D01*
X65617Y-46702D01*
X65547Y-46773D01*
X65547Y-46632D01*
X65522Y-46539D01*
X65419Y-46503D01*
X65522Y-46460D01*
X65547Y-46367D01*
X65250Y-46070D01*
X64952Y-46367D01*
X64977Y-46460D01*
X65080Y-46496D01*
X64977Y-46539D01*
X64952Y-46632D01*
X65250Y-46929D01*
X65547Y-46632D01*
X65547Y-46773D01*
X65320Y-47000D01*
X65617Y-47297D01*
X65710Y-47272D01*
X65779Y-47075D01*
X65779Y-48075D01*
X65768Y-47867D01*
X65710Y-47727D01*
X65617Y-47702D01*
X65547Y-47773D01*
X65547Y-47632D01*
X65522Y-47539D01*
X65419Y-47503D01*
X65522Y-47460D01*
X65547Y-47367D01*
X65250Y-47070D01*
X64952Y-47367D01*
X64977Y-47460D01*
X65080Y-47496D01*
X64977Y-47539D01*
X64952Y-47632D01*
X65250Y-47929D01*
X65547Y-47632D01*
X65547Y-47773D01*
X65320Y-48000D01*
X65326Y-48005D01*
X65255Y-48076D01*
X65250Y-48070D01*
X65244Y-48076D01*
X65173Y-48005D01*
X65179Y-48000D01*
X64882Y-47702D01*
X64789Y-47727D01*
X64750Y-47837D01*
X64695Y-47703D01*
X64547Y-47555D01*
X64414Y-47499D01*
X64547Y-47445D01*
X64694Y-47297D01*
X64747Y-47171D01*
X64789Y-47272D01*
X64882Y-47297D01*
X65179Y-47000D01*
X64882Y-46702D01*
X64789Y-46727D01*
X64750Y-46837D01*
X64695Y-46703D01*
X64547Y-46555D01*
X64414Y-46499D01*
X64547Y-46445D01*
X64694Y-46297D01*
X64747Y-46171D01*
X64789Y-46272D01*
X64882Y-46297D01*
X65179Y-46000D01*
X64882Y-45702D01*
X64789Y-45727D01*
X64750Y-45837D01*
X64695Y-45703D01*
X64547Y-45555D01*
X64354Y-45475D01*
X64146Y-45474D01*
X63953Y-45554D01*
X63805Y-45702D01*
X63775Y-45774D01*
X63775Y-45675D01*
X63737Y-45583D01*
X63666Y-45513D01*
X63574Y-45475D01*
X63475Y-45474D01*
X63435Y-45474D01*
X63681Y-45229D01*
X63743Y-45134D01*
X63766Y-45024D01*
X63766Y-44171D01*
X63881Y-44219D01*
X63844Y-44308D01*
X63844Y-44510D01*
X63920Y-44696D01*
X64063Y-44838D01*
X64248Y-44915D01*
X64445Y-44915D01*
X65042Y-45512D01*
X64977Y-45539D01*
X64952Y-45632D01*
X65250Y-45929D01*
X65255Y-45923D01*
X65326Y-45994D01*
X65320Y-46000D01*
X65617Y-46297D01*
X65710Y-46272D01*
X65734Y-46204D01*
X65950Y-46420D01*
X65949Y-46608D01*
X66033Y-46811D01*
X66188Y-46965D01*
X66390Y-47049D01*
X66608Y-47050D01*
X66811Y-46966D01*
X66965Y-46811D01*
X66999Y-46730D01*
X67033Y-46811D01*
X67188Y-46965D01*
X67390Y-47049D01*
X67608Y-47050D01*
X67811Y-46966D01*
X67965Y-46811D01*
X67999Y-46730D01*
X68033Y-46811D01*
X68188Y-46965D01*
X68390Y-47049D01*
X68608Y-47050D01*
X68811Y-46966D01*
X68965Y-46811D01*
X68999Y-46730D01*
X69033Y-46811D01*
X69188Y-46965D01*
X69390Y-47049D01*
X69539Y-47050D01*
G54D10*
G36*
X70410Y-36474D02*
X70175Y-36474D01*
X70083Y-36512D01*
X70013Y-36583D01*
X69975Y-36675D01*
X69974Y-36774D01*
X69974Y-36774D01*
X69945Y-36703D01*
X69797Y-36555D01*
X69604Y-36475D01*
X69396Y-36474D01*
X69203Y-36554D01*
X69055Y-36702D01*
X68999Y-36835D01*
X68945Y-36703D01*
X68797Y-36555D01*
X68604Y-36475D01*
X68396Y-36474D01*
X68203Y-36554D01*
X68055Y-36702D01*
X68040Y-36738D01*
X68040Y-34250D01*
X68040Y-34170D01*
X68220Y-33990D01*
X68282Y-33990D01*
X68194Y-34078D01*
X68110Y-34280D01*
X68109Y-34498D01*
X68193Y-34701D01*
X68332Y-34839D01*
X68310Y-34839D01*
X68218Y-34877D01*
X68148Y-34948D01*
X68110Y-35040D01*
X68109Y-35139D01*
X68109Y-35739D01*
X68147Y-35831D01*
X68218Y-35901D01*
X68310Y-35939D01*
X68409Y-35940D01*
X69009Y-35940D01*
X69101Y-35902D01*
X69171Y-35831D01*
X69209Y-35739D01*
X69209Y-35717D01*
X69348Y-35855D01*
X69550Y-35939D01*
X69768Y-35940D01*
X69971Y-35856D01*
X70125Y-35701D01*
X70159Y-35620D01*
X70193Y-35701D01*
X70348Y-35855D01*
X70410Y-35881D01*
X70410Y-36474D01*
X70410Y-36474D01*
G37*
G54D26*
X70410Y-36474D02*
X70175Y-36474D01*
X70083Y-36512D01*
X70013Y-36583D01*
X69975Y-36675D01*
X69974Y-36774D01*
X69974Y-36774D01*
X69945Y-36703D01*
X69797Y-36555D01*
X69604Y-36475D01*
X69396Y-36474D01*
X69203Y-36554D01*
X69055Y-36702D01*
X68999Y-36835D01*
X68945Y-36703D01*
X68797Y-36555D01*
X68604Y-36475D01*
X68396Y-36474D01*
X68203Y-36554D01*
X68055Y-36702D01*
X68040Y-36738D01*
X68040Y-34250D01*
X68040Y-34170D01*
X68220Y-33990D01*
X68282Y-33990D01*
X68194Y-34078D01*
X68110Y-34280D01*
X68109Y-34498D01*
X68193Y-34701D01*
X68332Y-34839D01*
X68310Y-34839D01*
X68218Y-34877D01*
X68148Y-34948D01*
X68110Y-35040D01*
X68109Y-35139D01*
X68109Y-35739D01*
X68147Y-35831D01*
X68218Y-35901D01*
X68310Y-35939D01*
X68409Y-35940D01*
X69009Y-35940D01*
X69101Y-35902D01*
X69171Y-35831D01*
X69209Y-35739D01*
X69209Y-35717D01*
X69348Y-35855D01*
X69550Y-35939D01*
X69768Y-35940D01*
X69971Y-35856D01*
X70125Y-35701D01*
X70159Y-35620D01*
X70193Y-35701D01*
X70348Y-35855D01*
X70410Y-35881D01*
X70410Y-36474D01*
G54D10*
G36*
X71736Y-35395D02*
X71665Y-35466D01*
X71660Y-35460D01*
X71654Y-35466D01*
X71583Y-35395D01*
X71589Y-35390D01*
X71583Y-35384D01*
X71654Y-35313D01*
X71660Y-35319D01*
X71665Y-35313D01*
X71736Y-35384D01*
X71730Y-35390D01*
X71736Y-35395D01*
X71736Y-35395D01*
G37*
G54D26*
X71736Y-35395D02*
X71665Y-35466D01*
X71660Y-35460D01*
X71654Y-35466D01*
X71583Y-35395D01*
X71589Y-35390D01*
X71583Y-35384D01*
X71654Y-35313D01*
X71660Y-35319D01*
X71665Y-35313D01*
X71736Y-35384D01*
X71730Y-35390D01*
X71736Y-35395D01*
G54D10*
G36*
X72027Y-40185D02*
X68947Y-43265D01*
X68751Y-43265D01*
X68565Y-43341D01*
X68497Y-43410D01*
X67985Y-43410D01*
X68017Y-43360D01*
X68040Y-43250D01*
X68040Y-37261D01*
X68054Y-37297D01*
X68202Y-37444D01*
X68395Y-37524D01*
X68603Y-37525D01*
X68797Y-37445D01*
X68944Y-37297D01*
X69000Y-37164D01*
X69054Y-37297D01*
X69202Y-37444D01*
X69210Y-37448D01*
X69210Y-38514D01*
X69141Y-38514D01*
X68955Y-38590D01*
X68813Y-38733D01*
X68736Y-38918D01*
X68736Y-39120D01*
X68812Y-39306D01*
X68955Y-39448D01*
X69140Y-39525D01*
X69342Y-39525D01*
X69528Y-39449D01*
X69670Y-39306D01*
X69747Y-39121D01*
X69747Y-38919D01*
X69743Y-38909D01*
X69767Y-38872D01*
X69790Y-38762D01*
X69790Y-37448D01*
X69797Y-37445D01*
X69944Y-37297D01*
X69974Y-37225D01*
X69974Y-37324D01*
X70012Y-37416D01*
X70083Y-37486D01*
X70175Y-37524D01*
X70274Y-37525D01*
X70824Y-37525D01*
X70910Y-37489D01*
X70910Y-38200D01*
X70932Y-38310D01*
X70994Y-38405D01*
X71227Y-38638D01*
X71225Y-38645D01*
X71224Y-38853D01*
X71304Y-39047D01*
X71452Y-39194D01*
X71645Y-39274D01*
X71853Y-39275D01*
X72027Y-39203D01*
X72027Y-40185D01*
X72027Y-40185D01*
G37*
G54D26*
X72027Y-40185D02*
X68947Y-43265D01*
X68751Y-43265D01*
X68565Y-43341D01*
X68497Y-43410D01*
X67985Y-43410D01*
X68017Y-43360D01*
X68040Y-43250D01*
X68040Y-37261D01*
X68054Y-37297D01*
X68202Y-37444D01*
X68395Y-37524D01*
X68603Y-37525D01*
X68797Y-37445D01*
X68944Y-37297D01*
X69000Y-37164D01*
X69054Y-37297D01*
X69202Y-37444D01*
X69210Y-37448D01*
X69210Y-38514D01*
X69141Y-38514D01*
X68955Y-38590D01*
X68813Y-38733D01*
X68736Y-38918D01*
X68736Y-39120D01*
X68812Y-39306D01*
X68955Y-39448D01*
X69140Y-39525D01*
X69342Y-39525D01*
X69528Y-39449D01*
X69670Y-39306D01*
X69747Y-39121D01*
X69747Y-38919D01*
X69743Y-38909D01*
X69767Y-38872D01*
X69790Y-38762D01*
X69790Y-37448D01*
X69797Y-37445D01*
X69944Y-37297D01*
X69974Y-37225D01*
X69974Y-37324D01*
X70012Y-37416D01*
X70083Y-37486D01*
X70175Y-37524D01*
X70274Y-37525D01*
X70824Y-37525D01*
X70910Y-37489D01*
X70910Y-38200D01*
X70932Y-38310D01*
X70994Y-38405D01*
X71227Y-38638D01*
X71225Y-38645D01*
X71224Y-38853D01*
X71304Y-39047D01*
X71452Y-39194D01*
X71645Y-39274D01*
X71853Y-39275D01*
X72027Y-39203D01*
X72027Y-40185D01*
G54D10*
G36*
X72175Y-45658D02*
X72029Y-45658D01*
X72029Y-42325D01*
X72018Y-42117D01*
X71960Y-41977D01*
X71867Y-41952D01*
X71570Y-42250D01*
X71867Y-42547D01*
X71960Y-42522D01*
X72029Y-42325D01*
X72029Y-45658D01*
X72025Y-45658D01*
X72025Y-43475D01*
X72025Y-42925D01*
X71987Y-42833D01*
X71916Y-42763D01*
X71824Y-42725D01*
X71737Y-42724D01*
X71772Y-42710D01*
X71797Y-42617D01*
X71500Y-42320D01*
X71202Y-42617D01*
X71227Y-42710D01*
X71268Y-42724D01*
X71175Y-42724D01*
X71083Y-42762D01*
X71013Y-42833D01*
X70975Y-42925D01*
X70974Y-43024D01*
X70974Y-43574D01*
X71012Y-43666D01*
X71083Y-43736D01*
X71175Y-43774D01*
X71274Y-43775D01*
X71824Y-43775D01*
X71916Y-43737D01*
X71986Y-43666D01*
X72024Y-43574D01*
X72025Y-43475D01*
X72025Y-45658D01*
X70239Y-45658D01*
X69014Y-44433D01*
X69014Y-44251D01*
X69138Y-44200D01*
X69280Y-44057D01*
X69357Y-43872D01*
X69357Y-43675D01*
X71030Y-42002D01*
X70970Y-42174D01*
X70981Y-42382D01*
X71039Y-42522D01*
X71132Y-42547D01*
X71429Y-42250D01*
X71423Y-42244D01*
X71494Y-42173D01*
X71500Y-42179D01*
X71797Y-41882D01*
X71772Y-41789D01*
X71575Y-41720D01*
X71367Y-41731D01*
X71255Y-41777D01*
X72175Y-40858D01*
X72175Y-45658D01*
X72175Y-45658D01*
G37*
G54D26*
X72175Y-45658D02*
X72029Y-45658D01*
X72029Y-42325D01*
X72018Y-42117D01*
X71960Y-41977D01*
X71867Y-41952D01*
X71570Y-42250D01*
X71867Y-42547D01*
X71960Y-42522D01*
X72029Y-42325D01*
X72029Y-45658D01*
X72025Y-45658D01*
X72025Y-43475D01*
X72025Y-42925D01*
X71987Y-42833D01*
X71916Y-42763D01*
X71824Y-42725D01*
X71737Y-42724D01*
X71772Y-42710D01*
X71797Y-42617D01*
X71500Y-42320D01*
X71202Y-42617D01*
X71227Y-42710D01*
X71268Y-42724D01*
X71175Y-42724D01*
X71083Y-42762D01*
X71013Y-42833D01*
X70975Y-42925D01*
X70974Y-43024D01*
X70974Y-43574D01*
X71012Y-43666D01*
X71083Y-43736D01*
X71175Y-43774D01*
X71274Y-43775D01*
X71824Y-43775D01*
X71916Y-43737D01*
X71986Y-43666D01*
X72024Y-43574D01*
X72025Y-43475D01*
X72025Y-45658D01*
X70239Y-45658D01*
X69014Y-44433D01*
X69014Y-44251D01*
X69138Y-44200D01*
X69280Y-44057D01*
X69357Y-43872D01*
X69357Y-43675D01*
X71030Y-42002D01*
X70970Y-42174D01*
X70981Y-42382D01*
X71039Y-42522D01*
X71132Y-42547D01*
X71429Y-42250D01*
X71423Y-42244D01*
X71494Y-42173D01*
X71500Y-42179D01*
X71797Y-41882D01*
X71772Y-41789D01*
X71575Y-41720D01*
X71367Y-41731D01*
X71255Y-41777D01*
X72175Y-40858D01*
X72175Y-45658D01*
G54D10*
G36*
X73775Y-54015D02*
X72265Y-55525D01*
X72025Y-55525D01*
X72025Y-54975D01*
X72025Y-54425D01*
X71987Y-54333D01*
X71916Y-54263D01*
X71824Y-54225D01*
X71725Y-54224D01*
X71175Y-54224D01*
X71083Y-54262D01*
X71013Y-54333D01*
X70975Y-54425D01*
X70974Y-54524D01*
X70974Y-54524D01*
X70945Y-54453D01*
X70797Y-54305D01*
X70604Y-54225D01*
X70396Y-54224D01*
X70203Y-54304D01*
X70055Y-54452D01*
X69999Y-54585D01*
X69945Y-54453D01*
X69797Y-54305D01*
X69604Y-54225D01*
X69396Y-54224D01*
X69203Y-54304D01*
X69055Y-54452D01*
X68999Y-54585D01*
X68945Y-54453D01*
X68797Y-54305D01*
X68604Y-54225D01*
X68396Y-54224D01*
X68203Y-54304D01*
X68055Y-54452D01*
X67975Y-54645D01*
X67974Y-54853D01*
X68054Y-55047D01*
X68202Y-55194D01*
X68395Y-55274D01*
X68603Y-55275D01*
X68797Y-55195D01*
X68944Y-55047D01*
X69000Y-54914D01*
X69054Y-55047D01*
X69202Y-55194D01*
X69395Y-55274D01*
X69603Y-55275D01*
X69797Y-55195D01*
X69944Y-55047D01*
X70000Y-54914D01*
X70054Y-55047D01*
X70202Y-55194D01*
X70395Y-55274D01*
X70603Y-55275D01*
X70797Y-55195D01*
X70944Y-55047D01*
X70974Y-54975D01*
X70974Y-55074D01*
X71012Y-55166D01*
X71083Y-55236D01*
X71175Y-55274D01*
X71274Y-55275D01*
X71824Y-55275D01*
X71916Y-55237D01*
X71986Y-55166D01*
X72024Y-55074D01*
X72025Y-54975D01*
X72025Y-55525D01*
X65529Y-55525D01*
X65529Y-53825D01*
X65518Y-53617D01*
X65460Y-53477D01*
X65367Y-53452D01*
X65297Y-53523D01*
X65297Y-53382D01*
X65272Y-53289D01*
X65075Y-53220D01*
X64867Y-53231D01*
X64727Y-53289D01*
X64702Y-53382D01*
X65000Y-53679D01*
X65297Y-53382D01*
X65297Y-53523D01*
X65070Y-53750D01*
X65367Y-54047D01*
X65460Y-54022D01*
X65529Y-53825D01*
X65529Y-55525D01*
X65297Y-55525D01*
X65297Y-54117D01*
X65000Y-53820D01*
X64929Y-53891D01*
X64929Y-53750D01*
X64632Y-53452D01*
X64539Y-53477D01*
X64470Y-53674D01*
X64481Y-53882D01*
X64539Y-54022D01*
X64632Y-54047D01*
X64929Y-53750D01*
X64929Y-53891D01*
X64702Y-54117D01*
X64727Y-54210D01*
X64924Y-54279D01*
X65132Y-54268D01*
X65272Y-54210D01*
X65297Y-54117D01*
X65297Y-55525D01*
X62356Y-55525D01*
X63606Y-54275D01*
X63824Y-54275D01*
X63916Y-54237D01*
X63986Y-54166D01*
X64024Y-54074D01*
X64025Y-53975D01*
X64025Y-53425D01*
X63987Y-53333D01*
X63936Y-53282D01*
X64010Y-53267D01*
X64105Y-53205D01*
X64410Y-52900D01*
X64999Y-52900D01*
X65091Y-52862D01*
X65161Y-52791D01*
X65199Y-52699D01*
X65200Y-52600D01*
X65200Y-52540D01*
X67000Y-52540D01*
X67110Y-52517D01*
X67205Y-52455D01*
X67610Y-52049D01*
X67811Y-51966D01*
X67965Y-51811D01*
X67999Y-51730D01*
X68033Y-51811D01*
X68188Y-51965D01*
X68390Y-52049D01*
X68608Y-52050D01*
X68811Y-51966D01*
X68965Y-51811D01*
X68999Y-51730D01*
X69033Y-51811D01*
X69188Y-51965D01*
X69390Y-52049D01*
X69608Y-52050D01*
X69811Y-51966D01*
X69965Y-51811D01*
X69999Y-51730D01*
X70033Y-51811D01*
X70188Y-51965D01*
X70390Y-52049D01*
X70608Y-52050D01*
X70811Y-51966D01*
X70965Y-51811D01*
X70999Y-51730D01*
X71033Y-51811D01*
X71188Y-51965D01*
X71390Y-52049D01*
X71608Y-52050D01*
X71811Y-51966D01*
X71950Y-51827D01*
X71950Y-51849D01*
X71988Y-51941D01*
X72058Y-52012D01*
X72150Y-52050D01*
X72387Y-52050D01*
X72450Y-51987D01*
X72450Y-51550D01*
X72442Y-51550D01*
X72442Y-51450D01*
X72450Y-51450D01*
X72450Y-51012D01*
X72387Y-50950D01*
X72150Y-50949D01*
X72058Y-50987D01*
X71988Y-51058D01*
X71950Y-51150D01*
X71950Y-51172D01*
X71811Y-51034D01*
X71609Y-50950D01*
X71391Y-50949D01*
X71188Y-51033D01*
X71034Y-51188D01*
X71000Y-51269D01*
X70966Y-51188D01*
X70811Y-51034D01*
X70609Y-50950D01*
X70391Y-50949D01*
X70188Y-51033D01*
X70034Y-51188D01*
X70000Y-51269D01*
X69966Y-51188D01*
X69811Y-51034D01*
X69609Y-50950D01*
X69391Y-50949D01*
X69188Y-51033D01*
X69034Y-51188D01*
X69000Y-51269D01*
X68966Y-51188D01*
X68811Y-51034D01*
X68609Y-50950D01*
X68391Y-50949D01*
X68188Y-51033D01*
X68034Y-51188D01*
X68000Y-51269D01*
X67966Y-51188D01*
X67811Y-51034D01*
X67609Y-50950D01*
X67391Y-50949D01*
X67188Y-51033D01*
X67049Y-51172D01*
X67049Y-51150D01*
X67011Y-51058D01*
X66941Y-50987D01*
X66849Y-50949D01*
X66612Y-50950D01*
X66550Y-51012D01*
X66550Y-51450D01*
X66557Y-51450D01*
X66557Y-51550D01*
X66550Y-51550D01*
X66550Y-51557D01*
X66450Y-51557D01*
X66450Y-51550D01*
X66450Y-51450D01*
X66450Y-51012D01*
X66387Y-50950D01*
X66150Y-50949D01*
X66058Y-50987D01*
X65988Y-51058D01*
X65950Y-51150D01*
X65949Y-51249D01*
X65950Y-51387D01*
X66012Y-51450D01*
X66450Y-51450D01*
X66450Y-51550D01*
X66012Y-51550D01*
X65950Y-51612D01*
X65949Y-51750D01*
X65950Y-51849D01*
X65988Y-51941D01*
X66006Y-51960D01*
X65547Y-51960D01*
X65547Y-51367D01*
X65250Y-51070D01*
X64952Y-51367D01*
X64977Y-51460D01*
X65174Y-51529D01*
X65382Y-51518D01*
X65522Y-51460D01*
X65547Y-51367D01*
X65547Y-51960D01*
X65200Y-51960D01*
X65200Y-51800D01*
X65162Y-51708D01*
X65091Y-51638D01*
X64999Y-51600D01*
X64900Y-51599D01*
X64300Y-51599D01*
X64208Y-51637D01*
X64138Y-51708D01*
X64100Y-51800D01*
X64099Y-51899D01*
X64099Y-52389D01*
X63900Y-52589D01*
X63900Y-51800D01*
X63862Y-51708D01*
X63791Y-51638D01*
X63699Y-51600D01*
X63640Y-51599D01*
X63640Y-51497D01*
X63666Y-51487D01*
X63736Y-51416D01*
X63774Y-51324D01*
X63775Y-51225D01*
X63775Y-51225D01*
X63804Y-51297D01*
X63952Y-51444D01*
X64145Y-51524D01*
X64353Y-51525D01*
X64547Y-51445D01*
X64694Y-51297D01*
X64747Y-51171D01*
X64789Y-51272D01*
X64882Y-51297D01*
X65179Y-51000D01*
X65173Y-50994D01*
X65244Y-50923D01*
X65250Y-50929D01*
X65255Y-50923D01*
X65326Y-50994D01*
X65320Y-51000D01*
X65617Y-51297D01*
X65710Y-51272D01*
X65779Y-51075D01*
X65768Y-50867D01*
X65736Y-50790D01*
X68250Y-50790D01*
X68500Y-50790D01*
X68610Y-50767D01*
X68705Y-50705D01*
X72368Y-47041D01*
X72390Y-47049D01*
X72608Y-47050D01*
X72811Y-46966D01*
X72965Y-46811D01*
X72999Y-46730D01*
X73033Y-46811D01*
X73188Y-46965D01*
X73390Y-47049D01*
X73608Y-47050D01*
X73775Y-46981D01*
X73775Y-51018D01*
X73609Y-50950D01*
X73391Y-50949D01*
X73188Y-51033D01*
X73049Y-51172D01*
X73049Y-51150D01*
X73011Y-51058D01*
X72941Y-50987D01*
X72849Y-50949D01*
X72612Y-50950D01*
X72550Y-51012D01*
X72550Y-51450D01*
X72557Y-51450D01*
X72557Y-51550D01*
X72550Y-51550D01*
X72550Y-51987D01*
X72612Y-52050D01*
X72849Y-52050D01*
X72941Y-52012D01*
X73011Y-51941D01*
X73049Y-51849D01*
X73049Y-51827D01*
X73188Y-51965D01*
X73390Y-52049D01*
X73608Y-52050D01*
X73775Y-51981D01*
X73775Y-54015D01*
X73775Y-54015D01*
G37*
G54D26*
X73775Y-54015D02*
X72265Y-55525D01*
X72025Y-55525D01*
X72025Y-54975D01*
X72025Y-54425D01*
X71987Y-54333D01*
X71916Y-54263D01*
X71824Y-54225D01*
X71725Y-54224D01*
X71175Y-54224D01*
X71083Y-54262D01*
X71013Y-54333D01*
X70975Y-54425D01*
X70974Y-54524D01*
X70974Y-54524D01*
X70945Y-54453D01*
X70797Y-54305D01*
X70604Y-54225D01*
X70396Y-54224D01*
X70203Y-54304D01*
X70055Y-54452D01*
X69999Y-54585D01*
X69945Y-54453D01*
X69797Y-54305D01*
X69604Y-54225D01*
X69396Y-54224D01*
X69203Y-54304D01*
X69055Y-54452D01*
X68999Y-54585D01*
X68945Y-54453D01*
X68797Y-54305D01*
X68604Y-54225D01*
X68396Y-54224D01*
X68203Y-54304D01*
X68055Y-54452D01*
X67975Y-54645D01*
X67974Y-54853D01*
X68054Y-55047D01*
X68202Y-55194D01*
X68395Y-55274D01*
X68603Y-55275D01*
X68797Y-55195D01*
X68944Y-55047D01*
X69000Y-54914D01*
X69054Y-55047D01*
X69202Y-55194D01*
X69395Y-55274D01*
X69603Y-55275D01*
X69797Y-55195D01*
X69944Y-55047D01*
X70000Y-54914D01*
X70054Y-55047D01*
X70202Y-55194D01*
X70395Y-55274D01*
X70603Y-55275D01*
X70797Y-55195D01*
X70944Y-55047D01*
X70974Y-54975D01*
X70974Y-55074D01*
X71012Y-55166D01*
X71083Y-55236D01*
X71175Y-55274D01*
X71274Y-55275D01*
X71824Y-55275D01*
X71916Y-55237D01*
X71986Y-55166D01*
X72024Y-55074D01*
X72025Y-54975D01*
X72025Y-55525D01*
X65529Y-55525D01*
X65529Y-53825D01*
X65518Y-53617D01*
X65460Y-53477D01*
X65367Y-53452D01*
X65297Y-53523D01*
X65297Y-53382D01*
X65272Y-53289D01*
X65075Y-53220D01*
X64867Y-53231D01*
X64727Y-53289D01*
X64702Y-53382D01*
X65000Y-53679D01*
X65297Y-53382D01*
X65297Y-53523D01*
X65070Y-53750D01*
X65367Y-54047D01*
X65460Y-54022D01*
X65529Y-53825D01*
X65529Y-55525D01*
X65297Y-55525D01*
X65297Y-54117D01*
X65000Y-53820D01*
X64929Y-53891D01*
X64929Y-53750D01*
X64632Y-53452D01*
X64539Y-53477D01*
X64470Y-53674D01*
X64481Y-53882D01*
X64539Y-54022D01*
X64632Y-54047D01*
X64929Y-53750D01*
X64929Y-53891D01*
X64702Y-54117D01*
X64727Y-54210D01*
X64924Y-54279D01*
X65132Y-54268D01*
X65272Y-54210D01*
X65297Y-54117D01*
X65297Y-55525D01*
X62356Y-55525D01*
X63606Y-54275D01*
X63824Y-54275D01*
X63916Y-54237D01*
X63986Y-54166D01*
X64024Y-54074D01*
X64025Y-53975D01*
X64025Y-53425D01*
X63987Y-53333D01*
X63936Y-53282D01*
X64010Y-53267D01*
X64105Y-53205D01*
X64410Y-52900D01*
X64999Y-52900D01*
X65091Y-52862D01*
X65161Y-52791D01*
X65199Y-52699D01*
X65200Y-52600D01*
X65200Y-52540D01*
X67000Y-52540D01*
X67110Y-52517D01*
X67205Y-52455D01*
X67610Y-52049D01*
X67811Y-51966D01*
X67965Y-51811D01*
X67999Y-51730D01*
X68033Y-51811D01*
X68188Y-51965D01*
X68390Y-52049D01*
X68608Y-52050D01*
X68811Y-51966D01*
X68965Y-51811D01*
X68999Y-51730D01*
X69033Y-51811D01*
X69188Y-51965D01*
X69390Y-52049D01*
X69608Y-52050D01*
X69811Y-51966D01*
X69965Y-51811D01*
X69999Y-51730D01*
X70033Y-51811D01*
X70188Y-51965D01*
X70390Y-52049D01*
X70608Y-52050D01*
X70811Y-51966D01*
X70965Y-51811D01*
X70999Y-51730D01*
X71033Y-51811D01*
X71188Y-51965D01*
X71390Y-52049D01*
X71608Y-52050D01*
X71811Y-51966D01*
X71950Y-51827D01*
X71950Y-51849D01*
X71988Y-51941D01*
X72058Y-52012D01*
X72150Y-52050D01*
X72387Y-52050D01*
X72450Y-51987D01*
X72450Y-51550D01*
X72442Y-51550D01*
X72442Y-51450D01*
X72450Y-51450D01*
X72450Y-51012D01*
X72387Y-50950D01*
X72150Y-50949D01*
X72058Y-50987D01*
X71988Y-51058D01*
X71950Y-51150D01*
X71950Y-51172D01*
X71811Y-51034D01*
X71609Y-50950D01*
X71391Y-50949D01*
X71188Y-51033D01*
X71034Y-51188D01*
X71000Y-51269D01*
X70966Y-51188D01*
X70811Y-51034D01*
X70609Y-50950D01*
X70391Y-50949D01*
X70188Y-51033D01*
X70034Y-51188D01*
X70000Y-51269D01*
X69966Y-51188D01*
X69811Y-51034D01*
X69609Y-50950D01*
X69391Y-50949D01*
X69188Y-51033D01*
X69034Y-51188D01*
X69000Y-51269D01*
X68966Y-51188D01*
X68811Y-51034D01*
X68609Y-50950D01*
X68391Y-50949D01*
X68188Y-51033D01*
X68034Y-51188D01*
X68000Y-51269D01*
X67966Y-51188D01*
X67811Y-51034D01*
X67609Y-50950D01*
X67391Y-50949D01*
X67188Y-51033D01*
X67049Y-51172D01*
X67049Y-51150D01*
X67011Y-51058D01*
X66941Y-50987D01*
X66849Y-50949D01*
X66612Y-50950D01*
X66550Y-51012D01*
X66550Y-51450D01*
X66557Y-51450D01*
X66557Y-51550D01*
X66550Y-51550D01*
X66550Y-51557D01*
X66450Y-51557D01*
X66450Y-51550D01*
X66450Y-51450D01*
X66450Y-51012D01*
X66387Y-50950D01*
X66150Y-50949D01*
X66058Y-50987D01*
X65988Y-51058D01*
X65950Y-51150D01*
X65949Y-51249D01*
X65950Y-51387D01*
X66012Y-51450D01*
X66450Y-51450D01*
X66450Y-51550D01*
X66012Y-51550D01*
X65950Y-51612D01*
X65949Y-51750D01*
X65950Y-51849D01*
X65988Y-51941D01*
X66006Y-51960D01*
X65547Y-51960D01*
X65547Y-51367D01*
X65250Y-51070D01*
X64952Y-51367D01*
X64977Y-51460D01*
X65174Y-51529D01*
X65382Y-51518D01*
X65522Y-51460D01*
X65547Y-51367D01*
X65547Y-51960D01*
X65200Y-51960D01*
X65200Y-51800D01*
X65162Y-51708D01*
X65091Y-51638D01*
X64999Y-51600D01*
X64900Y-51599D01*
X64300Y-51599D01*
X64208Y-51637D01*
X64138Y-51708D01*
X64100Y-51800D01*
X64099Y-51899D01*
X64099Y-52389D01*
X63900Y-52589D01*
X63900Y-51800D01*
X63862Y-51708D01*
X63791Y-51638D01*
X63699Y-51600D01*
X63640Y-51599D01*
X63640Y-51497D01*
X63666Y-51487D01*
X63736Y-51416D01*
X63774Y-51324D01*
X63775Y-51225D01*
X63775Y-51225D01*
X63804Y-51297D01*
X63952Y-51444D01*
X64145Y-51524D01*
X64353Y-51525D01*
X64547Y-51445D01*
X64694Y-51297D01*
X64747Y-51171D01*
X64789Y-51272D01*
X64882Y-51297D01*
X65179Y-51000D01*
X65173Y-50994D01*
X65244Y-50923D01*
X65250Y-50929D01*
X65255Y-50923D01*
X65326Y-50994D01*
X65320Y-51000D01*
X65617Y-51297D01*
X65710Y-51272D01*
X65779Y-51075D01*
X65768Y-50867D01*
X65736Y-50790D01*
X68250Y-50790D01*
X68500Y-50790D01*
X68610Y-50767D01*
X68705Y-50705D01*
X72368Y-47041D01*
X72390Y-47049D01*
X72608Y-47050D01*
X72811Y-46966D01*
X72965Y-46811D01*
X72999Y-46730D01*
X73033Y-46811D01*
X73188Y-46965D01*
X73390Y-47049D01*
X73608Y-47050D01*
X73775Y-46981D01*
X73775Y-51018D01*
X73609Y-50950D01*
X73391Y-50949D01*
X73188Y-51033D01*
X73049Y-51172D01*
X73049Y-51150D01*
X73011Y-51058D01*
X72941Y-50987D01*
X72849Y-50949D01*
X72612Y-50950D01*
X72550Y-51012D01*
X72550Y-51450D01*
X72557Y-51450D01*
X72557Y-51550D01*
X72550Y-51550D01*
X72550Y-51987D01*
X72612Y-52050D01*
X72849Y-52050D01*
X72941Y-52012D01*
X73011Y-51941D01*
X73049Y-51849D01*
X73049Y-51827D01*
X73188Y-51965D01*
X73390Y-52049D01*
X73608Y-52050D01*
X73775Y-51981D01*
X73775Y-54015D01*
M02*
