G04 (created by PCBNEW (2013-07-07 BZR 4022)-stable) date 26/03/2014 07:49:19*
%MOIN*%
G04 Gerber Fmt 3.4, Leading zero omitted, Abs format*
%FSLAX34Y34*%
G01*
G70*
G90*
G04 APERTURE LIST*
%ADD10C,0.00590551*%
%ADD11C,0.005*%
%ADD12C,0.0026*%
%ADD13C,0.004*%
%ADD14C,0.012*%
%ADD15C,0.01*%
%ADD16C,0.008*%
%ADD17C,0.0039*%
%ADD18C,0.015*%
%ADD19C,0.002*%
%ADD20C,0.0035*%
%ADD21C,0.0075*%
%ADD22C,0.0043*%
G04 APERTURE END LIST*
G54D10*
G54D11*
X57850Y-53650D02*
G75*
G03X57850Y-53650I-50J0D01*
G74*
G01*
X57800Y-53200D02*
X57800Y-53600D01*
X57800Y-53600D02*
X57200Y-53600D01*
X57200Y-53600D02*
X57200Y-53200D01*
X57200Y-52800D02*
X57200Y-52400D01*
X57200Y-52400D02*
X57800Y-52400D01*
X57800Y-52400D02*
X57800Y-52800D01*
X60850Y-53650D02*
G75*
G03X60850Y-53650I-50J0D01*
G74*
G01*
X60800Y-53200D02*
X60800Y-53600D01*
X60800Y-53600D02*
X60200Y-53600D01*
X60200Y-53600D02*
X60200Y-53200D01*
X60200Y-52800D02*
X60200Y-52400D01*
X60200Y-52400D02*
X60800Y-52400D01*
X60800Y-52400D02*
X60800Y-52800D01*
X68850Y-53650D02*
G75*
G03X68850Y-53650I-50J0D01*
G74*
G01*
X68800Y-53200D02*
X68800Y-53600D01*
X68800Y-53600D02*
X68200Y-53600D01*
X68200Y-53600D02*
X68200Y-53200D01*
X68200Y-52800D02*
X68200Y-52400D01*
X68200Y-52400D02*
X68800Y-52400D01*
X68800Y-52400D02*
X68800Y-52800D01*
X71850Y-53650D02*
G75*
G03X71850Y-53650I-50J0D01*
G74*
G01*
X71800Y-53200D02*
X71800Y-53600D01*
X71800Y-53600D02*
X71200Y-53600D01*
X71200Y-53600D02*
X71200Y-53200D01*
X71200Y-52800D02*
X71200Y-52400D01*
X71200Y-52400D02*
X71800Y-52400D01*
X71800Y-52400D02*
X71800Y-52800D01*
G54D12*
X52561Y-50539D02*
X52639Y-50539D01*
X52639Y-50539D02*
X52639Y-50461D01*
X52561Y-50461D02*
X52639Y-50461D01*
X52561Y-50539D02*
X52561Y-50461D01*
X52777Y-50775D02*
X52914Y-50775D01*
X52914Y-50775D02*
X52914Y-50677D01*
X52777Y-50677D02*
X52914Y-50677D01*
X52777Y-50775D02*
X52777Y-50677D01*
X52914Y-50775D02*
X52954Y-50775D01*
X52954Y-50775D02*
X52954Y-50304D01*
X52914Y-50304D02*
X52954Y-50304D01*
X52914Y-50775D02*
X52914Y-50304D01*
X52914Y-50284D02*
X52954Y-50284D01*
X52954Y-50284D02*
X52954Y-50225D01*
X52914Y-50225D02*
X52954Y-50225D01*
X52914Y-50284D02*
X52914Y-50225D01*
X52246Y-50775D02*
X52286Y-50775D01*
X52286Y-50775D02*
X52286Y-50304D01*
X52246Y-50304D02*
X52286Y-50304D01*
X52246Y-50775D02*
X52246Y-50304D01*
X52246Y-50284D02*
X52286Y-50284D01*
X52286Y-50284D02*
X52286Y-50225D01*
X52246Y-50225D02*
X52286Y-50225D01*
X52246Y-50284D02*
X52246Y-50225D01*
X52777Y-50775D02*
X52836Y-50775D01*
X52836Y-50775D02*
X52836Y-50677D01*
X52777Y-50677D02*
X52836Y-50677D01*
X52777Y-50775D02*
X52777Y-50677D01*
G54D13*
X53210Y-50795D02*
X51990Y-50795D01*
X51990Y-50795D02*
X51990Y-50205D01*
X51990Y-50205D02*
X53210Y-50205D01*
X53210Y-50205D02*
X53210Y-50795D01*
X52384Y-50696D02*
G75*
G03X52816Y-50695I215J196D01*
G74*
G01*
X52384Y-50303D02*
G75*
G03X52383Y-50695I215J-196D01*
G74*
G01*
X52815Y-50303D02*
G75*
G03X52383Y-50304I-215J-196D01*
G74*
G01*
X52815Y-50696D02*
G75*
G03X52816Y-50304I-215J196D01*
G74*
G01*
G54D14*
X44200Y-45100D02*
X41200Y-45100D01*
X41200Y-53100D02*
X44200Y-53100D01*
X41700Y-53100D02*
X41700Y-45100D01*
X44200Y-45100D02*
X44200Y-53100D01*
X41200Y-45100D02*
X41200Y-53100D01*
X71250Y-36250D02*
X72250Y-36250D01*
X72250Y-36250D02*
X72250Y-39250D01*
X72250Y-39250D02*
X71250Y-39250D01*
X71250Y-39250D02*
X71250Y-36250D01*
X72250Y-37250D02*
X71250Y-37250D01*
X62750Y-51500D02*
X62750Y-50500D01*
X62750Y-50500D02*
X65750Y-50500D01*
X65750Y-50500D02*
X65750Y-51500D01*
X65750Y-51500D02*
X62750Y-51500D01*
X63750Y-50500D02*
X63750Y-51500D01*
X62750Y-50500D02*
X62750Y-49500D01*
X62750Y-49500D02*
X65750Y-49500D01*
X65750Y-49500D02*
X65750Y-50500D01*
X65750Y-50500D02*
X62750Y-50500D01*
X63750Y-49500D02*
X63750Y-50500D01*
X62750Y-49500D02*
X62750Y-48500D01*
X62750Y-48500D02*
X65750Y-48500D01*
X65750Y-48500D02*
X65750Y-49500D01*
X65750Y-49500D02*
X62750Y-49500D01*
X63750Y-48500D02*
X63750Y-49500D01*
X62750Y-46500D02*
X62750Y-45500D01*
X62750Y-45500D02*
X65750Y-45500D01*
X65750Y-45500D02*
X65750Y-46500D01*
X65750Y-46500D02*
X62750Y-46500D01*
X63750Y-45500D02*
X63750Y-46500D01*
X62750Y-47500D02*
X62750Y-46500D01*
X62750Y-46500D02*
X65750Y-46500D01*
X65750Y-46500D02*
X65750Y-47500D01*
X65750Y-47500D02*
X62750Y-47500D01*
X63750Y-46500D02*
X63750Y-47500D01*
X62750Y-48500D02*
X62750Y-47500D01*
X62750Y-47500D02*
X65750Y-47500D01*
X65750Y-47500D02*
X65750Y-48500D01*
X65750Y-48500D02*
X62750Y-48500D01*
X63750Y-47500D02*
X63750Y-48500D01*
X71000Y-36500D02*
X71000Y-37500D01*
X71000Y-37500D02*
X68000Y-37500D01*
X68000Y-37500D02*
X68000Y-36500D01*
X68000Y-36500D02*
X71000Y-36500D01*
X70000Y-37500D02*
X70000Y-36500D01*
G54D11*
X44411Y-54250D02*
G75*
G03X44411Y-54250I-111J0D01*
G74*
G01*
X44500Y-52100D02*
X44500Y-54200D01*
X44400Y-52100D02*
X44400Y-54200D01*
X45700Y-54200D02*
X44400Y-54200D01*
X45700Y-52100D02*
X44400Y-52100D01*
X46900Y-52100D02*
X48200Y-52100D01*
X48200Y-52100D02*
X48200Y-54200D01*
X48200Y-54200D02*
X46900Y-54200D01*
X44561Y-47850D02*
G75*
G03X44561Y-47850I-111J0D01*
G74*
G01*
X44650Y-45700D02*
X44650Y-47800D01*
X44550Y-45700D02*
X44550Y-47800D01*
X45850Y-47800D02*
X44550Y-47800D01*
X45850Y-45700D02*
X44550Y-45700D01*
X47050Y-45700D02*
X48350Y-45700D01*
X48350Y-45700D02*
X48350Y-47800D01*
X48350Y-47800D02*
X47050Y-47800D01*
G54D14*
X67500Y-42200D02*
X67500Y-43200D01*
X67500Y-43200D02*
X62500Y-43200D01*
X62500Y-43200D02*
X62500Y-42200D01*
X62500Y-42200D02*
X67500Y-42200D01*
X66500Y-42200D02*
X66500Y-43200D01*
X67500Y-43200D02*
X67500Y-44200D01*
X67500Y-44200D02*
X62500Y-44200D01*
X62500Y-44200D02*
X62500Y-43200D01*
X62500Y-43200D02*
X67500Y-43200D01*
X66500Y-43200D02*
X66500Y-44200D01*
X61000Y-55250D02*
X61000Y-55250D01*
X61000Y-54250D02*
X61000Y-55250D01*
X61000Y-55250D02*
X61000Y-55250D01*
X61000Y-55250D02*
X57000Y-55250D01*
X57000Y-55250D02*
X57000Y-54250D01*
X57000Y-54250D02*
X61000Y-54250D01*
X60000Y-54250D02*
X60000Y-55250D01*
X72000Y-55250D02*
X72000Y-55250D01*
X72000Y-54250D02*
X72000Y-55250D01*
X72000Y-55250D02*
X72000Y-55250D01*
X72000Y-55250D02*
X68000Y-55250D01*
X68000Y-55250D02*
X68000Y-54250D01*
X68000Y-54250D02*
X72000Y-54250D01*
X71000Y-54250D02*
X71000Y-55250D01*
X68200Y-33900D02*
X72200Y-33900D01*
X72200Y-33900D02*
X72200Y-35900D01*
X72200Y-35900D02*
X68200Y-35900D01*
X68200Y-35900D02*
X68200Y-33900D01*
G54D15*
X54500Y-46000D02*
X62500Y-46000D01*
X62500Y-46000D02*
X62500Y-52000D01*
X62500Y-52000D02*
X54500Y-52000D01*
X54500Y-52000D02*
X54500Y-46000D01*
X66000Y-46000D02*
X74000Y-46000D01*
X74000Y-46000D02*
X74000Y-52000D01*
X74000Y-52000D02*
X66000Y-52000D01*
X66000Y-52000D02*
X66000Y-46000D01*
G54D14*
X72000Y-43750D02*
X71000Y-43750D01*
X71000Y-43750D02*
X71000Y-41750D01*
X71000Y-41750D02*
X72000Y-41750D01*
X72000Y-41750D02*
X72000Y-43750D01*
G54D12*
X53398Y-52630D02*
X53201Y-52630D01*
X53201Y-52630D02*
X53201Y-53043D01*
X53398Y-53043D02*
X53201Y-53043D01*
X53398Y-52630D02*
X53398Y-53043D01*
X53418Y-52748D02*
X53181Y-52748D01*
X53181Y-52748D02*
X53181Y-52994D01*
X53418Y-52994D02*
X53181Y-52994D01*
X53418Y-52748D02*
X53418Y-52994D01*
X52898Y-52630D02*
X52701Y-52630D01*
X52701Y-52630D02*
X52701Y-53043D01*
X52898Y-53043D02*
X52701Y-53043D01*
X52898Y-52630D02*
X52898Y-53043D01*
X52918Y-52748D02*
X52681Y-52748D01*
X52681Y-52748D02*
X52681Y-52994D01*
X52918Y-52994D02*
X52681Y-52994D01*
X52918Y-52748D02*
X52918Y-52994D01*
X52399Y-52630D02*
X52202Y-52630D01*
X52202Y-52630D02*
X52202Y-53043D01*
X52399Y-53043D02*
X52202Y-53043D01*
X52399Y-52630D02*
X52399Y-53043D01*
X52419Y-52748D02*
X52182Y-52748D01*
X52182Y-52748D02*
X52182Y-52994D01*
X52419Y-52994D02*
X52182Y-52994D01*
X52419Y-52748D02*
X52419Y-52994D01*
X51899Y-52630D02*
X51702Y-52630D01*
X51702Y-52630D02*
X51702Y-53043D01*
X51899Y-53043D02*
X51702Y-53043D01*
X51899Y-52630D02*
X51899Y-53043D01*
X51919Y-52748D02*
X51682Y-52748D01*
X51682Y-52748D02*
X51682Y-52994D01*
X51919Y-52994D02*
X51682Y-52994D01*
X51919Y-52748D02*
X51919Y-52994D01*
X53494Y-54657D02*
X51596Y-54657D01*
X51596Y-54657D02*
X51596Y-55070D01*
X53494Y-55070D02*
X51596Y-55070D01*
X53494Y-54657D02*
X53494Y-55070D01*
X53170Y-53447D02*
X51930Y-53447D01*
X51930Y-53447D02*
X51930Y-54666D01*
X53170Y-54666D02*
X51930Y-54666D01*
X53170Y-53447D02*
X53170Y-54666D01*
G54D16*
X53494Y-54617D02*
X51606Y-54617D01*
X51606Y-54617D02*
X51606Y-53083D01*
X51606Y-53083D02*
X53494Y-53083D01*
X53494Y-53083D02*
X53494Y-54617D01*
X53494Y-53083D02*
X53494Y-53368D01*
X51606Y-53368D02*
X51606Y-53083D01*
X53376Y-54696D02*
X53376Y-54952D01*
X53376Y-54952D02*
X53374Y-54972D01*
X53374Y-54972D02*
X53366Y-54991D01*
X53366Y-54991D02*
X53353Y-55008D01*
X53353Y-55008D02*
X53337Y-55020D01*
X53337Y-55020D02*
X53318Y-55028D01*
X53318Y-55028D02*
X53298Y-55031D01*
X53298Y-55031D02*
X51802Y-55031D01*
X51802Y-55031D02*
X51782Y-55028D01*
X51782Y-55028D02*
X51763Y-55020D01*
X51763Y-55020D02*
X51747Y-55008D01*
X51747Y-55008D02*
X51734Y-54991D01*
X51734Y-54991D02*
X51726Y-54972D01*
X51726Y-54972D02*
X51724Y-54952D01*
X51724Y-54952D02*
X51724Y-54696D01*
X51724Y-54696D02*
X52078Y-54696D01*
X52078Y-54696D02*
X52078Y-54755D01*
X52078Y-54755D02*
X53022Y-54755D01*
X53022Y-54755D02*
X53022Y-54696D01*
X53022Y-54696D02*
X53376Y-54696D01*
G54D13*
X53278Y-53850D02*
G75*
G03X53278Y-53850I-89J0D01*
G74*
G01*
G54D11*
X68050Y-40000D02*
X68950Y-40000D01*
X68950Y-40000D02*
X68950Y-39350D01*
X68050Y-38650D02*
X68050Y-38000D01*
X68050Y-38000D02*
X68950Y-38000D01*
X68950Y-38000D02*
X68950Y-38650D01*
X68050Y-39350D02*
X68050Y-40000D01*
X51050Y-48800D02*
X50150Y-48800D01*
X50150Y-48800D02*
X50150Y-49450D01*
X51050Y-50150D02*
X51050Y-50800D01*
X51050Y-50800D02*
X50150Y-50800D01*
X50150Y-50800D02*
X50150Y-50150D01*
X51050Y-49450D02*
X51050Y-48800D01*
G54D17*
X52950Y-51650D02*
G75*
G03X52950Y-51650I-50J0D01*
G74*
G01*
X52450Y-51650D02*
X52850Y-51650D01*
X52850Y-51650D02*
X52850Y-52250D01*
X52850Y-52250D02*
X52450Y-52250D01*
X52050Y-52250D02*
X51650Y-52250D01*
X51650Y-52250D02*
X51650Y-51650D01*
X51650Y-51650D02*
X52050Y-51650D01*
X53750Y-51700D02*
G75*
G03X53750Y-51700I-50J0D01*
G74*
G01*
X53700Y-52150D02*
X53700Y-51750D01*
X53700Y-51750D02*
X54300Y-51750D01*
X54300Y-51750D02*
X54300Y-52150D01*
X54300Y-52550D02*
X54300Y-52950D01*
X54300Y-52950D02*
X53700Y-52950D01*
X53700Y-52950D02*
X53700Y-52550D01*
X68250Y-40600D02*
G75*
G03X68250Y-40600I-50J0D01*
G74*
G01*
X68200Y-41050D02*
X68200Y-40650D01*
X68200Y-40650D02*
X68800Y-40650D01*
X68800Y-40650D02*
X68800Y-41050D01*
X68800Y-41450D02*
X68800Y-41850D01*
X68800Y-41850D02*
X68200Y-41850D01*
X68200Y-41850D02*
X68200Y-41450D01*
X52100Y-49900D02*
G75*
G03X52100Y-49900I-50J0D01*
G74*
G01*
X52050Y-49450D02*
X52050Y-49850D01*
X52050Y-49850D02*
X51450Y-49850D01*
X51450Y-49850D02*
X51450Y-49450D01*
X51450Y-49050D02*
X51450Y-48650D01*
X51450Y-48650D02*
X52050Y-48650D01*
X52050Y-48650D02*
X52050Y-49050D01*
X68850Y-43400D02*
G75*
G03X68850Y-43400I-50J0D01*
G74*
G01*
X68800Y-42950D02*
X68800Y-43350D01*
X68800Y-43350D02*
X68200Y-43350D01*
X68200Y-43350D02*
X68200Y-42950D01*
X68200Y-42550D02*
X68200Y-42150D01*
X68200Y-42150D02*
X68800Y-42150D01*
X68800Y-42150D02*
X68800Y-42550D01*
G54D16*
X47950Y-50100D02*
G75*
G03X47950Y-50100I-1600J0D01*
G74*
G01*
G54D18*
X66000Y-53750D02*
G75*
G03X66000Y-53750I-1750J0D01*
G74*
G01*
X71143Y-39984D02*
X70356Y-39984D01*
X70356Y-38212D02*
X70356Y-39787D01*
X70356Y-39787D02*
X71143Y-39787D01*
X71143Y-39787D02*
X71143Y-38212D01*
X71143Y-38212D02*
X70356Y-38212D01*
G54D11*
X70200Y-41750D02*
X69300Y-41750D01*
X69300Y-41750D02*
X69300Y-42400D01*
X70200Y-43100D02*
X70200Y-43750D01*
X70200Y-43750D02*
X69300Y-43750D01*
X69300Y-43750D02*
X69300Y-43100D01*
X70200Y-42400D02*
X70200Y-41750D01*
G54D18*
X49740Y-48325D02*
X48559Y-48325D01*
X49740Y-51277D02*
X48559Y-51277D01*
X48559Y-51277D02*
X48559Y-48522D01*
X48559Y-48522D02*
X49740Y-48522D01*
X49740Y-48522D02*
X49740Y-51277D01*
X49790Y-52575D02*
X48609Y-52575D01*
X49790Y-55527D02*
X48609Y-55527D01*
X48609Y-55527D02*
X48609Y-52772D01*
X48609Y-52772D02*
X49790Y-52772D01*
X49790Y-52772D02*
X49790Y-55527D01*
X50478Y-48293D02*
X50478Y-47506D01*
X53824Y-48293D02*
X53824Y-47506D01*
X53824Y-47506D02*
X50675Y-47506D01*
X50675Y-47506D02*
X50675Y-48293D01*
X50675Y-48293D02*
X53824Y-48293D01*
X70984Y-41393D02*
X70984Y-40606D01*
X69212Y-41393D02*
X69212Y-40606D01*
X69212Y-40606D02*
X70787Y-40606D01*
X70787Y-40606D02*
X70787Y-41393D01*
X70787Y-41393D02*
X69212Y-41393D01*
X69356Y-39984D02*
X70143Y-39984D01*
X69356Y-38212D02*
X70143Y-38212D01*
X70143Y-38212D02*
X70143Y-39787D01*
X70143Y-39787D02*
X69356Y-39787D01*
X69356Y-39787D02*
X69356Y-38212D01*
G54D12*
X51500Y-45600D02*
X51100Y-45600D01*
X51100Y-45600D02*
X51100Y-46000D01*
X51500Y-46000D02*
X51100Y-46000D01*
X51500Y-45600D02*
X51500Y-46000D01*
X53500Y-45600D02*
X53100Y-45600D01*
X53100Y-45600D02*
X53100Y-46000D01*
X53500Y-46000D02*
X53100Y-46000D01*
X53500Y-45600D02*
X53500Y-46000D01*
G54D11*
X50330Y-47300D02*
X50330Y-46730D01*
X54270Y-47300D02*
X54270Y-46730D01*
X54270Y-47300D02*
X50330Y-47300D01*
X50330Y-44300D02*
X50350Y-44400D01*
X50330Y-46730D02*
X50480Y-46870D01*
X50330Y-46730D02*
X50330Y-44300D01*
X50480Y-46870D02*
X50680Y-46990D01*
X50680Y-46990D02*
X50871Y-47070D01*
X50871Y-47070D02*
X51040Y-47120D01*
X51040Y-47120D02*
X51220Y-47150D01*
X51220Y-47150D02*
X51290Y-47150D01*
X52330Y-46730D02*
X52480Y-46870D01*
X52480Y-46870D02*
X52680Y-46990D01*
X52680Y-46990D02*
X52870Y-47070D01*
X52870Y-47070D02*
X53040Y-47120D01*
X53040Y-47120D02*
X53220Y-47150D01*
X53220Y-47150D02*
X53290Y-47150D01*
X54270Y-46730D02*
X54120Y-46870D01*
X54270Y-46730D02*
X54270Y-44300D01*
X54120Y-46870D02*
X53920Y-46990D01*
X53920Y-46990D02*
X53729Y-47070D01*
X53729Y-47070D02*
X53560Y-47120D01*
X53560Y-47120D02*
X53380Y-47150D01*
X53380Y-47150D02*
X53310Y-47150D01*
X52270Y-46730D02*
X52120Y-46870D01*
X52120Y-46870D02*
X51920Y-46990D01*
X51920Y-46990D02*
X51730Y-47070D01*
X51730Y-47070D02*
X51560Y-47120D01*
X51560Y-47120D02*
X51380Y-47150D01*
X51380Y-47150D02*
X51310Y-47150D01*
X52330Y-46730D02*
X52270Y-46730D01*
X50350Y-44400D02*
X50350Y-44200D01*
X54250Y-44050D02*
X54250Y-44200D01*
X50350Y-44400D02*
X51000Y-44400D01*
X54250Y-44400D02*
X54270Y-44300D01*
G54D19*
X51000Y-44400D02*
X51000Y-44200D01*
G54D11*
X51000Y-44400D02*
X51600Y-44400D01*
G54D19*
X51600Y-44400D02*
X51600Y-44200D01*
G54D11*
X51600Y-44400D02*
X53000Y-44400D01*
G54D19*
X53000Y-44400D02*
X53000Y-44200D01*
G54D11*
X53000Y-44400D02*
X53600Y-44400D01*
G54D19*
X53600Y-44400D02*
X53600Y-44200D01*
G54D11*
X53600Y-44400D02*
X54250Y-44400D01*
X54250Y-44050D02*
X53500Y-44050D01*
G54D19*
X54250Y-44200D02*
X53600Y-44200D01*
G54D11*
X54250Y-44200D02*
X54250Y-44400D01*
G54D19*
X53600Y-44200D02*
X53500Y-44050D01*
G54D11*
X53500Y-44050D02*
X53100Y-44050D01*
G54D19*
X53000Y-44200D02*
X51600Y-44200D01*
X53000Y-44200D02*
X53100Y-44050D01*
G54D11*
X53100Y-44050D02*
X51500Y-44050D01*
G54D19*
X51600Y-44200D02*
X51500Y-44050D01*
G54D11*
X51500Y-44050D02*
X51100Y-44050D01*
G54D19*
X51000Y-44200D02*
X50350Y-44200D01*
X51000Y-44200D02*
X51100Y-44050D01*
G54D11*
X51100Y-44050D02*
X50350Y-44050D01*
X50350Y-44200D02*
X50350Y-44050D01*
G54D14*
X57100Y-43900D02*
X57100Y-42900D01*
X57100Y-42900D02*
X62100Y-42900D01*
X62100Y-42900D02*
X62100Y-43900D01*
X62100Y-43900D02*
X57100Y-43900D01*
X58100Y-43900D02*
X58100Y-42900D01*
G54D20*
X52407Y-51221D02*
X52264Y-51221D01*
X52264Y-50921D01*
X52507Y-51064D02*
X52607Y-51064D01*
X52650Y-51221D02*
X52507Y-51221D01*
X52507Y-50921D01*
X52650Y-50921D01*
X52778Y-51221D02*
X52778Y-50921D01*
X52850Y-50921D01*
X52892Y-50935D01*
X52921Y-50964D01*
X52935Y-50992D01*
X52950Y-51050D01*
X52950Y-51092D01*
X52935Y-51150D01*
X52921Y-51178D01*
X52892Y-51207D01*
X52850Y-51221D01*
X52778Y-51221D01*
G54D14*
X40771Y-50657D02*
X40771Y-50371D01*
X40942Y-50714D02*
X40342Y-50514D01*
X40942Y-50314D01*
X40942Y-49828D02*
X40942Y-50114D01*
X40342Y-50114D01*
X40942Y-49628D02*
X40342Y-49628D01*
X40942Y-49342D02*
X40342Y-49342D01*
X40771Y-49142D01*
X40342Y-48942D01*
X40942Y-48942D01*
X41000Y-48800D02*
X41000Y-48342D01*
X40942Y-48200D02*
X40342Y-48200D01*
X40942Y-47914D02*
X40342Y-47914D01*
X40942Y-47571D01*
X40342Y-47571D01*
G54D21*
X45914Y-53542D02*
X45914Y-53642D01*
X46071Y-53642D02*
X45771Y-53642D01*
X45771Y-53500D01*
X45771Y-53385D02*
X46014Y-53385D01*
X46042Y-53371D01*
X46057Y-53357D01*
X46071Y-53328D01*
X46071Y-53271D01*
X46057Y-53242D01*
X46042Y-53228D01*
X46014Y-53214D01*
X45771Y-53214D01*
X46057Y-53085D02*
X46071Y-53042D01*
X46071Y-52971D01*
X46057Y-52942D01*
X46042Y-52928D01*
X46014Y-52914D01*
X45985Y-52914D01*
X45957Y-52928D01*
X45942Y-52942D01*
X45928Y-52971D01*
X45914Y-53028D01*
X45900Y-53057D01*
X45885Y-53071D01*
X45857Y-53085D01*
X45828Y-53085D01*
X45800Y-53071D01*
X45785Y-53057D01*
X45771Y-53028D01*
X45771Y-52957D01*
X45785Y-52914D01*
X45914Y-52785D02*
X45914Y-52685D01*
X46071Y-52642D02*
X46071Y-52785D01*
X45771Y-52785D01*
X45771Y-52642D01*
X46064Y-47142D02*
X46064Y-47242D01*
X46221Y-47242D02*
X45921Y-47242D01*
X45921Y-47100D01*
X45921Y-46985D02*
X46164Y-46985D01*
X46192Y-46971D01*
X46207Y-46957D01*
X46221Y-46928D01*
X46221Y-46871D01*
X46207Y-46842D01*
X46192Y-46828D01*
X46164Y-46814D01*
X45921Y-46814D01*
X46207Y-46685D02*
X46221Y-46642D01*
X46221Y-46571D01*
X46207Y-46542D01*
X46192Y-46528D01*
X46164Y-46514D01*
X46135Y-46514D01*
X46107Y-46528D01*
X46092Y-46542D01*
X46078Y-46571D01*
X46064Y-46628D01*
X46050Y-46657D01*
X46035Y-46671D01*
X46007Y-46685D01*
X45978Y-46685D01*
X45950Y-46671D01*
X45935Y-46657D01*
X45921Y-46628D01*
X45921Y-46557D01*
X45935Y-46514D01*
X46064Y-46385D02*
X46064Y-46285D01*
X46221Y-46242D02*
X46221Y-46385D01*
X45921Y-46385D01*
X45921Y-46242D01*
G54D14*
X55285Y-48702D02*
X55285Y-48202D01*
X55514Y-48202D01*
X55571Y-48226D01*
X55600Y-48250D01*
X55628Y-48297D01*
X55628Y-48369D01*
X55600Y-48416D01*
X55571Y-48440D01*
X55514Y-48464D01*
X55285Y-48464D01*
X56000Y-48202D02*
X56114Y-48202D01*
X56171Y-48226D01*
X56228Y-48273D01*
X56257Y-48369D01*
X56257Y-48535D01*
X56228Y-48630D01*
X56171Y-48678D01*
X56114Y-48702D01*
X56000Y-48702D01*
X55942Y-48678D01*
X55885Y-48630D01*
X55857Y-48535D01*
X55857Y-48369D01*
X55885Y-48273D01*
X55942Y-48226D01*
X56000Y-48202D01*
X56799Y-48702D02*
X56514Y-48702D01*
X56514Y-48202D01*
X57114Y-48202D02*
X57228Y-48202D01*
X57285Y-48226D01*
X57342Y-48273D01*
X57371Y-48369D01*
X57371Y-48535D01*
X57342Y-48630D01*
X57285Y-48678D01*
X57228Y-48702D01*
X57114Y-48702D01*
X57057Y-48678D01*
X56999Y-48630D01*
X56971Y-48535D01*
X56971Y-48369D01*
X56999Y-48273D01*
X57057Y-48226D01*
X57114Y-48202D01*
X57914Y-48702D02*
X57628Y-48702D01*
X57628Y-48202D01*
X58114Y-48202D02*
X58114Y-48607D01*
X58142Y-48654D01*
X58171Y-48678D01*
X58228Y-48702D01*
X58342Y-48702D01*
X58399Y-48678D01*
X58428Y-48654D01*
X58457Y-48607D01*
X58457Y-48202D01*
X58599Y-48750D02*
X59057Y-48750D01*
X59171Y-48559D02*
X59457Y-48559D01*
X59114Y-48702D02*
X59314Y-48202D01*
X59514Y-48702D01*
X59971Y-48369D02*
X59971Y-48702D01*
X59828Y-48178D02*
X59685Y-48535D01*
X60057Y-48535D01*
X60314Y-48702D02*
X60428Y-48702D01*
X60485Y-48678D01*
X60514Y-48654D01*
X60571Y-48583D01*
X60599Y-48488D01*
X60599Y-48297D01*
X60571Y-48250D01*
X60542Y-48226D01*
X60485Y-48202D01*
X60371Y-48202D01*
X60314Y-48226D01*
X60285Y-48250D01*
X60257Y-48297D01*
X60257Y-48416D01*
X60285Y-48464D01*
X60314Y-48488D01*
X60371Y-48511D01*
X60485Y-48511D01*
X60542Y-48488D01*
X60571Y-48464D01*
X60599Y-48416D01*
X60942Y-48416D02*
X60885Y-48392D01*
X60857Y-48369D01*
X60828Y-48321D01*
X60828Y-48297D01*
X60857Y-48250D01*
X60885Y-48226D01*
X60942Y-48202D01*
X61057Y-48202D01*
X61114Y-48226D01*
X61142Y-48250D01*
X61171Y-48297D01*
X61171Y-48321D01*
X61142Y-48369D01*
X61114Y-48392D01*
X61057Y-48416D01*
X60942Y-48416D01*
X60885Y-48440D01*
X60857Y-48464D01*
X60828Y-48511D01*
X60828Y-48607D01*
X60857Y-48654D01*
X60885Y-48678D01*
X60942Y-48702D01*
X61057Y-48702D01*
X61114Y-48678D01*
X61142Y-48654D01*
X61171Y-48607D01*
X61171Y-48511D01*
X61142Y-48464D01*
X61114Y-48440D01*
X61057Y-48416D01*
X61514Y-48416D02*
X61457Y-48392D01*
X61428Y-48369D01*
X61400Y-48321D01*
X61400Y-48297D01*
X61428Y-48250D01*
X61457Y-48226D01*
X61514Y-48202D01*
X61628Y-48202D01*
X61685Y-48226D01*
X61714Y-48250D01*
X61742Y-48297D01*
X61742Y-48321D01*
X61714Y-48369D01*
X61685Y-48392D01*
X61628Y-48416D01*
X61514Y-48416D01*
X61457Y-48440D01*
X61428Y-48464D01*
X61400Y-48511D01*
X61400Y-48607D01*
X61428Y-48654D01*
X61457Y-48678D01*
X61514Y-48702D01*
X61628Y-48702D01*
X61685Y-48678D01*
X61714Y-48654D01*
X61742Y-48607D01*
X61742Y-48511D01*
X61714Y-48464D01*
X61685Y-48440D01*
X61628Y-48416D01*
X66785Y-48702D02*
X66785Y-48202D01*
X67014Y-48202D01*
X67071Y-48226D01*
X67100Y-48250D01*
X67128Y-48297D01*
X67128Y-48369D01*
X67100Y-48416D01*
X67071Y-48440D01*
X67014Y-48464D01*
X66785Y-48464D01*
X67500Y-48202D02*
X67614Y-48202D01*
X67671Y-48226D01*
X67728Y-48273D01*
X67757Y-48369D01*
X67757Y-48535D01*
X67728Y-48630D01*
X67671Y-48678D01*
X67614Y-48702D01*
X67500Y-48702D01*
X67442Y-48678D01*
X67385Y-48630D01*
X67357Y-48535D01*
X67357Y-48369D01*
X67385Y-48273D01*
X67442Y-48226D01*
X67500Y-48202D01*
X68299Y-48702D02*
X68014Y-48702D01*
X68014Y-48202D01*
X68614Y-48202D02*
X68728Y-48202D01*
X68785Y-48226D01*
X68842Y-48273D01*
X68871Y-48369D01*
X68871Y-48535D01*
X68842Y-48630D01*
X68785Y-48678D01*
X68728Y-48702D01*
X68614Y-48702D01*
X68557Y-48678D01*
X68499Y-48630D01*
X68471Y-48535D01*
X68471Y-48369D01*
X68499Y-48273D01*
X68557Y-48226D01*
X68614Y-48202D01*
X69414Y-48702D02*
X69128Y-48702D01*
X69128Y-48202D01*
X69614Y-48202D02*
X69614Y-48607D01*
X69642Y-48654D01*
X69671Y-48678D01*
X69728Y-48702D01*
X69842Y-48702D01*
X69899Y-48678D01*
X69928Y-48654D01*
X69957Y-48607D01*
X69957Y-48202D01*
X70099Y-48750D02*
X70557Y-48750D01*
X70671Y-48559D02*
X70957Y-48559D01*
X70614Y-48702D02*
X70814Y-48202D01*
X71014Y-48702D01*
X71471Y-48369D02*
X71471Y-48702D01*
X71328Y-48178D02*
X71185Y-48535D01*
X71557Y-48535D01*
X71814Y-48702D02*
X71928Y-48702D01*
X71985Y-48678D01*
X72014Y-48654D01*
X72071Y-48583D01*
X72099Y-48488D01*
X72099Y-48297D01*
X72071Y-48250D01*
X72042Y-48226D01*
X71985Y-48202D01*
X71871Y-48202D01*
X71814Y-48226D01*
X71785Y-48250D01*
X71757Y-48297D01*
X71757Y-48416D01*
X71785Y-48464D01*
X71814Y-48488D01*
X71871Y-48511D01*
X71985Y-48511D01*
X72042Y-48488D01*
X72071Y-48464D01*
X72099Y-48416D01*
X72442Y-48416D02*
X72385Y-48392D01*
X72357Y-48369D01*
X72328Y-48321D01*
X72328Y-48297D01*
X72357Y-48250D01*
X72385Y-48226D01*
X72442Y-48202D01*
X72557Y-48202D01*
X72614Y-48226D01*
X72642Y-48250D01*
X72671Y-48297D01*
X72671Y-48321D01*
X72642Y-48369D01*
X72614Y-48392D01*
X72557Y-48416D01*
X72442Y-48416D01*
X72385Y-48440D01*
X72357Y-48464D01*
X72328Y-48511D01*
X72328Y-48607D01*
X72357Y-48654D01*
X72385Y-48678D01*
X72442Y-48702D01*
X72557Y-48702D01*
X72614Y-48678D01*
X72642Y-48654D01*
X72671Y-48607D01*
X72671Y-48511D01*
X72642Y-48464D01*
X72614Y-48440D01*
X72557Y-48416D01*
X73014Y-48416D02*
X72957Y-48392D01*
X72928Y-48369D01*
X72900Y-48321D01*
X72900Y-48297D01*
X72928Y-48250D01*
X72957Y-48226D01*
X73014Y-48202D01*
X73128Y-48202D01*
X73185Y-48226D01*
X73214Y-48250D01*
X73242Y-48297D01*
X73242Y-48321D01*
X73214Y-48369D01*
X73185Y-48392D01*
X73128Y-48416D01*
X73014Y-48416D01*
X72957Y-48440D01*
X72928Y-48464D01*
X72900Y-48511D01*
X72900Y-48607D01*
X72928Y-48654D01*
X72957Y-48678D01*
X73014Y-48702D01*
X73128Y-48702D01*
X73185Y-48678D01*
X73214Y-48654D01*
X73242Y-48607D01*
X73242Y-48511D01*
X73214Y-48464D01*
X73185Y-48440D01*
X73128Y-48416D01*
G54D22*
X52113Y-51879D02*
X52001Y-51879D01*
X52057Y-51879D02*
X52057Y-51682D01*
X52038Y-51710D01*
X52020Y-51729D01*
X52001Y-51739D01*
X52235Y-51682D02*
X52254Y-51682D01*
X52273Y-51692D01*
X52282Y-51701D01*
X52292Y-51720D01*
X52301Y-51757D01*
X52301Y-51804D01*
X52292Y-51842D01*
X52282Y-51860D01*
X52273Y-51870D01*
X52254Y-51879D01*
X52235Y-51879D01*
X52217Y-51870D01*
X52207Y-51860D01*
X52198Y-51842D01*
X52189Y-51804D01*
X52189Y-51757D01*
X52198Y-51720D01*
X52207Y-51701D01*
X52217Y-51692D01*
X52235Y-51682D01*
X52498Y-51879D02*
X52432Y-51785D01*
X52386Y-51879D02*
X52386Y-51682D01*
X52461Y-51682D01*
X52479Y-51692D01*
X52489Y-51701D01*
X52498Y-51720D01*
X52498Y-51748D01*
X52489Y-51767D01*
X52479Y-51776D01*
X52461Y-51785D01*
X52386Y-51785D01*
X53929Y-52579D02*
X53929Y-52692D01*
X53929Y-52636D02*
X53732Y-52636D01*
X53760Y-52654D01*
X53779Y-52673D01*
X53789Y-52692D01*
X53732Y-52457D02*
X53732Y-52439D01*
X53742Y-52420D01*
X53751Y-52410D01*
X53770Y-52401D01*
X53807Y-52392D01*
X53854Y-52392D01*
X53892Y-52401D01*
X53910Y-52410D01*
X53920Y-52420D01*
X53929Y-52439D01*
X53929Y-52457D01*
X53920Y-52476D01*
X53910Y-52486D01*
X53892Y-52495D01*
X53854Y-52504D01*
X53807Y-52504D01*
X53770Y-52495D01*
X53751Y-52486D01*
X53742Y-52476D01*
X53732Y-52457D01*
X53732Y-52270D02*
X53732Y-52251D01*
X53742Y-52232D01*
X53751Y-52223D01*
X53770Y-52213D01*
X53807Y-52204D01*
X53854Y-52204D01*
X53892Y-52213D01*
X53910Y-52223D01*
X53920Y-52232D01*
X53929Y-52251D01*
X53929Y-52270D01*
X53920Y-52289D01*
X53910Y-52298D01*
X53892Y-52307D01*
X53854Y-52317D01*
X53807Y-52317D01*
X53770Y-52307D01*
X53751Y-52298D01*
X53742Y-52289D01*
X53732Y-52270D01*
X53929Y-52120D02*
X53732Y-52120D01*
X53929Y-52007D02*
X53817Y-52092D01*
X53732Y-52007D02*
X53845Y-52120D01*
X68298Y-41451D02*
X68429Y-41451D01*
X68223Y-41498D02*
X68364Y-41545D01*
X68364Y-41423D01*
X68410Y-41348D02*
X68420Y-41339D01*
X68429Y-41348D01*
X68420Y-41357D01*
X68410Y-41348D01*
X68429Y-41348D01*
X68232Y-41273D02*
X68232Y-41142D01*
X68429Y-41226D01*
X68429Y-41067D02*
X68232Y-41067D01*
X68429Y-40954D02*
X68317Y-41038D01*
X68232Y-40954D02*
X68345Y-41067D01*
X51979Y-49432D02*
X51979Y-49545D01*
X51979Y-49489D02*
X51782Y-49489D01*
X51810Y-49507D01*
X51829Y-49526D01*
X51839Y-49545D01*
X51960Y-49348D02*
X51970Y-49339D01*
X51979Y-49348D01*
X51970Y-49357D01*
X51960Y-49348D01*
X51979Y-49348D01*
X51867Y-49226D02*
X51857Y-49245D01*
X51848Y-49254D01*
X51829Y-49264D01*
X51820Y-49264D01*
X51801Y-49254D01*
X51792Y-49245D01*
X51782Y-49226D01*
X51782Y-49189D01*
X51792Y-49170D01*
X51801Y-49160D01*
X51820Y-49151D01*
X51829Y-49151D01*
X51848Y-49160D01*
X51857Y-49170D01*
X51867Y-49189D01*
X51867Y-49226D01*
X51876Y-49245D01*
X51885Y-49254D01*
X51904Y-49264D01*
X51942Y-49264D01*
X51960Y-49254D01*
X51970Y-49245D01*
X51979Y-49226D01*
X51979Y-49189D01*
X51970Y-49170D01*
X51960Y-49160D01*
X51942Y-49151D01*
X51904Y-49151D01*
X51885Y-49160D01*
X51876Y-49170D01*
X51867Y-49189D01*
X51979Y-49067D02*
X51782Y-49067D01*
X51979Y-48954D02*
X51867Y-49038D01*
X51782Y-48954D02*
X51895Y-49067D01*
X68598Y-42951D02*
X68729Y-42951D01*
X68523Y-42998D02*
X68664Y-43045D01*
X68664Y-42923D01*
X68710Y-42848D02*
X68720Y-42839D01*
X68729Y-42848D01*
X68720Y-42857D01*
X68710Y-42848D01*
X68729Y-42848D01*
X68532Y-42773D02*
X68532Y-42642D01*
X68729Y-42726D01*
X68729Y-42567D02*
X68532Y-42567D01*
X68729Y-42454D02*
X68617Y-42538D01*
X68532Y-42454D02*
X68645Y-42567D01*
G54D16*
X47210Y-50641D02*
X47210Y-50841D01*
X47210Y-50741D02*
X46810Y-50741D01*
X46868Y-50775D01*
X46906Y-50808D01*
X46925Y-50841D01*
X46810Y-50425D02*
X46810Y-50391D01*
X46829Y-50358D01*
X46849Y-50341D01*
X46887Y-50325D01*
X46963Y-50308D01*
X47058Y-50308D01*
X47134Y-50325D01*
X47172Y-50341D01*
X47191Y-50358D01*
X47210Y-50391D01*
X47210Y-50425D01*
X47191Y-50458D01*
X47172Y-50475D01*
X47134Y-50491D01*
X47058Y-50508D01*
X46963Y-50508D01*
X46887Y-50491D01*
X46849Y-50475D01*
X46829Y-50458D01*
X46810Y-50425D01*
X46810Y-50091D02*
X46810Y-50058D01*
X46829Y-50025D01*
X46849Y-50008D01*
X46887Y-49991D01*
X46963Y-49975D01*
X47058Y-49975D01*
X47134Y-49991D01*
X47172Y-50008D01*
X47191Y-50025D01*
X47210Y-50058D01*
X47210Y-50091D01*
X47191Y-50125D01*
X47172Y-50141D01*
X47134Y-50158D01*
X47058Y-50175D01*
X46963Y-50175D01*
X46887Y-50158D01*
X46849Y-50141D01*
X46829Y-50125D01*
X46810Y-50091D01*
X46944Y-49674D02*
X47210Y-49674D01*
X46944Y-49824D02*
X47153Y-49824D01*
X47191Y-49808D01*
X47210Y-49774D01*
X47210Y-49724D01*
X47191Y-49691D01*
X47172Y-49674D01*
X47001Y-49391D02*
X47001Y-49508D01*
X47210Y-49508D02*
X46810Y-49508D01*
X46810Y-49341D01*
X63592Y-52745D02*
X63592Y-53011D01*
X63497Y-52592D02*
X63402Y-52878D01*
X63650Y-52878D01*
X63764Y-52611D02*
X64030Y-52611D01*
X63859Y-53011D01*
X64259Y-52611D02*
X64297Y-52611D01*
X64335Y-52630D01*
X64354Y-52650D01*
X64373Y-52688D01*
X64392Y-52764D01*
X64392Y-52859D01*
X64373Y-52935D01*
X64354Y-52973D01*
X64335Y-52992D01*
X64297Y-53011D01*
X64259Y-53011D01*
X64221Y-52992D01*
X64202Y-52973D01*
X64183Y-52935D01*
X64164Y-52859D01*
X64164Y-52764D01*
X64183Y-52688D01*
X64202Y-52650D01*
X64221Y-52630D01*
X64259Y-52611D01*
X64735Y-52745D02*
X64735Y-53011D01*
X64564Y-52745D02*
X64564Y-52954D01*
X64583Y-52992D01*
X64621Y-53011D01*
X64678Y-53011D01*
X64716Y-52992D01*
X64735Y-52973D01*
X65059Y-52802D02*
X64926Y-52802D01*
X64926Y-53011D02*
X64926Y-52611D01*
X65116Y-52611D01*
G54D14*
X69980Y-42357D02*
X70008Y-42271D01*
X70008Y-42128D01*
X69980Y-42071D01*
X69951Y-42042D01*
X69894Y-42014D01*
X69837Y-42014D01*
X69780Y-42042D01*
X69751Y-42071D01*
X69722Y-42128D01*
X69694Y-42242D01*
X69665Y-42300D01*
X69637Y-42328D01*
X69580Y-42357D01*
X69522Y-42357D01*
X69465Y-42328D01*
X69437Y-42300D01*
X69408Y-42242D01*
X69408Y-42100D01*
X69437Y-42014D01*
X69408Y-41814D02*
X69408Y-41414D01*
X70008Y-41814D01*
X70008Y-41414D01*
X70008Y-41185D02*
X69408Y-41185D01*
X69837Y-40985D01*
X69408Y-40785D01*
X70008Y-40785D01*
X70008Y-40500D02*
X69408Y-40500D01*
X69837Y-40300D01*
X69408Y-40100D01*
X70008Y-40100D01*
X69408Y-39871D02*
X69408Y-39500D01*
X69637Y-39700D01*
X69637Y-39614D01*
X69665Y-39557D01*
X69694Y-39528D01*
X69751Y-39500D01*
X69894Y-39500D01*
X69951Y-39528D01*
X69980Y-39557D01*
X70008Y-39614D01*
X70008Y-39785D01*
X69980Y-39842D01*
X69951Y-39871D01*
X69408Y-39300D02*
X69408Y-38900D01*
X70008Y-39300D01*
X70008Y-38900D01*
X69608Y-38414D02*
X70008Y-38414D01*
X69380Y-38557D02*
X69808Y-38700D01*
X69808Y-38328D01*
X69408Y-38185D02*
X70008Y-37985D01*
X69408Y-37785D01*
X69408Y-37642D02*
X69408Y-37242D01*
X70008Y-37642D01*
X70008Y-37242D01*
X69408Y-37099D02*
X69408Y-36757D01*
X70008Y-36928D02*
X69408Y-36928D01*
X70008Y-36242D02*
X70008Y-36585D01*
X70008Y-36414D02*
X69408Y-36414D01*
X69494Y-36471D01*
X69551Y-36528D01*
X69580Y-36585D01*
X69437Y-35671D02*
X69408Y-35728D01*
X69408Y-35814D01*
X69437Y-35899D01*
X69494Y-35957D01*
X69551Y-35985D01*
X69665Y-36014D01*
X69751Y-36014D01*
X69865Y-35985D01*
X69922Y-35957D01*
X69980Y-35899D01*
X70008Y-35814D01*
X70008Y-35757D01*
X69980Y-35671D01*
X69951Y-35642D01*
X69751Y-35642D01*
X69751Y-35757D01*
X44695Y-51098D02*
X44781Y-51127D01*
X44924Y-51127D01*
X44981Y-51098D01*
X45010Y-51069D01*
X45038Y-51012D01*
X45038Y-50955D01*
X45010Y-50898D01*
X44981Y-50869D01*
X44924Y-50841D01*
X44810Y-50812D01*
X44752Y-50784D01*
X44724Y-50755D01*
X44695Y-50698D01*
X44695Y-50641D01*
X44724Y-50584D01*
X44752Y-50555D01*
X44810Y-50527D01*
X44952Y-50527D01*
X45038Y-50555D01*
X45295Y-51127D02*
X45295Y-50527D01*
X45638Y-51127D02*
X45381Y-50784D01*
X45638Y-50527D02*
X45295Y-50869D01*
X45838Y-50527D02*
X46210Y-50527D01*
X46010Y-50755D01*
X46095Y-50755D01*
X46152Y-50784D01*
X46181Y-50812D01*
X46210Y-50869D01*
X46210Y-51012D01*
X46181Y-51069D01*
X46152Y-51098D01*
X46095Y-51127D01*
X45924Y-51127D01*
X45867Y-51098D01*
X45838Y-51069D01*
X46781Y-51127D02*
X46438Y-51127D01*
X46610Y-51127D02*
X46610Y-50527D01*
X46552Y-50612D01*
X46495Y-50669D01*
X46438Y-50698D01*
X47152Y-50527D02*
X47210Y-50527D01*
X47267Y-50555D01*
X47295Y-50584D01*
X47324Y-50641D01*
X47352Y-50755D01*
X47352Y-50898D01*
X47324Y-51012D01*
X47295Y-51069D01*
X47267Y-51098D01*
X47210Y-51127D01*
X47152Y-51127D01*
X47095Y-51098D01*
X47067Y-51069D01*
X47038Y-51012D01*
X47010Y-50898D01*
X47010Y-50755D01*
X47038Y-50641D01*
X47067Y-50584D01*
X47095Y-50555D01*
X47152Y-50527D01*
X47581Y-50955D02*
X47867Y-50955D01*
X47524Y-51127D02*
X47724Y-50527D01*
X47924Y-51127D01*
X48124Y-50898D02*
X48581Y-50898D01*
X48781Y-50527D02*
X49124Y-50527D01*
X48952Y-51127D02*
X48952Y-50527D01*
X49324Y-51127D02*
X49324Y-50527D01*
X49552Y-50527D01*
X49610Y-50555D01*
X49638Y-50584D01*
X49667Y-50641D01*
X49667Y-50727D01*
X49638Y-50784D01*
X49610Y-50812D01*
X49552Y-50841D01*
X49324Y-50841D01*
X44745Y-55348D02*
X44831Y-55377D01*
X44974Y-55377D01*
X45031Y-55348D01*
X45060Y-55319D01*
X45088Y-55262D01*
X45088Y-55205D01*
X45060Y-55148D01*
X45031Y-55119D01*
X44974Y-55091D01*
X44860Y-55062D01*
X44802Y-55034D01*
X44774Y-55005D01*
X44745Y-54948D01*
X44745Y-54891D01*
X44774Y-54834D01*
X44802Y-54805D01*
X44860Y-54777D01*
X45002Y-54777D01*
X45088Y-54805D01*
X45345Y-55377D02*
X45345Y-54777D01*
X45688Y-55377D02*
X45431Y-55034D01*
X45688Y-54777D02*
X45345Y-55119D01*
X45888Y-54777D02*
X46260Y-54777D01*
X46060Y-55005D01*
X46145Y-55005D01*
X46202Y-55034D01*
X46231Y-55062D01*
X46260Y-55119D01*
X46260Y-55262D01*
X46231Y-55319D01*
X46202Y-55348D01*
X46145Y-55377D01*
X45974Y-55377D01*
X45917Y-55348D01*
X45888Y-55319D01*
X46831Y-55377D02*
X46488Y-55377D01*
X46660Y-55377D02*
X46660Y-54777D01*
X46602Y-54862D01*
X46545Y-54919D01*
X46488Y-54948D01*
X47202Y-54777D02*
X47260Y-54777D01*
X47317Y-54805D01*
X47345Y-54834D01*
X47374Y-54891D01*
X47402Y-55005D01*
X47402Y-55148D01*
X47374Y-55262D01*
X47345Y-55319D01*
X47317Y-55348D01*
X47260Y-55377D01*
X47202Y-55377D01*
X47145Y-55348D01*
X47117Y-55319D01*
X47088Y-55262D01*
X47060Y-55148D01*
X47060Y-55005D01*
X47088Y-54891D01*
X47117Y-54834D01*
X47145Y-54805D01*
X47202Y-54777D01*
X47631Y-55205D02*
X47917Y-55205D01*
X47574Y-55377D02*
X47774Y-54777D01*
X47974Y-55377D01*
X48174Y-55148D02*
X48631Y-55148D01*
X48831Y-54777D02*
X49174Y-54777D01*
X49002Y-55377D02*
X49002Y-54777D01*
X49374Y-55377D02*
X49374Y-54777D01*
X49602Y-54777D01*
X49660Y-54805D01*
X49688Y-54834D01*
X49717Y-54891D01*
X49717Y-54977D01*
X49688Y-55034D01*
X49660Y-55062D01*
X49602Y-55091D01*
X49374Y-55091D01*
X49607Y-46844D02*
X49692Y-46872D01*
X49721Y-46901D01*
X49749Y-46958D01*
X49749Y-47044D01*
X49721Y-47101D01*
X49692Y-47130D01*
X49635Y-47158D01*
X49407Y-47158D01*
X49407Y-46558D01*
X49607Y-46558D01*
X49664Y-46587D01*
X49692Y-46615D01*
X49721Y-46672D01*
X49721Y-46730D01*
X49692Y-46787D01*
X49664Y-46815D01*
X49607Y-46844D01*
X49407Y-46844D01*
X49978Y-46615D02*
X50007Y-46587D01*
X50064Y-46558D01*
X50207Y-46558D01*
X50264Y-46587D01*
X50292Y-46615D01*
X50321Y-46672D01*
X50321Y-46730D01*
X50292Y-46815D01*
X49949Y-47158D01*
X50321Y-47158D01*
X50835Y-46758D02*
X50835Y-47158D01*
X50692Y-46530D02*
X50550Y-46958D01*
X50921Y-46958D01*
X51264Y-46558D02*
X51321Y-46558D01*
X51378Y-46587D01*
X51407Y-46615D01*
X51435Y-46672D01*
X51464Y-46787D01*
X51464Y-46930D01*
X51435Y-47044D01*
X51407Y-47101D01*
X51378Y-47130D01*
X51321Y-47158D01*
X51264Y-47158D01*
X51207Y-47130D01*
X51178Y-47101D01*
X51150Y-47044D01*
X51121Y-46930D01*
X51121Y-46787D01*
X51150Y-46672D01*
X51178Y-46615D01*
X51207Y-46587D01*
X51264Y-46558D01*
X51692Y-46987D02*
X51978Y-46987D01*
X51635Y-47158D02*
X51835Y-46558D01*
X52035Y-47158D01*
X52235Y-46930D02*
X52692Y-46930D01*
X53292Y-47158D02*
X52950Y-47158D01*
X53121Y-47158D02*
X53121Y-46558D01*
X53064Y-46644D01*
X53007Y-46701D01*
X52950Y-46730D01*
X53492Y-46558D02*
X53864Y-46558D01*
X53664Y-46787D01*
X53750Y-46787D01*
X53807Y-46815D01*
X53835Y-46844D01*
X53864Y-46901D01*
X53864Y-47044D01*
X53835Y-47101D01*
X53807Y-47130D01*
X53750Y-47158D01*
X53578Y-47158D01*
X53521Y-47130D01*
X53492Y-47101D01*
X54121Y-46930D02*
X54578Y-46930D01*
X55064Y-46844D02*
X54864Y-46844D01*
X54864Y-47158D02*
X54864Y-46558D01*
X55150Y-46558D01*
X69652Y-41085D02*
X69652Y-41428D01*
X69652Y-41256D02*
X69052Y-41256D01*
X69138Y-41314D01*
X69195Y-41371D01*
X69223Y-41428D01*
X69652Y-40828D02*
X69052Y-40828D01*
X69652Y-40485D01*
X69052Y-40485D01*
X69252Y-39942D02*
X69652Y-39942D01*
X69023Y-40085D02*
X69452Y-40228D01*
X69452Y-39856D01*
X69652Y-39314D02*
X69652Y-39656D01*
X69652Y-39485D02*
X69052Y-39485D01*
X69138Y-39542D01*
X69195Y-39599D01*
X69223Y-39656D01*
X69252Y-38799D02*
X69652Y-38799D01*
X69023Y-38942D02*
X69452Y-39085D01*
X69452Y-38714D01*
X69309Y-38399D02*
X69280Y-38456D01*
X69252Y-38485D01*
X69195Y-38514D01*
X69166Y-38514D01*
X69109Y-38485D01*
X69080Y-38456D01*
X69052Y-38399D01*
X69052Y-38285D01*
X69080Y-38228D01*
X69109Y-38199D01*
X69166Y-38171D01*
X69195Y-38171D01*
X69252Y-38199D01*
X69280Y-38228D01*
X69309Y-38285D01*
X69309Y-38399D01*
X69338Y-38456D01*
X69366Y-38485D01*
X69423Y-38514D01*
X69538Y-38514D01*
X69595Y-38485D01*
X69623Y-38456D01*
X69652Y-38399D01*
X69652Y-38285D01*
X69623Y-38228D01*
X69595Y-38199D01*
X69538Y-38171D01*
X69423Y-38171D01*
X69366Y-38199D01*
X69338Y-38228D01*
X69309Y-38285D01*
X69052Y-37971D02*
X69652Y-37828D01*
X69223Y-37714D01*
X69652Y-37599D01*
X69052Y-37456D01*
X69052Y-37314D02*
X69052Y-36971D01*
X69652Y-37142D02*
X69052Y-37142D01*
X69664Y-38652D02*
X69321Y-38652D01*
X69493Y-38652D02*
X69493Y-38052D01*
X69435Y-38138D01*
X69378Y-38195D01*
X69321Y-38223D01*
X69921Y-38652D02*
X69921Y-38052D01*
X70264Y-38652D01*
X70264Y-38052D01*
X70807Y-38252D02*
X70807Y-38652D01*
X70664Y-38023D02*
X70521Y-38452D01*
X70893Y-38452D01*
X71435Y-38652D02*
X71093Y-38652D01*
X71264Y-38652D02*
X71264Y-38052D01*
X71207Y-38138D01*
X71150Y-38195D01*
X71093Y-38223D01*
X71950Y-38252D02*
X71950Y-38652D01*
X71807Y-38023D02*
X71664Y-38452D01*
X72035Y-38452D01*
X72350Y-38309D02*
X72293Y-38280D01*
X72264Y-38252D01*
X72235Y-38195D01*
X72235Y-38166D01*
X72264Y-38109D01*
X72293Y-38080D01*
X72350Y-38052D01*
X72464Y-38052D01*
X72521Y-38080D01*
X72550Y-38109D01*
X72578Y-38166D01*
X72578Y-38195D01*
X72550Y-38252D01*
X72521Y-38280D01*
X72464Y-38309D01*
X72350Y-38309D01*
X72293Y-38338D01*
X72264Y-38366D01*
X72235Y-38423D01*
X72235Y-38538D01*
X72264Y-38595D01*
X72293Y-38623D01*
X72350Y-38652D01*
X72464Y-38652D01*
X72521Y-38623D01*
X72550Y-38595D01*
X72578Y-38538D01*
X72578Y-38423D01*
X72550Y-38366D01*
X72521Y-38338D01*
X72464Y-38309D01*
X72778Y-38052D02*
X72921Y-38652D01*
X73035Y-38223D01*
X73150Y-38652D01*
X73293Y-38052D01*
X73435Y-38052D02*
X73778Y-38052D01*
X73607Y-38652D02*
X73607Y-38052D01*
M02*
